  0
SECTION
  2
HEADER
  9
$ACADVER
  1
AC1009
  9
$EXTMIN
 10
0.0
 20
0.0
 30
0.0
  9
$EXTMAX
 10
1000.0
 20
1000.0
 30
0.0
  9
$FILLMODE
 70
 0
  9
$SPLFRAME
 70
 1
  0
ENDSEC
  0
SECTION
  2
TABLES
  0
TABLE
  2
LAYER
 70
1
  0
LAYER
  2
0
 70
     0
 62
     7
  6
CONTINUOUS
  0
ENDTAB
  0
ENDSEC
  0
SECTION
  2
ENTITIES
  0
LINE
  8
0
 62
     0
 10
26.0931
 20
99.344
 30
0.0
 11
101.969
 21
99.344
 31
0.0
  0
LINE
  8
0
 62
     0
 10
101.969
 20
99.344
 30
0.0
 11
104.469
 21
103.343
 31
0.0
  0
LINE
  8
0
 62
     0
 10
104.469
 20
103.343
 30
0.0
 11
106.033
 21
103.343
 31
0.0
  0
LINE
  8
0
 62
     0
 10
106.033
 20
103.343
 30
0.0
 11
106.025
 21
103.312
 31
0.0
  0
LINE
  8
0
 62
     0
 10
106.025
 20
103.312
 30
0.0
 11
105.995
 21
103.156
 31
0.0
  0
LINE
  8
0
 62
     0
 10
105.995
 20
103.156
 30
0.0
 11
105.975
 21
103
 31
0.0
  0
LINE
  8
0
 62
     0
 10
105.975
 20
103
 30
0.0
 11
105.97
 21
102.843
 31
0.0
  0
LINE
  8
0
 62
     0
 10
105.97
 20
102.843
 30
0.0
 11
105.975
 21
102.687
 31
0.0
  0
LINE
  8
0
 62
     0
 10
105.975
 20
102.687
 30
0.0
 11
105.995
 21
102.533
 31
0.0
  0
LINE
  8
0
 62
     0
 10
105.995
 20
102.533
 30
0.0
 11
106.025
 21
102.377
 31
0.0
  0
LINE
  8
0
 62
     0
 10
106.025
 20
102.377
 30
0.0
 11
106.068
 21
102.225
 31
0.0
  0
LINE
  8
0
 62
     0
 10
106.068
 20
102.225
 30
0.0
 11
106.121
 21
102.078
 31
0.0
  0
LINE
  8
0
 62
     0
 10
106.121
 20
102.078
 30
0.0
 11
106.188
 21
101.936
 31
0.0
  0
LINE
  8
0
 62
     0
 10
106.188
 20
101.936
 30
0.0
 11
106.265
 21
101.8
 31
0.0
  0
LINE
  8
0
 62
     0
 10
106.265
 20
101.8
 30
0.0
 11
106.352
 21
101.667
 31
0.0
  0
LINE
  8
0
 62
     0
 10
106.352
 20
101.667
 30
0.0
 11
106.449
 21
101.545
 31
0.0
  0
LINE
  8
0
 62
     0
 10
106.449
 20
101.545
 30
0.0
 11
106.555
 21
101.431
 31
0.0
  0
LINE
  8
0
 62
     0
 10
106.555
 20
101.431
 30
0.0
 11
106.671
 21
101.323
 31
0.0
  0
LINE
  8
0
 62
     0
 10
106.671
 20
101.323
 30
0.0
 11
106.794
 21
101.225
 31
0.0
  0
LINE
  8
0
 62
     0
 10
106.794
 20
101.225
 30
0.0
 11
106.925
 21
101.138
 31
0.0
  0
LINE
  8
0
 62
     0
 10
106.925
 20
101.138
 30
0.0
 11
107.061
 21
101.063
 31
0.0
  0
LINE
  8
0
 62
     0
 10
107.061
 20
101.063
 30
0.0
 11
107.205
 21
100.996
 31
0.0
  0
LINE
  8
0
 62
     0
 10
107.205
 20
100.996
 30
0.0
 11
107.352
 21
100.941
 31
0.0
  0
LINE
  8
0
 62
     0
 10
107.352
 20
100.941
 30
0.0
 11
107.502
 21
100.899
 31
0.0
  0
LINE
  8
0
 62
     0
 10
107.502
 20
100.899
 30
0.0
 11
107.656
 21
100.868
 31
0.0
  0
LINE
  8
0
 62
     0
 10
107.656
 20
100.868
 30
0.0
 11
107.812
 21
100.85
 31
0.0
  0
LINE
  8
0
 62
     0
 10
107.812
 20
100.85
 30
0.0
 11
107.969
 21
100.843
 31
0.0
  0
LINE
  8
0
 62
     0
 10
107.969
 20
100.843
 30
0.0
 11
108.126
 21
100.85
 31
0.0
  0
LINE
  8
0
 62
     0
 10
108.126
 20
100.85
 30
0.0
 11
108.282
 21
100.868
 31
0.0
  0
LINE
  8
0
 62
     0
 10
108.282
 20
100.868
 30
0.0
 11
108.436
 21
100.899
 31
0.0
  0
LINE
  8
0
 62
     0
 10
108.436
 20
100.899
 30
0.0
 11
108.588
 21
100.941
 31
0.0
  0
LINE
  8
0
 62
     0
 10
108.588
 20
100.941
 30
0.0
 11
108.734
 21
100.996
 31
0.0
  0
LINE
  8
0
 62
     0
 10
108.734
 20
100.996
 30
0.0
 11
108.877
 21
101.063
 31
0.0
  0
LINE
  8
0
 62
     0
 10
108.877
 20
101.063
 30
0.0
 11
109.015
 21
101.138
 31
0.0
  0
LINE
  8
0
 62
     0
 10
109.015
 20
101.138
 30
0.0
 11
109.146
 21
101.225
 31
0.0
  0
LINE
  8
0
 62
     0
 10
109.146
 20
101.225
 30
0.0
 11
109.269
 21
101.323
 31
0.0
  0
LINE
  8
0
 62
     0
 10
109.269
 20
101.323
 30
0.0
 11
109.383
 21
101.431
 31
0.0
  0
LINE
  8
0
 62
     0
 10
109.383
 20
101.431
 30
0.0
 11
109.491
 21
101.545
 31
0.0
  0
LINE
  8
0
 62
     0
 10
109.491
 20
101.545
 30
0.0
 11
109.587
 21
101.667
 31
0.0
  0
LINE
  8
0
 62
     0
 10
109.587
 20
101.667
 30
0.0
 11
109.675
 21
101.8
 31
0.0
  0
LINE
  8
0
 62
     0
 10
109.675
 20
101.8
 30
0.0
 11
109.751
 21
101.936
 31
0.0
  0
LINE
  8
0
 62
     0
 10
109.751
 20
101.936
 30
0.0
 11
109.817
 21
102.078
 31
0.0
  0
LINE
  8
0
 62
     0
 10
109.817
 20
102.078
 30
0.0
 11
109.872
 21
102.225
 31
0.0
  0
LINE
  8
0
 62
     0
 10
109.872
 20
102.225
 30
0.0
 11
109.915
 21
102.377
 31
0.0
  0
LINE
  8
0
 62
     0
 10
109.915
 20
102.377
 30
0.0
 11
109.945
 21
102.533
 31
0.0
  0
LINE
  8
0
 62
     0
 10
109.945
 20
102.533
 30
0.0
 11
109.963
 21
102.687
 31
0.0
  0
LINE
  8
0
 62
     0
 10
109.963
 20
102.687
 30
0.0
 11
109.97
 21
102.843
 31
0.0
  0
LINE
  8
0
 62
     0
 10
109.97
 20
102.843
 30
0.0
 11
109.963
 21
103
 31
0.0
  0
LINE
  8
0
 62
     0
 10
109.963
 20
103
 30
0.0
 11
109.945
 21
103.156
 31
0.0
  0
LINE
  8
0
 62
     0
 10
109.945
 20
103.156
 30
0.0
 11
109.915
 21
103.312
 31
0.0
  0
LINE
  8
0
 62
     0
 10
109.915
 20
103.312
 30
0.0
 11
109.905
 21
103.343
 31
0.0
  0
LINE
  8
0
 62
     0
 10
109.905
 20
103.343
 30
0.0
 11
111.47
 21
103.343
 31
0.0
  0
LINE
  8
0
 62
     0
 10
111.47
 20
103.343
 30
0.0
 11
113.969
 21
99.344
 31
0.0
  0
LINE
  8
0
 62
     0
 10
113.969
 20
99.344
 30
0.0
 11
171.97
 21
99.344
 31
0.0
  0
LINE
  8
0
 62
     0
 10
171.97
 20
99.344
 30
0.0
 11
174.469
 21
103.343
 31
0.0
  0
LINE
  8
0
 62
     0
 10
174.469
 20
103.343
 30
0.0
 11
176.033
 21
103.343
 31
0.0
  0
LINE
  8
0
 62
     0
 10
176.033
 20
103.343
 30
0.0
 11
176.025
 21
103.312
 31
0.0
  0
LINE
  8
0
 62
     0
 10
176.025
 20
103.312
 30
0.0
 11
175.995
 21
103.156
 31
0.0
  0
LINE
  8
0
 62
     0
 10
175.995
 20
103.156
 30
0.0
 11
175.975
 21
103
 31
0.0
  0
LINE
  8
0
 62
     0
 10
175.975
 20
103
 30
0.0
 11
175.97
 21
102.843
 31
0.0
  0
LINE
  8
0
 62
     0
 10
175.97
 20
102.843
 30
0.0
 11
175.975
 21
102.687
 31
0.0
  0
LINE
  8
0
 62
     0
 10
175.975
 20
102.687
 30
0.0
 11
175.995
 21
102.533
 31
0.0
  0
LINE
  8
0
 62
     0
 10
175.995
 20
102.533
 30
0.0
 11
176.025
 21
102.377
 31
0.0
  0
LINE
  8
0
 62
     0
 10
176.025
 20
102.377
 30
0.0
 11
176.068
 21
102.225
 31
0.0
  0
LINE
  8
0
 62
     0
 10
176.068
 20
102.225
 30
0.0
 11
176.121
 21
102.078
 31
0.0
  0
LINE
  8
0
 62
     0
 10
176.121
 20
102.078
 30
0.0
 11
176.188
 21
101.936
 31
0.0
  0
LINE
  8
0
 62
     0
 10
176.188
 20
101.936
 30
0.0
 11
176.265
 21
101.8
 31
0.0
  0
LINE
  8
0
 62
     0
 10
176.265
 20
101.8
 30
0.0
 11
176.352
 21
101.667
 31
0.0
  0
LINE
  8
0
 62
     0
 10
176.352
 20
101.667
 30
0.0
 11
176.448
 21
101.545
 31
0.0
  0
LINE
  8
0
 62
     0
 10
176.448
 20
101.545
 30
0.0
 11
176.556
 21
101.431
 31
0.0
  0
LINE
  8
0
 62
     0
 10
176.556
 20
101.431
 30
0.0
 11
176.671
 21
101.323
 31
0.0
  0
LINE
  8
0
 62
     0
 10
176.671
 20
101.323
 30
0.0
 11
176.794
 21
101.225
 31
0.0
  0
LINE
  8
0
 62
     0
 10
176.794
 20
101.225
 30
0.0
 11
176.925
 21
101.138
 31
0.0
  0
LINE
  8
0
 62
     0
 10
176.925
 20
101.138
 30
0.0
 11
177.061
 21
101.063
 31
0.0
  0
LINE
  8
0
 62
     0
 10
177.061
 20
101.063
 30
0.0
 11
177.205
 21
100.996
 31
0.0
  0
LINE
  8
0
 62
     0
 10
177.205
 20
100.996
 30
0.0
 11
177.352
 21
100.941
 31
0.0
  0
LINE
  8
0
 62
     0
 10
177.352
 20
100.941
 30
0.0
 11
177.502
 21
100.899
 31
0.0
  0
LINE
  8
0
 62
     0
 10
177.502
 20
100.899
 30
0.0
 11
177.657
 21
100.868
 31
0.0
  0
LINE
  8
0
 62
     0
 10
177.657
 20
100.868
 30
0.0
 11
177.812
 21
100.85
 31
0.0
  0
LINE
  8
0
 62
     0
 10
177.812
 20
100.85
 30
0.0
 11
177.969
 21
100.843
 31
0.0
  0
LINE
  8
0
 62
     0
 10
177.969
 20
100.843
 30
0.0
 11
178.127
 21
100.85
 31
0.0
  0
LINE
  8
0
 62
     0
 10
178.127
 20
100.85
 30
0.0
 11
178.282
 21
100.868
 31
0.0
  0
LINE
  8
0
 62
     0
 10
178.282
 20
100.868
 30
0.0
 11
178.437
 21
100.899
 31
0.0
  0
LINE
  8
0
 62
     0
 10
178.437
 20
100.899
 30
0.0
 11
178.588
 21
100.941
 31
0.0
  0
LINE
  8
0
 62
     0
 10
178.588
 20
100.941
 30
0.0
 11
178.734
 21
100.996
 31
0.0
  0
LINE
  8
0
 62
     0
 10
178.734
 20
100.996
 30
0.0
 11
178.878
 21
101.063
 31
0.0
  0
LINE
  8
0
 62
     0
 10
178.878
 20
101.063
 30
0.0
 11
179.015
 21
101.138
 31
0.0
  0
LINE
  8
0
 62
     0
 10
179.015
 20
101.138
 30
0.0
 11
179.146
 21
101.225
 31
0.0
  0
LINE
  8
0
 62
     0
 10
179.146
 20
101.225
 30
0.0
 11
179.269
 21
101.323
 31
0.0
  0
LINE
  8
0
 62
     0
 10
179.269
 20
101.323
 30
0.0
 11
179.383
 21
101.431
 31
0.0
  0
LINE
  8
0
 62
     0
 10
179.383
 20
101.431
 30
0.0
 11
179.491
 21
101.545
 31
0.0
  0
LINE
  8
0
 62
     0
 10
179.491
 20
101.545
 30
0.0
 11
179.587
 21
101.667
 31
0.0
  0
LINE
  8
0
 62
     0
 10
179.587
 20
101.667
 30
0.0
 11
179.674
 21
101.8
 31
0.0
  0
LINE
  8
0
 62
     0
 10
179.674
 20
101.8
 30
0.0
 11
179.751
 21
101.936
 31
0.0
  0
LINE
  8
0
 62
     0
 10
179.751
 20
101.936
 30
0.0
 11
179.818
 21
102.078
 31
0.0
  0
LINE
  8
0
 62
     0
 10
179.818
 20
102.078
 30
0.0
 11
179.871
 21
102.225
 31
0.0
  0
LINE
  8
0
 62
     0
 10
179.871
 20
102.225
 30
0.0
 11
179.915
 21
102.377
 31
0.0
  0
LINE
  8
0
 62
     0
 10
179.915
 20
102.377
 30
0.0
 11
179.944
 21
102.533
 31
0.0
  0
LINE
  8
0
 62
     0
 10
179.944
 20
102.533
 30
0.0
 11
179.964
 21
102.687
 31
0.0
  0
LINE
  8
0
 62
     0
 10
179.964
 20
102.687
 30
0.0
 11
179.97
 21
102.843
 31
0.0
  0
LINE
  8
0
 62
     0
 10
179.97
 20
102.843
 30
0.0
 11
179.964
 21
103
 31
0.0
  0
LINE
  8
0
 62
     0
 10
179.964
 20
103
 30
0.0
 11
179.944
 21
103.156
 31
0.0
  0
LINE
  8
0
 62
     0
 10
179.944
 20
103.156
 30
0.0
 11
179.915
 21
103.312
 31
0.0
  0
LINE
  8
0
 62
     0
 10
179.915
 20
103.312
 30
0.0
 11
179.906
 21
103.343
 31
0.0
  0
LINE
  8
0
 62
     0
 10
179.906
 20
103.343
 30
0.0
 11
181.47
 21
103.343
 31
0.0
  0
LINE
  8
0
 62
     0
 10
181.47
 20
103.343
 30
0.0
 11
183.969
 21
99.344
 31
0.0
  0
LINE
  8
0
 62
     0
 10
183.969
 20
99.344
 30
0.0
 11
259.846
 21
99.344
 31
0.0
  0
LINE
  8
0
 62
     0
 10
259.846
 20
99.344
 30
0.0
 11
262.345
 21
103.343
 31
0.0
  0
LINE
  8
0
 62
     0
 10
262.345
 20
103.343
 30
0.0
 11
263.91
 21
103.343
 31
0.0
  0
LINE
  8
0
 62
     0
 10
263.91
 20
103.343
 30
0.0
 11
263.901
 21
103.312
 31
0.0
  0
LINE
  8
0
 62
     0
 10
263.901
 20
103.312
 30
0.0
 11
263.87
 21
103.156
 31
0.0
  0
LINE
  8
0
 62
     0
 10
263.87
 20
103.156
 30
0.0
 11
263.852
 21
103
 31
0.0
  0
LINE
  8
0
 62
     0
 10
263.852
 20
103
 30
0.0
 11
263.846
 21
102.843
 31
0.0
  0
LINE
  8
0
 62
     0
 10
263.846
 20
102.843
 30
0.0
 11
263.852
 21
102.687
 31
0.0
  0
LINE
  8
0
 62
     0
 10
263.852
 20
102.687
 30
0.0
 11
263.87
 21
102.533
 31
0.0
  0
LINE
  8
0
 62
     0
 10
263.87
 20
102.533
 30
0.0
 11
263.901
 21
102.377
 31
0.0
  0
LINE
  8
0
 62
     0
 10
263.901
 20
102.377
 30
0.0
 11
263.943
 21
102.225
 31
0.0
  0
LINE
  8
0
 62
     0
 10
263.943
 20
102.225
 30
0.0
 11
263.998
 21
102.078
 31
0.0
  0
LINE
  8
0
 62
     0
 10
263.998
 20
102.078
 30
0.0
 11
264.062
 21
101.936
 31
0.0
  0
LINE
  8
0
 62
     0
 10
264.062
 20
101.936
 30
0.0
 11
264.14
 21
101.8
 31
0.0
  0
LINE
  8
0
 62
     0
 10
264.14
 20
101.8
 30
0.0
 11
264.226
 21
101.667
 31
0.0
  0
LINE
  8
0
 62
     0
 10
264.226
 20
101.667
 30
0.0
 11
264.324
 21
101.545
 31
0.0
  0
LINE
  8
0
 62
     0
 10
264.324
 20
101.545
 30
0.0
 11
264.43
 21
101.431
 31
0.0
  0
LINE
  8
0
 62
     0
 10
264.43
 20
101.431
 30
0.0
 11
264.546
 21
101.323
 31
0.0
  0
LINE
  8
0
 62
     0
 10
264.546
 20
101.323
 30
0.0
 11
264.67
 21
101.225
 31
0.0
  0
LINE
  8
0
 62
     0
 10
264.67
 20
101.225
 30
0.0
 11
264.801
 21
101.138
 31
0.0
  0
LINE
  8
0
 62
     0
 10
264.801
 20
101.138
 30
0.0
 11
264.938
 21
101.063
 31
0.0
  0
LINE
  8
0
 62
     0
 10
264.938
 20
101.063
 30
0.0
 11
265.079
 21
100.996
 31
0.0
  0
LINE
  8
0
 62
     0
 10
265.079
 20
100.996
 30
0.0
 11
265.227
 21
100.941
 31
0.0
  0
LINE
  8
0
 62
     0
 10
265.227
 20
100.941
 30
0.0
 11
265.379
 21
100.899
 31
0.0
  0
LINE
  8
0
 62
     0
 10
265.379
 20
100.899
 30
0.0
 11
265.533
 21
100.868
 31
0.0
  0
LINE
  8
0
 62
     0
 10
265.533
 20
100.868
 30
0.0
 11
265.689
 21
100.85
 31
0.0
  0
LINE
  8
0
 62
     0
 10
265.689
 20
100.85
 30
0.0
 11
265.846
 21
100.843
 31
0.0
  0
LINE
  8
0
 62
     0
 10
265.846
 20
100.843
 30
0.0
 11
266.002
 21
100.85
 31
0.0
  0
LINE
  8
0
 62
     0
 10
266.002
 20
100.85
 30
0.0
 11
266.158
 21
100.868
 31
0.0
  0
LINE
  8
0
 62
     0
 10
266.158
 20
100.868
 30
0.0
 11
266.311
 21
100.899
 31
0.0
  0
LINE
  8
0
 62
     0
 10
266.311
 20
100.899
 30
0.0
 11
266.464
 21
100.941
 31
0.0
  0
LINE
  8
0
 62
     0
 10
266.464
 20
100.941
 30
0.0
 11
266.61
 21
100.996
 31
0.0
  0
LINE
  8
0
 62
     0
 10
266.61
 20
100.996
 30
0.0
 11
266.752
 21
101.063
 31
0.0
  0
LINE
  8
0
 62
     0
 10
266.752
 20
101.063
 30
0.0
 11
266.89
 21
101.138
 31
0.0
  0
LINE
  8
0
 62
     0
 10
266.89
 20
101.138
 30
0.0
 11
267.021
 21
101.225
 31
0.0
  0
LINE
  8
0
 62
     0
 10
267.021
 20
101.225
 30
0.0
 11
267.144
 21
101.323
 31
0.0
  0
LINE
  8
0
 62
     0
 10
267.144
 20
101.323
 30
0.0
 11
267.26
 21
101.431
 31
0.0
  0
LINE
  8
0
 62
     0
 10
267.26
 20
101.431
 30
0.0
 11
267.366
 21
101.545
 31
0.0
  0
LINE
  8
0
 62
     0
 10
267.366
 20
101.545
 30
0.0
 11
267.463
 21
101.667
 31
0.0
  0
LINE
  8
0
 62
     0
 10
267.463
 20
101.667
 30
0.0
 11
267.55
 21
101.8
 31
0.0
  0
LINE
  8
0
 62
     0
 10
267.55
 20
101.8
 30
0.0
 11
267.627
 21
101.936
 31
0.0
  0
LINE
  8
0
 62
     0
 10
267.627
 20
101.936
 30
0.0
 11
267.692
 21
102.078
 31
0.0
  0
LINE
  8
0
 62
     0
 10
267.692
 20
102.078
 30
0.0
 11
267.747
 21
102.225
 31
0.0
  0
LINE
  8
0
 62
     0
 10
267.747
 20
102.225
 30
0.0
 11
267.79
 21
102.377
 31
0.0
  0
LINE
  8
0
 62
     0
 10
267.79
 20
102.377
 30
0.0
 11
267.82
 21
102.533
 31
0.0
  0
LINE
  8
0
 62
     0
 10
267.82
 20
102.533
 30
0.0
 11
267.838
 21
102.687
 31
0.0
  0
LINE
  8
0
 62
     0
 10
267.838
 20
102.687
 30
0.0
 11
267.845
 21
102.843
 31
0.0
  0
LINE
  8
0
 62
     0
 10
267.845
 20
102.843
 30
0.0
 11
267.838
 21
103
 31
0.0
  0
LINE
  8
0
 62
     0
 10
267.838
 20
103
 30
0.0
 11
267.82
 21
103.156
 31
0.0
  0
LINE
  8
0
 62
     0
 10
267.82
 20
103.156
 30
0.0
 11
267.79
 21
103.312
 31
0.0
  0
LINE
  8
0
 62
     0
 10
267.79
 20
103.312
 30
0.0
 11
267.781
 21
103.343
 31
0.0
  0
LINE
  8
0
 62
     0
 10
267.781
 20
103.343
 30
0.0
 11
269.346
 21
103.343
 31
0.0
  0
LINE
  8
0
 62
     0
 10
269.346
 20
103.343
 30
0.0
 11
271.846
 21
99.344
 31
0.0
  0
LINE
  8
0
 62
     0
 10
271.846
 20
99.344
 30
0.0
 11
281.846
 21
99.344
 31
0.0
  0
LINE
  8
0
 62
     0
 10
281.846
 20
99.344
 30
0.0
 11
282.159
 21
99.3316
 31
0.0
  0
LINE
  8
0
 62
     0
 10
282.159
 20
99.3316
 30
0.0
 11
282.47
 21
99.2946
 31
0.0
  0
LINE
  8
0
 62
     0
 10
282.47
 20
99.2946
 30
0.0
 11
282.779
 21
99.2325
 31
0.0
  0
LINE
  8
0
 62
     0
 10
282.779
 20
99.2325
 30
0.0
 11
283.082
 21
99.1485
 31
0.0
  0
LINE
  8
0
 62
     0
 10
283.082
 20
99.1485
 30
0.0
 11
283.376
 21
99.0395
 31
0.0
  0
LINE
  8
0
 62
     0
 10
283.376
 20
99.0395
 30
0.0
 11
283.661
 21
98.9087
 31
0.0
  0
LINE
  8
0
 62
     0
 10
283.661
 20
98.9087
 30
0.0
 11
283.935
 21
98.7559
 31
0.0
  0
LINE
  8
0
 62
     0
 10
283.935
 20
98.7559
 30
0.0
 11
284.197
 21
98.5806
 31
0.0
  0
LINE
  8
0
 62
     0
 10
284.197
 20
98.5806
 30
0.0
 11
284.442
 21
98.3851
 31
0.0
  0
LINE
  8
0
 62
     0
 10
284.442
 20
98.3851
 30
0.0
 11
284.674
 21
98.1728
 31
0.0
  0
LINE
  8
0
 62
     0
 10
284.674
 20
98.1728
 30
0.0
 11
284.887
 21
97.9413
 31
0.0
  0
LINE
  8
0
 62
     0
 10
284.887
 20
97.9413
 30
0.0
 11
285.081
 21
97.6962
 31
0.0
  0
LINE
  8
0
 62
     0
 10
285.081
 20
97.6962
 30
0.0
 11
285.255
 21
97.433
 31
0.0
  0
LINE
  8
0
 62
     0
 10
285.255
 20
97.433
 30
0.0
 11
285.41
 21
97.1585
 31
0.0
  0
LINE
  8
0
 62
     0
 10
285.41
 20
97.1585
 30
0.0
 11
285.54
 21
96.8745
 31
0.0
  0
LINE
  8
0
 62
     0
 10
285.54
 20
96.8745
 30
0.0
 11
285.649
 21
96.58
 31
0.0
  0
LINE
  8
0
 62
     0
 10
285.649
 20
96.58
 30
0.0
 11
285.735
 21
96.2766
 31
0.0
  0
LINE
  8
0
 62
     0
 10
285.735
 20
96.2766
 30
0.0
 11
285.796
 21
95.9693
 31
0.0
  0
LINE
  8
0
 62
     0
 10
285.796
 20
95.9693
 30
0.0
 11
285.833
 21
95.6564
 31
0.0
  0
LINE
  8
0
 62
     0
 10
285.833
 20
95.6564
 30
0.0
 11
285.845
 21
95.3452
 31
0.0
  0
LINE
  8
0
 62
     0
 10
285.845
 20
95.3452
 30
0.0
 11
285.845
 21
8.09322
 31
0.0
  0
LINE
  8
0
 62
     0
 10
285.845
 20
8.09322
 30
0.0
 11
285.833
 21
7.77903
 31
0.0
  0
LINE
  8
0
 62
     0
 10
285.833
 20
7.77903
 30
0.0
 11
285.796
 21
7.4676
 31
0.0
  0
LINE
  8
0
 62
     0
 10
285.796
 20
7.4676
 30
0.0
 11
285.735
 21
7.15892
 31
0.0
  0
LINE
  8
0
 62
     0
 10
285.735
 20
7.15892
 30
0.0
 11
285.649
 21
6.85712
 31
0.0
  0
LINE
  8
0
 62
     0
 10
285.649
 20
6.85712
 30
0.0
 11
285.54
 21
6.56361
 31
0.0
  0
LINE
  8
0
 62
     0
 10
285.54
 20
6.56361
 30
0.0
 11
285.41
 21
6.27697
 31
0.0
  0
LINE
  8
0
 62
     0
 10
285.41
 20
6.27697
 30
0.0
 11
285.255
 21
6.0041
 31
0.0
  0
LINE
  8
0
 62
     0
 10
285.255
 20
6.0041
 30
0.0
 11
285.081
 21
5.74089
 31
0.0
  0
LINE
  8
0
 62
     0
 10
285.081
 20
5.74089
 30
0.0
 11
284.887
 21
5.49561
 31
0.0
  0
LINE
  8
0
 62
     0
 10
284.887
 20
5.49561
 30
0.0
 11
284.674
 21
5.26411
 31
0.0
  0
LINE
  8
0
 62
     0
 10
284.674
 20
5.26411
 30
0.0
 11
284.442
 21
5.05051
 31
0.0
  0
LINE
  8
0
 62
     0
 10
284.442
 20
5.05051
 30
0.0
 11
284.197
 21
4.85757
 31
0.0
  0
LINE
  8
0
 62
     0
 10
284.197
 20
4.85757
 30
0.0
 11
283.935
 21
4.68256
 31
0.0
  0
LINE
  8
0
 62
     0
 10
283.935
 20
4.68256
 30
0.0
 11
283.661
 21
4.52822
 31
0.0
  0
LINE
  8
0
 62
     0
 10
283.661
 20
4.52822
 30
0.0
 11
283.376
 21
4.3973
 31
0.0
  0
LINE
  8
0
 62
     0
 10
283.376
 20
4.3973
 30
0.0
 11
283.082
 21
4.28847
 31
0.0
  0
LINE
  8
0
 62
     0
 10
283.082
 20
4.28847
 30
0.0
 11
282.779
 21
4.20303
 31
0.0
  0
LINE
  8
0
 62
     0
 10
282.779
 20
4.20303
 30
0.0
 11
282.47
 21
4.14239
 31
0.0
  0
LINE
  8
0
 62
     0
 10
282.47
 20
4.14239
 30
0.0
 11
282.159
 21
4.10517
 31
0.0
  0
LINE
  8
0
 62
     0
 10
282.159
 20
4.10517
 30
0.0
 11
281.846
 21
4.09416
 31
0.0
  0
LINE
  8
0
 62
     0
 10
281.846
 20
4.09416
 30
0.0
 11
271.844
 21
4.09416
 31
0.0
  0
LINE
  8
0
 62
     0
 10
271.844
 20
4.09416
 30
0.0
 11
269.346
 21
0.0950846
 31
0.0
  0
LINE
  8
0
 62
     0
 10
269.346
 20
0.0950846
 30
0.0
 11
267.781
 21
0.0950846
 31
0.0
  0
LINE
  8
0
 62
     0
 10
267.781
 20
0.0950846
 30
0.0
 11
267.79
 21
0.12678
 31
0.0
  0
LINE
  8
0
 62
     0
 10
267.79
 20
0.12678
 30
0.0
 11
267.82
 21
0.279742
 31
0.0
  0
LINE
  8
0
 62
     0
 10
267.82
 20
0.279742
 30
0.0
 11
267.838
 21
0.436838
 31
0.0
  0
LINE
  8
0
 62
     0
 10
267.838
 20
0.436838
 30
0.0
 11
267.845
 21
0.592557
 31
0.0
  0
LINE
  8
0
 62
     0
 10
267.845
 20
0.592557
 30
0.0
 11
267.838
 21
0.749653
 31
0.0
  0
LINE
  8
0
 62
     0
 10
267.838
 20
0.749653
 30
0.0
 11
267.82
 21
0.905372
 31
0.0
  0
LINE
  8
0
 62
     0
 10
267.82
 20
0.905372
 30
0.0
 11
267.79
 21
1.05971
 31
0.0
  0
LINE
  8
0
 62
     0
 10
267.79
 20
1.05971
 30
0.0
 11
267.747
 21
1.21267
 31
0.0
  0
LINE
  8
0
 62
     0
 10
267.747
 20
1.21267
 30
0.0
 11
267.692
 21
1.36012
 31
0.0
  0
LINE
  8
0
 62
     0
 10
267.692
 20
1.36012
 30
0.0
 11
267.627
 21
1.50068
 31
0.0
  0
LINE
  8
0
 62
     0
 10
267.627
 20
1.50068
 30
0.0
 11
267.55
 21
1.63849
 31
0.0
  0
LINE
  8
0
 62
     0
 10
267.55
 20
1.63849
 30
0.0
 11
267.463
 21
1.76802
 31
0.0
  0
LINE
  8
0
 62
     0
 10
267.463
 20
1.76802
 30
0.0
 11
267.366
 21
1.89067
 31
0.0
  0
LINE
  8
0
 62
     0
 10
267.366
 20
1.89067
 30
0.0
 11
267.26
 21
2.0078
 31
0.0
  0
LINE
  8
0
 62
     0
 10
267.26
 20
2.0078
 30
0.0
 11
267.144
 21
2.11253
 31
0.0
  0
LINE
  8
0
 62
     0
 10
267.144
 20
2.11253
 30
0.0
 11
267.021
 21
2.21175
 31
0.0
  0
LINE
  8
0
 62
     0
 10
267.021
 20
2.21175
 30
0.0
 11
266.89
 21
2.29995
 31
0.0
  0
LINE
  8
0
 62
     0
 10
266.89
 20
2.29995
 30
0.0
 11
266.752
 21
2.37574
 31
0.0
  0
LINE
  8
0
 62
     0
 10
266.752
 20
2.37574
 30
0.0
 11
266.61
 21
2.44051
 31
0.0
  0
LINE
  8
0
 62
     0
 10
266.61
 20
2.44051
 30
0.0
 11
266.464
 21
2.49563
 31
0.0
  0
LINE
  8
0
 62
     0
 10
266.464
 20
2.49563
 30
0.0
 11
266.311
 21
2.53697
 31
0.0
  0
LINE
  8
0
 62
     0
 10
266.311
 20
2.53697
 30
0.0
 11
266.158
 21
2.56866
 31
0.0
  0
LINE
  8
0
 62
     0
 10
266.158
 20
2.56866
 30
0.0
 11
266.002
 21
2.58658
 31
0.0
  0
LINE
  8
0
 62
     0
 10
266.002
 20
2.58658
 30
0.0
 11
265.846
 21
2.59485
 31
0.0
  0
LINE
  8
0
 62
     0
 10
265.846
 20
2.59485
 30
0.0
 11
265.689
 21
2.58658
 31
0.0
  0
LINE
  8
0
 62
     0
 10
265.689
 20
2.58658
 30
0.0
 11
265.533
 21
2.56866
 31
0.0
  0
LINE
  8
0
 62
     0
 10
265.533
 20
2.56866
 30
0.0
 11
265.379
 21
2.53697
 31
0.0
  0
LINE
  8
0
 62
     0
 10
265.379
 20
2.53697
 30
0.0
 11
265.227
 21
2.49563
 31
0.0
  0
LINE
  8
0
 62
     0
 10
265.227
 20
2.49563
 30
0.0
 11
265.079
 21
2.44051
 31
0.0
  0
LINE
  8
0
 62
     0
 10
265.079
 20
2.44051
 30
0.0
 11
264.938
 21
2.37574
 31
0.0
  0
LINE
  8
0
 62
     0
 10
264.938
 20
2.37574
 30
0.0
 11
264.801
 21
2.29995
 31
0.0
  0
LINE
  8
0
 62
     0
 10
264.801
 20
2.29995
 30
0.0
 11
264.67
 21
2.21175
 31
0.0
  0
LINE
  8
0
 62
     0
 10
264.67
 20
2.21175
 30
0.0
 11
264.546
 21
2.11253
 31
0.0
  0
LINE
  8
0
 62
     0
 10
264.546
 20
2.11253
 30
0.0
 11
264.43
 21
2.0078
 31
0.0
  0
LINE
  8
0
 62
     0
 10
264.43
 20
2.0078
 30
0.0
 11
264.324
 21
1.89067
 31
0.0
  0
LINE
  8
0
 62
     0
 10
264.324
 20
1.89067
 30
0.0
 11
264.226
 21
1.76802
 31
0.0
  0
LINE
  8
0
 62
     0
 10
264.226
 20
1.76802
 30
0.0
 11
264.14
 21
1.63849
 31
0.0
  0
LINE
  8
0
 62
     0
 10
264.14
 20
1.63849
 30
0.0
 11
264.062
 21
1.50068
 31
0.0
  0
LINE
  8
0
 62
     0
 10
264.062
 20
1.50068
 30
0.0
 11
263.998
 21
1.36012
 31
0.0
  0
LINE
  8
0
 62
     0
 10
263.998
 20
1.36012
 30
0.0
 11
263.943
 21
1.21267
 31
0.0
  0
LINE
  8
0
 62
     0
 10
263.943
 20
1.21267
 30
0.0
 11
263.901
 21
1.05971
 31
0.0
  0
LINE
  8
0
 62
     0
 10
263.901
 20
1.05971
 30
0.0
 11
263.87
 21
0.905372
 31
0.0
  0
LINE
  8
0
 62
     0
 10
263.87
 20
0.905372
 30
0.0
 11
263.852
 21
0.749653
 31
0.0
  0
LINE
  8
0
 62
     0
 10
263.852
 20
0.749653
 30
0.0
 11
263.846
 21
0.592557
 31
0.0
  0
LINE
  8
0
 62
     0
 10
263.846
 20
0.592557
 30
0.0
 11
263.852
 21
0.436838
 31
0.0
  0
LINE
  8
0
 62
     0
 10
263.852
 20
0.436838
 30
0.0
 11
263.87
 21
0.279742
 31
0.0
  0
LINE
  8
0
 62
     0
 10
263.87
 20
0.279742
 30
0.0
 11
263.901
 21
0.12678
 31
0.0
  0
LINE
  8
0
 62
     0
 10
263.901
 20
0.12678
 30
0.0
 11
263.91
 21
0.0950846
 31
0.0
  0
LINE
  8
0
 62
     0
 10
263.91
 20
0.0950846
 30
0.0
 11
262.345
 21
0.0950846
 31
0.0
  0
LINE
  8
0
 62
     0
 10
262.345
 20
0.0950846
 30
0.0
 11
259.847
 21
4.09416
 31
0.0
  0
LINE
  8
0
 62
     0
 10
259.847
 20
4.09416
 30
0.0
 11
148.97
 21
4.09416
 31
0.0
  0
LINE
  8
0
 62
     0
 10
148.97
 20
4.09416
 30
0.0
 11
146.47
 21
0.0950846
 31
0.0
  0
LINE
  8
0
 62
     0
 10
146.47
 20
0.0950846
 30
0.0
 11
144.906
 21
0.0950846
 31
0.0
  0
LINE
  8
0
 62
     0
 10
144.906
 20
0.0950846
 30
0.0
 11
144.914
 21
0.12678
 31
0.0
  0
LINE
  8
0
 62
     0
 10
144.914
 20
0.12678
 30
0.0
 11
144.945
 21
0.279742
 31
0.0
  0
LINE
  8
0
 62
     0
 10
144.945
 20
0.279742
 30
0.0
 11
144.964
 21
0.436838
 31
0.0
  0
LINE
  8
0
 62
     0
 10
144.964
 20
0.436838
 30
0.0
 11
144.97
 21
0.592557
 31
0.0
  0
LINE
  8
0
 62
     0
 10
144.97
 20
0.592557
 30
0.0
 11
144.964
 21
0.749653
 31
0.0
  0
LINE
  8
0
 62
     0
 10
144.964
 20
0.749653
 30
0.0
 11
144.945
 21
0.905372
 31
0.0
  0
LINE
  8
0
 62
     0
 10
144.945
 20
0.905372
 30
0.0
 11
144.914
 21
1.05971
 31
0.0
  0
LINE
  8
0
 62
     0
 10
144.914
 20
1.05971
 30
0.0
 11
144.872
 21
1.21267
 31
0.0
  0
LINE
  8
0
 62
     0
 10
144.872
 20
1.21267
 30
0.0
 11
144.818
 21
1.36012
 31
0.0
  0
LINE
  8
0
 62
     0
 10
144.818
 20
1.36012
 30
0.0
 11
144.752
 21
1.50068
 31
0.0
  0
LINE
  8
0
 62
     0
 10
144.752
 20
1.50068
 30
0.0
 11
144.675
 21
1.63849
 31
0.0
  0
LINE
  8
0
 62
     0
 10
144.675
 20
1.63849
 30
0.0
 11
144.588
 21
1.76802
 31
0.0
  0
LINE
  8
0
 62
     0
 10
144.588
 20
1.76802
 30
0.0
 11
144.491
 21
1.89067
 31
0.0
  0
LINE
  8
0
 62
     0
 10
144.491
 20
1.89067
 30
0.0
 11
144.384
 21
2.0078
 31
0.0
  0
LINE
  8
0
 62
     0
 10
144.384
 20
2.0078
 30
0.0
 11
144.268
 21
2.11253
 31
0.0
  0
LINE
  8
0
 62
     0
 10
144.268
 20
2.11253
 30
0.0
 11
144.146
 21
2.21175
 31
0.0
  0
LINE
  8
0
 62
     0
 10
144.146
 20
2.21175
 30
0.0
 11
144.014
 21
2.29995
 31
0.0
  0
LINE
  8
0
 62
     0
 10
144.014
 20
2.29995
 30
0.0
 11
143.878
 21
2.37574
 31
0.0
  0
LINE
  8
0
 62
     0
 10
143.878
 20
2.37574
 30
0.0
 11
143.735
 21
2.44051
 31
0.0
  0
LINE
  8
0
 62
     0
 10
143.735
 20
2.44051
 30
0.0
 11
143.588
 21
2.49563
 31
0.0
  0
LINE
  8
0
 62
     0
 10
143.588
 20
2.49563
 30
0.0
 11
143.437
 21
2.53697
 31
0.0
  0
LINE
  8
0
 62
     0
 10
143.437
 20
2.53697
 30
0.0
 11
143.283
 21
2.56866
 31
0.0
  0
LINE
  8
0
 62
     0
 10
143.283
 20
2.56866
 30
0.0
 11
143.127
 21
2.58658
 31
0.0
  0
LINE
  8
0
 62
     0
 10
143.127
 20
2.58658
 30
0.0
 11
142.97
 21
2.59485
 31
0.0
  0
LINE
  8
0
 62
     0
 10
142.97
 20
2.59485
 30
0.0
 11
142.813
 21
2.58658
 31
0.0
  0
LINE
  8
0
 62
     0
 10
142.813
 20
2.58658
 30
0.0
 11
142.657
 21
2.56866
 31
0.0
  0
LINE
  8
0
 62
     0
 10
142.657
 20
2.56866
 30
0.0
 11
142.503
 21
2.53697
 31
0.0
  0
LINE
  8
0
 62
     0
 10
142.503
 20
2.53697
 30
0.0
 11
142.351
 21
2.49563
 31
0.0
  0
LINE
  8
0
 62
     0
 10
142.351
 20
2.49563
 30
0.0
 11
142.205
 21
2.44051
 31
0.0
  0
LINE
  8
0
 62
     0
 10
142.205
 20
2.44051
 30
0.0
 11
142.062
 21
2.37574
 31
0.0
  0
LINE
  8
0
 62
     0
 10
142.062
 20
2.37574
 30
0.0
 11
141.924
 21
2.29995
 31
0.0
  0
LINE
  8
0
 62
     0
 10
141.924
 20
2.29995
 30
0.0
 11
141.793
 21
2.21175
 31
0.0
  0
LINE
  8
0
 62
     0
 10
141.793
 20
2.21175
 30
0.0
 11
141.671
 21
2.11253
 31
0.0
  0
LINE
  8
0
 62
     0
 10
141.671
 20
2.11253
 30
0.0
 11
141.556
 21
2.0078
 31
0.0
  0
LINE
  8
0
 62
     0
 10
141.556
 20
2.0078
 30
0.0
 11
141.449
 21
1.89067
 31
0.0
  0
LINE
  8
0
 62
     0
 10
141.449
 20
1.89067
 30
0.0
 11
141.352
 21
1.76802
 31
0.0
  0
LINE
  8
0
 62
     0
 10
141.352
 20
1.76802
 30
0.0
 11
141.264
 21
1.63849
 31
0.0
  0
LINE
  8
0
 62
     0
 10
141.264
 20
1.63849
 30
0.0
 11
141.188
 21
1.50068
 31
0.0
  0
LINE
  8
0
 62
     0
 10
141.188
 20
1.50068
 30
0.0
 11
141.122
 21
1.36012
 31
0.0
  0
LINE
  8
0
 62
     0
 10
141.122
 20
1.36012
 30
0.0
 11
141.068
 21
1.21267
 31
0.0
  0
LINE
  8
0
 62
     0
 10
141.068
 20
1.21267
 30
0.0
 11
141.024
 21
1.05971
 31
0.0
  0
LINE
  8
0
 62
     0
 10
141.024
 20
1.05971
 30
0.0
 11
140.995
 21
0.905372
 31
0.0
  0
LINE
  8
0
 62
     0
 10
140.995
 20
0.905372
 30
0.0
 11
140.976
 21
0.749653
 31
0.0
  0
LINE
  8
0
 62
     0
 10
140.976
 20
0.749653
 30
0.0
 11
140.969
 21
0.592557
 31
0.0
  0
LINE
  8
0
 62
     0
 10
140.969
 20
0.592557
 30
0.0
 11
140.976
 21
0.436838
 31
0.0
  0
LINE
  8
0
 62
     0
 10
140.976
 20
0.436838
 30
0.0
 11
140.995
 21
0.279742
 31
0.0
  0
LINE
  8
0
 62
     0
 10
140.995
 20
0.279742
 30
0.0
 11
141.024
 21
0.12678
 31
0.0
  0
LINE
  8
0
 62
     0
 10
141.024
 20
0.12678
 30
0.0
 11
141.034
 21
0.0950846
 31
0.0
  0
LINE
  8
0
 62
     0
 10
141.034
 20
0.0950846
 30
0.0
 11
139.47
 21
0.0950846
 31
0.0
  0
LINE
  8
0
 62
     0
 10
139.47
 20
0.0950846
 30
0.0
 11
136.97
 21
4.09416
 31
0.0
  0
LINE
  8
0
 62
     0
 10
136.97
 20
4.09416
 30
0.0
 11
26.0946
 21
4.09416
 31
0.0
  0
LINE
  8
0
 62
     0
 10
26.0946
 20
4.09416
 30
0.0
 11
23.5948
 21
0.0950846
 31
0.0
  0
LINE
  8
0
 62
     0
 10
23.5948
 20
0.0950846
 30
0.0
 11
22.0293
 21
0.0950846
 31
0.0
  0
LINE
  8
0
 62
     0
 10
22.0293
 20
0.0950846
 30
0.0
 11
22.039
 21
0.12678
 31
0.0
  0
LINE
  8
0
 62
     0
 10
22.039
 20
0.12678
 30
0.0
 11
22.0693
 21
0.279742
 31
0.0
  0
LINE
  8
0
 62
     0
 10
22.0693
 20
0.279742
 30
0.0
 11
22.0872
 21
0.436838
 31
0.0
  0
LINE
  8
0
 62
     0
 10
22.0872
 20
0.436838
 30
0.0
 11
22.0941
 21
0.592557
 31
0.0
  0
LINE
  8
0
 62
     0
 10
22.0941
 20
0.592557
 30
0.0
 11
22.0872
 21
0.749653
 31
0.0
  0
LINE
  8
0
 62
     0
 10
22.0872
 20
0.749653
 30
0.0
 11
22.0693
 21
0.905372
 31
0.0
  0
LINE
  8
0
 62
     0
 10
22.0693
 20
0.905372
 30
0.0
 11
22.039
 21
1.05971
 31
0.0
  0
LINE
  8
0
 62
     0
 10
22.039
 20
1.05971
 30
0.0
 11
21.9963
 21
1.21267
 31
0.0
  0
LINE
  8
0
 62
     0
 10
21.9963
 20
1.21267
 30
0.0
 11
21.9411
 21
1.36012
 31
0.0
  0
LINE
  8
0
 62
     0
 10
21.9411
 20
1.36012
 30
0.0
 11
21.8763
 21
1.50068
 31
0.0
  0
LINE
  8
0
 62
     0
 10
21.8763
 20
1.50068
 30
0.0
 11
21.7992
 21
1.63849
 31
0.0
  0
LINE
  8
0
 62
     0
 10
21.7992
 20
1.63849
 30
0.0
 11
21.7124
 21
1.76802
 31
0.0
  0
LINE
  8
0
 62
     0
 10
21.7124
 20
1.76802
 30
0.0
 11
21.6145
 21
1.89067
 31
0.0
  0
LINE
  8
0
 62
     0
 10
21.6145
 20
1.89067
 30
0.0
 11
21.5084
 21
2.0078
 31
0.0
  0
LINE
  8
0
 62
     0
 10
21.5084
 20
2.0078
 30
0.0
 11
21.3927
 21
2.11253
 31
0.0
  0
LINE
  8
0
 62
     0
 10
21.3927
 20
2.11253
 30
0.0
 11
21.27
 21
2.21175
 31
0.0
  0
LINE
  8
0
 62
     0
 10
21.27
 20
2.21175
 30
0.0
 11
21.1391
 21
2.29995
 31
0.0
  0
LINE
  8
0
 62
     0
 10
21.1391
 20
2.29995
 30
0.0
 11
21.0013
 21
2.37574
 31
0.0
  0
LINE
  8
0
 62
     0
 10
21.0013
 20
2.37574
 30
0.0
 11
20.8594
 21
2.44051
 31
0.0
  0
LINE
  8
0
 62
     0
 10
20.8594
 20
2.44051
 30
0.0
 11
20.7133
 21
2.49563
 31
0.0
  0
LINE
  8
0
 62
     0
 10
20.7133
 20
2.49563
 30
0.0
 11
20.5603
 21
2.53697
 31
0.0
  0
LINE
  8
0
 62
     0
 10
20.5603
 20
2.53697
 30
0.0
 11
20.4074
 21
2.56866
 31
0.0
  0
LINE
  8
0
 62
     0
 10
20.4074
 20
2.56866
 30
0.0
 11
20.2503
 21
2.58658
 31
0.0
  0
LINE
  8
0
 62
     0
 10
20.2503
 20
2.58658
 30
0.0
 11
20.0945
 21
2.59485
 31
0.0
  0
LINE
  8
0
 62
     0
 10
20.0945
 20
2.59485
 30
0.0
 11
19.9374
 21
2.58658
 31
0.0
  0
LINE
  8
0
 62
     0
 10
19.9374
 20
2.58658
 30
0.0
 11
19.7817
 21
2.56866
 31
0.0
  0
LINE
  8
0
 62
     0
 10
19.7817
 20
2.56866
 30
0.0
 11
19.6274
 21
2.53697
 31
0.0
  0
LINE
  8
0
 62
     0
 10
19.6274
 20
2.53697
 30
0.0
 11
19.4758
 21
2.49563
 31
0.0
  0
LINE
  8
0
 62
     0
 10
19.4758
 20
2.49563
 30
0.0
 11
19.3284
 21
2.44051
 31
0.0
  0
LINE
  8
0
 62
     0
 10
19.3284
 20
2.44051
 30
0.0
 11
19.1864
 21
2.37574
 31
0.0
  0
LINE
  8
0
 62
     0
 10
19.1864
 20
2.37574
 30
0.0
 11
19.05
 21
2.29995
 31
0.0
  0
LINE
  8
0
 62
     0
 10
19.05
 20
2.29995
 30
0.0
 11
18.9191
 21
2.21175
 31
0.0
  0
LINE
  8
0
 62
     0
 10
18.9191
 20
2.21175
 30
0.0
 11
18.795
 21
2.11253
 31
0.0
  0
LINE
  8
0
 62
     0
 10
18.795
 20
2.11253
 30
0.0
 11
18.6793
 21
2.0078
 31
0.0
  0
LINE
  8
0
 62
     0
 10
18.6793
 20
2.0078
 30
0.0
 11
18.5732
 21
1.89067
 31
0.0
  0
LINE
  8
0
 62
     0
 10
18.5732
 20
1.89067
 30
0.0
 11
18.4754
 21
1.76802
 31
0.0
  0
LINE
  8
0
 62
     0
 10
18.4754
 20
1.76802
 30
0.0
 11
18.3885
 21
1.63849
 31
0.0
  0
LINE
  8
0
 62
     0
 10
18.3885
 20
1.63849
 30
0.0
 11
18.3114
 21
1.50068
 31
0.0
  0
LINE
  8
0
 62
     0
 10
18.3114
 20
1.50068
 30
0.0
 11
18.2466
 21
1.36012
 31
0.0
  0
LINE
  8
0
 62
     0
 10
18.2466
 20
1.36012
 30
0.0
 11
18.1915
 21
1.21267
 31
0.0
  0
LINE
  8
0
 62
     0
 10
18.1915
 20
1.21267
 30
0.0
 11
18.1501
 21
1.05971
 31
0.0
  0
LINE
  8
0
 62
     0
 10
18.1501
 20
1.05971
 30
0.0
 11
18.1185
 21
0.905372
 31
0.0
  0
LINE
  8
0
 62
     0
 10
18.1185
 20
0.905372
 30
0.0
 11
18.1005
 21
0.749653
 31
0.0
  0
LINE
  8
0
 62
     0
 10
18.1005
 20
0.749653
 30
0.0
 11
18.0937
 21
0.592557
 31
0.0
  0
LINE
  8
0
 62
     0
 10
18.0937
 20
0.592557
 30
0.0
 11
18.1005
 21
0.436838
 31
0.0
  0
LINE
  8
0
 62
     0
 10
18.1005
 20
0.436838
 30
0.0
 11
18.1185
 21
0.279742
 31
0.0
  0
LINE
  8
0
 62
     0
 10
18.1185
 20
0.279742
 30
0.0
 11
18.1501
 21
0.12678
 31
0.0
  0
LINE
  8
0
 62
     0
 10
18.1501
 20
0.12678
 30
0.0
 11
18.1584
 21
0.0950846
 31
0.0
  0
LINE
  8
0
 62
     0
 10
18.1584
 20
0.0950846
 30
0.0
 11
16.5943
 21
0.0950846
 31
0.0
  0
LINE
  8
0
 62
     0
 10
16.5943
 20
0.0950846
 30
0.0
 11
14.0946
 21
4.09416
 31
0.0
  0
LINE
  8
0
 62
     0
 10
14.0946
 20
4.09416
 30
0.0
 11
4.09416
 21
4.09416
 31
0.0
  0
LINE
  8
0
 62
     0
 10
4.09416
 20
4.09416
 30
0.0
 11
3.78135
 21
4.10517
 31
0.0
  0
LINE
  8
0
 62
     0
 10
3.78135
 20
4.10517
 30
0.0
 11
3.46852
 21
4.14239
 31
0.0
  0
LINE
  8
0
 62
     0
 10
3.46852
 20
4.14239
 30
0.0
 11
3.16122
 21
4.20303
 31
0.0
  0
LINE
  8
0
 62
     0
 10
3.16122
 20
4.20303
 30
0.0
 11
2.85805
 21
4.28847
 31
0.0
  0
LINE
  8
0
 62
     0
 10
2.85805
 20
4.28847
 30
0.0
 11
2.56315
 21
4.3973
 31
0.0
  0
LINE
  8
0
 62
     0
 10
2.56315
 20
4.3973
 30
0.0
 11
2.27928
 21
4.52822
 31
0.0
  0
LINE
  8
0
 62
     0
 10
2.27928
 20
4.52822
 30
0.0
 11
2.00504
 21
4.68256
 31
0.0
  0
LINE
  8
0
 62
     0
 10
2.00504
 20
4.68256
 30
0.0
 11
1.74322
 21
4.85757
 31
0.0
  0
LINE
  8
0
 62
     0
 10
1.74322
 20
4.85757
 30
0.0
 11
1.49655
 21
5.05051
 31
0.0
  0
LINE
  8
0
 62
     0
 10
1.49655
 20
5.05051
 30
0.0
 11
1.26642
 21
5.26411
 31
0.0
  0
LINE
  8
0
 62
     0
 10
1.26642
 20
5.26411
 30
0.0
 11
1.05282
 21
5.49561
 31
0.0
  0
LINE
  8
0
 62
     0
 10
1.05282
 20
5.49561
 30
0.0
 11
0.857141
 21
5.74089
 31
0.0
  0
LINE
  8
0
 62
     0
 10
0.857141
 20
5.74089
 30
0.0
 11
0.683507
 21
6.0041
 31
0.0
  0
LINE
  8
0
 62
     0
 10
0.683507
 20
6.0041
 30
0.0
 11
0.529167
 21
6.27697
 31
0.0
  0
LINE
  8
0
 62
     0
 10
0.529167
 20
6.27697
 30
0.0
 11
0.398254
 21
6.56361
 31
0.0
  0
LINE
  8
0
 62
     0
 10
0.398254
 20
6.56361
 30
0.0
 11
0.289388
 21
6.85712
 31
0.0
  0
LINE
  8
0
 62
     0
 10
0.289388
 20
6.85712
 30
0.0
 11
0.205328
 21
7.15892
 31
0.0
  0
LINE
  8
0
 62
     0
 10
0.205328
 20
7.15892
 30
0.0
 11
0.143316
 21
7.4676
 31
0.0
  0
LINE
  8
0
 62
     0
 10
0.143316
 20
7.4676
 30
0.0
 11
0.106109
 21
7.77903
 31
0.0
  0
LINE
  8
0
 62
     0
 10
0.106109
 20
7.77903
 30
0.0
 11
0.0937066
 21
8.09322
 31
0.0
  0
LINE
  8
0
 62
     0
 10
0.0937066
 20
8.09322
 30
0.0
 11
0.0950846
 21
95.3452
 31
0.0
  0
LINE
  8
0
 62
     0
 10
0.0950846
 20
95.3452
 30
0.0
 11
0.106109
 21
95.6564
 31
0.0
  0
LINE
  8
0
 62
     0
 10
0.106109
 20
95.6564
 30
0.0
 11
0.143316
 21
95.9693
 31
0.0
  0
LINE
  8
0
 62
     0
 10
0.143316
 20
95.9693
 30
0.0
 11
0.205328
 21
96.2766
 31
0.0
  0
LINE
  8
0
 62
     0
 10
0.205328
 20
96.2766
 30
0.0
 11
0.289388
 21
96.58
 31
0.0
  0
LINE
  8
0
 62
     0
 10
0.289388
 20
96.58
 30
0.0
 11
0.398254
 21
96.8745
 31
0.0
  0
LINE
  8
0
 62
     0
 10
0.398254
 20
96.8745
 30
0.0
 11
0.529167
 21
97.1585
 31
0.0
  0
LINE
  8
0
 62
     0
 10
0.529167
 20
97.1585
 30
0.0
 11
0.683507
 21
97.433
 31
0.0
  0
LINE
  8
0
 62
     0
 10
0.683507
 20
97.433
 30
0.0
 11
0.857141
 21
97.6962
 31
0.0
  0
LINE
  8
0
 62
     0
 10
0.857141
 20
97.6962
 30
0.0
 11
1.05282
 21
97.9413
 31
0.0
  0
LINE
  8
0
 62
     0
 10
1.05282
 20
97.9413
 30
0.0
 11
1.26642
 21
98.1728
 31
0.0
  0
LINE
  8
0
 62
     0
 10
1.26642
 20
98.1728
 30
0.0
 11
1.49655
 21
98.3851
 31
0.0
  0
LINE
  8
0
 62
     0
 10
1.49655
 20
98.3851
 30
0.0
 11
1.74322
 21
98.5806
 31
0.0
  0
LINE
  8
0
 62
     0
 10
1.74322
 20
98.5806
 30
0.0
 11
2.00504
 21
98.7559
 31
0.0
  0
LINE
  8
0
 62
     0
 10
2.00504
 20
98.7559
 30
0.0
 11
2.27928
 21
98.9087
 31
0.0
  0
LINE
  8
0
 62
     0
 10
2.27928
 20
98.9087
 30
0.0
 11
2.56315
 21
99.0395
 31
0.0
  0
LINE
  8
0
 62
     0
 10
2.56315
 20
99.0395
 30
0.0
 11
2.85805
 21
99.1485
 31
0.0
  0
LINE
  8
0
 62
     0
 10
2.85805
 20
99.1485
 30
0.0
 11
3.16122
 21
99.2325
 31
0.0
  0
LINE
  8
0
 62
     0
 10
3.16122
 20
99.2325
 30
0.0
 11
3.46852
 21
99.2946
 31
0.0
  0
LINE
  8
0
 62
     0
 10
3.46852
 20
99.2946
 30
0.0
 11
3.78135
 21
99.3316
 31
0.0
  0
LINE
  8
0
 62
     0
 10
3.78135
 20
99.3316
 30
0.0
 11
4.09416
 21
99.344
 31
0.0
  0
LINE
  8
0
 62
     0
 10
4.09416
 20
99.344
 30
0.0
 11
14.0959
 21
99.344
 31
0.0
  0
LINE
  8
0
 62
     0
 10
14.0959
 20
99.344
 30
0.0
 11
16.5943
 21
103.343
 31
0.0
  0
LINE
  8
0
 62
     0
 10
16.5943
 20
103.343
 30
0.0
 11
18.1584
 21
103.343
 31
0.0
  0
LINE
  8
0
 62
     0
 10
18.1584
 20
103.343
 30
0.0
 11
18.1501
 21
103.312
 31
0.0
  0
LINE
  8
0
 62
     0
 10
18.1501
 20
103.312
 30
0.0
 11
18.1185
 21
103.156
 31
0.0
  0
LINE
  8
0
 62
     0
 10
18.1185
 20
103.156
 30
0.0
 11
18.1005
 21
103
 31
0.0
  0
LINE
  8
0
 62
     0
 10
18.1005
 20
103
 30
0.0
 11
18.0937
 21
102.843
 31
0.0
  0
LINE
  8
0
 62
     0
 10
18.0937
 20
102.843
 30
0.0
 11
18.1005
 21
102.687
 31
0.0
  0
LINE
  8
0
 62
     0
 10
18.1005
 20
102.687
 30
0.0
 11
18.1185
 21
102.533
 31
0.0
  0
LINE
  8
0
 62
     0
 10
18.1185
 20
102.533
 30
0.0
 11
18.1501
 21
102.377
 31
0.0
  0
LINE
  8
0
 62
     0
 10
18.1501
 20
102.377
 30
0.0
 11
18.1915
 21
102.225
 31
0.0
  0
LINE
  8
0
 62
     0
 10
18.1915
 20
102.225
 30
0.0
 11
18.2466
 21
102.078
 31
0.0
  0
LINE
  8
0
 62
     0
 10
18.2466
 20
102.078
 30
0.0
 11
18.3114
 21
101.936
 31
0.0
  0
LINE
  8
0
 62
     0
 10
18.3114
 20
101.936
 30
0.0
 11
18.3885
 21
101.8
 31
0.0
  0
LINE
  8
0
 62
     0
 10
18.3885
 20
101.8
 30
0.0
 11
18.4754
 21
101.667
 31
0.0
  0
LINE
  8
0
 62
     0
 10
18.4754
 20
101.667
 30
0.0
 11
18.5732
 21
101.545
 31
0.0
  0
LINE
  8
0
 62
     0
 10
18.5732
 20
101.545
 30
0.0
 11
18.6793
 21
101.431
 31
0.0
  0
LINE
  8
0
 62
     0
 10
18.6793
 20
101.431
 30
0.0
 11
18.795
 21
101.323
 31
0.0
  0
LINE
  8
0
 62
     0
 10
18.795
 20
101.323
 30
0.0
 11
18.9191
 21
101.225
 31
0.0
  0
LINE
  8
0
 62
     0
 10
18.9191
 20
101.225
 30
0.0
 11
19.05
 21
101.138
 31
0.0
  0
LINE
  8
0
 62
     0
 10
19.05
 20
101.138
 30
0.0
 11
19.1864
 21
101.063
 31
0.0
  0
LINE
  8
0
 62
     0
 10
19.1864
 20
101.063
 30
0.0
 11
19.3284
 21
100.996
 31
0.0
  0
LINE
  8
0
 62
     0
 10
19.3284
 20
100.996
 30
0.0
 11
19.4758
 21
100.941
 31
0.0
  0
LINE
  8
0
 62
     0
 10
19.4758
 20
100.941
 30
0.0
 11
19.6274
 21
100.899
 31
0.0
  0
LINE
  8
0
 62
     0
 10
19.6274
 20
100.899
 30
0.0
 11
19.7817
 21
100.868
 31
0.0
  0
LINE
  8
0
 62
     0
 10
19.7817
 20
100.868
 30
0.0
 11
19.9374
 21
100.85
 31
0.0
  0
LINE
  8
0
 62
     0
 10
19.9374
 20
100.85
 30
0.0
 11
20.0945
 21
100.843
 31
0.0
  0
LINE
  8
0
 62
     0
 10
20.0945
 20
100.843
 30
0.0
 11
20.2503
 21
100.85
 31
0.0
  0
LINE
  8
0
 62
     0
 10
20.2503
 20
100.85
 30
0.0
 11
20.4074
 21
100.868
 31
0.0
  0
LINE
  8
0
 62
     0
 10
20.4074
 20
100.868
 30
0.0
 11
20.5603
 21
100.899
 31
0.0
  0
LINE
  8
0
 62
     0
 10
20.5603
 20
100.899
 30
0.0
 11
20.7133
 21
100.941
 31
0.0
  0
LINE
  8
0
 62
     0
 10
20.7133
 20
100.941
 30
0.0
 11
20.8594
 21
100.996
 31
0.0
  0
LINE
  8
0
 62
     0
 10
20.8594
 20
100.996
 30
0.0
 11
21.0013
 21
101.063
 31
0.0
  0
LINE
  8
0
 62
     0
 10
21.0013
 20
101.063
 30
0.0
 11
21.1391
 21
101.138
 31
0.0
  0
LINE
  8
0
 62
     0
 10
21.1391
 20
101.138
 30
0.0
 11
21.27
 21
101.225
 31
0.0
  0
LINE
  8
0
 62
     0
 10
21.27
 20
101.225
 30
0.0
 11
21.3927
 21
101.323
 31
0.0
  0
LINE
  8
0
 62
     0
 10
21.3927
 20
101.323
 30
0.0
 11
21.5084
 21
101.431
 31
0.0
  0
LINE
  8
0
 62
     0
 10
21.5084
 20
101.431
 30
0.0
 11
21.6145
 21
101.545
 31
0.0
  0
LINE
  8
0
 62
     0
 10
21.6145
 20
101.545
 30
0.0
 11
21.7124
 21
101.667
 31
0.0
  0
LINE
  8
0
 62
     0
 10
21.7124
 20
101.667
 30
0.0
 11
21.7992
 21
101.8
 31
0.0
  0
LINE
  8
0
 62
     0
 10
21.7992
 20
101.8
 30
0.0
 11
21.8763
 21
101.936
 31
0.0
  0
LINE
  8
0
 62
     0
 10
21.8763
 20
101.936
 30
0.0
 11
21.9411
 21
102.078
 31
0.0
  0
LINE
  8
0
 62
     0
 10
21.9411
 20
102.078
 30
0.0
 11
21.9963
 21
102.225
 31
0.0
  0
LINE
  8
0
 62
     0
 10
21.9963
 20
102.225
 30
0.0
 11
22.039
 21
102.377
 31
0.0
  0
LINE
  8
0
 62
     0
 10
22.039
 20
102.377
 30
0.0
 11
22.0693
 21
102.533
 31
0.0
  0
LINE
  8
0
 62
     0
 10
22.0693
 20
102.533
 30
0.0
 11
22.0872
 21
102.687
 31
0.0
  0
LINE
  8
0
 62
     0
 10
22.0872
 20
102.687
 30
0.0
 11
22.0941
 21
102.843
 31
0.0
  0
LINE
  8
0
 62
     0
 10
22.0941
 20
102.843
 30
0.0
 11
22.0872
 21
103
 31
0.0
  0
LINE
  8
0
 62
     0
 10
22.0872
 20
103
 30
0.0
 11
22.0693
 21
103.156
 31
0.0
  0
LINE
  8
0
 62
     0
 10
22.0693
 20
103.156
 30
0.0
 11
22.039
 21
103.312
 31
0.0
  0
LINE
  8
0
 62
     0
 10
22.039
 20
103.312
 30
0.0
 11
22.0293
 21
103.343
 31
0.0
  0
LINE
  8
0
 62
     0
 10
22.0293
 20
103.343
 30
0.0
 11
23.5948
 21
103.343
 31
0.0
  0
LINE
  8
0
 62
     0
 10
23.5948
 20
103.343
 30
0.0
 11
26.0931
 21
99.344
 31
0.0
  0
LINE
  8
0
 62
     0
 10
131.207
 20
20.6182
 30
0.0
 11
131.207
 21
19.6178
 31
0.0
  0
LINE
  8
0
 62
     0
 10
131.207
 20
19.6178
 30
0.0
 11
130.406
 21
19.6178
 31
0.0
  0
LINE
  8
0
 62
     0
 10
130.406
 20
19.6178
 30
0.0
 11
130.406
 21
16.5185
 31
0.0
  0
LINE
  8
0
 62
     0
 10
130.406
 20
16.5185
 30
0.0
 11
131.207
 21
16.5185
 31
0.0
  0
LINE
  8
0
 62
     0
 10
131.207
 20
16.5185
 30
0.0
 11
131.207
 21
15.9177
 31
0.0
  0
LINE
  8
0
 62
     0
 10
131.207
 20
15.9177
 30
0.0
 11
84.4324
 21
15.9177
 31
0.0
  0
LINE
  8
0
 62
     0
 10
84.4324
 20
15.9177
 30
0.0
 11
84.4324
 21
19.1478
 31
0.0
  0
LINE
  8
0
 62
     0
 10
84.4324
 20
19.1478
 30
0.0
 11
82.707
 21
19.1478
 31
0.0
  0
LINE
  8
0
 62
     0
 10
82.707
 20
19.1478
 30
0.0
 11
82.707
 21
20.0711
 31
0.0
  0
LINE
  8
0
 62
     0
 10
82.707
 20
20.0711
 30
0.0
 11
79.4067
 21
20.0711
 31
0.0
  0
LINE
  8
0
 62
     0
 10
79.4067
 20
20.0711
 30
0.0
 11
79.4067
 21
19.1478
 31
0.0
  0
LINE
  8
0
 62
     0
 10
79.4067
 20
19.1478
 30
0.0
 11
77.6813
 21
19.1478
 31
0.0
  0
LINE
  8
0
 62
     0
 10
77.6813
 20
19.1478
 30
0.0
 11
77.6813
 21
15.9177
 31
0.0
  0
LINE
  8
0
 62
     0
 10
77.6813
 20
15.9177
 30
0.0
 11
76.8572
 21
15.9177
 31
0.0
  0
LINE
  8
0
 62
     0
 10
76.8572
 20
15.9177
 30
0.0
 11
76.8572
 21
13.1189
 31
0.0
  0
LINE
  8
0
 62
     0
 10
76.8572
 20
13.1189
 30
0.0
 11
77.6813
 21
13.1189
 31
0.0
  0
LINE
  8
0
 62
     0
 10
77.6813
 20
13.1189
 30
0.0
 11
77.6813
 21
6.84886
 31
0.0
  0
LINE
  8
0
 62
     0
 10
77.6813
 20
6.84886
 30
0.0
 11
79.4067
 21
6.84886
 31
0.0
  0
LINE
  8
0
 62
     0
 10
79.4067
 20
6.84886
 30
0.0
 11
79.4067
 21
5.86768
 31
0.0
  0
LINE
  8
0
 62
     0
 10
79.4067
 20
5.86768
 30
0.0
 11
82.707
 21
5.86768
 31
0.0
  0
LINE
  8
0
 62
     0
 10
82.707
 20
5.86768
 30
0.0
 11
82.707
 21
6.84886
 31
0.0
  0
LINE
  8
0
 62
     0
 10
82.707
 20
6.84886
 30
0.0
 11
84.4324
 21
6.84886
 31
0.0
  0
LINE
  8
0
 62
     0
 10
84.4324
 20
6.84886
 30
0.0
 11
84.4324
 21
11.3192
 31
0.0
  0
LINE
  8
0
 62
     0
 10
84.4324
 20
11.3192
 30
0.0
 11
131.207
 21
11.3192
 31
0.0
  0
LINE
  8
0
 62
     0
 10
131.207
 20
11.3192
 30
0.0
 11
131.207
 21
10.7184
 31
0.0
  0
LINE
  8
0
 62
     0
 10
131.207
 20
10.7184
 30
0.0
 11
130.406
 21
10.7184
 31
0.0
  0
LINE
  8
0
 62
     0
 10
130.406
 20
10.7184
 30
0.0
 11
130.406
 21
7.61781
 31
0.0
  0
LINE
  8
0
 62
     0
 10
130.406
 20
7.61781
 30
0.0
 11
131.207
 21
7.61781
 31
0.0
  0
LINE
  8
0
 62
     0
 10
131.207
 20
7.61781
 30
0.0
 11
131.207
 21
6.61871
 31
0.0
  0
LINE
  8
0
 62
     0
 10
131.207
 20
6.61871
 30
0.0
 11
145.207
 21
6.61871
 31
0.0
  0
LINE
  8
0
 62
     0
 10
145.207
 20
6.61871
 30
0.0
 11
145.207
 21
7.61781
 31
0.0
  0
LINE
  8
0
 62
     0
 10
145.207
 20
7.61781
 30
0.0
 11
146.007
 21
7.61781
 31
0.0
  0
LINE
  8
0
 62
     0
 10
146.007
 20
7.61781
 30
0.0
 11
146.007
 21
10.7184
 31
0.0
  0
LINE
  8
0
 62
     0
 10
146.007
 20
10.7184
 30
0.0
 11
145.207
 21
10.7184
 31
0.0
  0
LINE
  8
0
 62
     0
 10
145.207
 20
10.7184
 30
0.0
 11
145.207
 21
11.3192
 31
0.0
  0
LINE
  8
0
 62
     0
 10
145.207
 20
11.3192
 30
0.0
 11
191.981
 21
11.3192
 31
0.0
  0
LINE
  8
0
 62
     0
 10
191.981
 20
11.3192
 30
0.0
 11
191.981
 21
6.84886
 31
0.0
  0
LINE
  8
0
 62
     0
 10
191.981
 20
6.84886
 30
0.0
 11
193.707
 21
6.84886
 31
0.0
  0
LINE
  8
0
 62
     0
 10
193.707
 20
6.84886
 30
0.0
 11
193.707
 21
5.86768
 31
0.0
  0
LINE
  8
0
 62
     0
 10
193.707
 20
5.86768
 30
0.0
 11
197.007
 21
5.86768
 31
0.0
  0
LINE
  8
0
 62
     0
 10
197.007
 20
5.86768
 30
0.0
 11
197.007
 21
6.84886
 31
0.0
  0
LINE
  8
0
 62
     0
 10
197.007
 20
6.84886
 30
0.0
 11
198.732
 21
6.84886
 31
0.0
  0
LINE
  8
0
 62
     0
 10
198.732
 20
6.84886
 30
0.0
 11
198.732
 21
13.1189
 31
0.0
  0
LINE
  8
0
 62
     0
 10
198.732
 20
13.1189
 30
0.0
 11
199.557
 21
13.1189
 31
0.0
  0
LINE
  8
0
 62
     0
 10
199.557
 20
13.1189
 30
0.0
 11
199.557
 21
15.9177
 31
0.0
  0
LINE
  8
0
 62
     0
 10
199.557
 20
15.9177
 30
0.0
 11
198.732
 21
15.9177
 31
0.0
  0
LINE
  8
0
 62
     0
 10
198.732
 20
15.9177
 30
0.0
 11
198.732
 21
19.1478
 31
0.0
  0
LINE
  8
0
 62
     0
 10
198.732
 20
19.1478
 30
0.0
 11
197.007
 21
19.1478
 31
0.0
  0
LINE
  8
0
 62
     0
 10
197.007
 20
19.1478
 30
0.0
 11
197.007
 21
20.0711
 31
0.0
  0
LINE
  8
0
 62
     0
 10
197.007
 20
20.0711
 30
0.0
 11
193.707
 21
20.0711
 31
0.0
  0
LINE
  8
0
 62
     0
 10
193.707
 20
20.0711
 30
0.0
 11
193.707
 21
19.1478
 31
0.0
  0
LINE
  8
0
 62
     0
 10
193.707
 20
19.1478
 30
0.0
 11
191.981
 21
19.1478
 31
0.0
  0
LINE
  8
0
 62
     0
 10
191.981
 20
19.1478
 30
0.0
 11
191.981
 21
15.9177
 31
0.0
  0
LINE
  8
0
 62
     0
 10
191.981
 20
15.9177
 30
0.0
 11
145.207
 21
15.9177
 31
0.0
  0
LINE
  8
0
 62
     0
 10
145.207
 20
15.9177
 30
0.0
 11
145.207
 21
16.5185
 31
0.0
  0
LINE
  8
0
 62
     0
 10
145.207
 20
16.5185
 30
0.0
 11
146.007
 21
16.5185
 31
0.0
  0
LINE
  8
0
 62
     0
 10
146.007
 20
16.5185
 30
0.0
 11
146.007
 21
19.6178
 31
0.0
  0
LINE
  8
0
 62
     0
 10
146.007
 20
19.6178
 30
0.0
 11
145.207
 21
19.6178
 31
0.0
  0
LINE
  8
0
 62
     0
 10
145.207
 20
19.6178
 30
0.0
 11
145.207
 21
20.6182
 31
0.0
  0
LINE
  8
0
 62
     0
 10
145.207
 20
20.6182
 30
0.0
 11
131.207
 21
20.6182
 31
0.0
  0
LINE
  8
0
 62
     0
 10
26.4322
 20
20.6182
 30
0.0
 11
26.4322
 21
19.6178
 31
0.0
  0
LINE
  8
0
 62
     0
 10
26.4322
 20
19.6178
 30
0.0
 11
25.6315
 21
19.6178
 31
0.0
  0
LINE
  8
0
 62
     0
 10
25.6315
 20
19.6178
 30
0.0
 11
25.6315
 21
16.5185
 31
0.0
  0
LINE
  8
0
 62
     0
 10
25.6315
 20
16.5185
 30
0.0
 11
26.4322
 21
16.5185
 31
0.0
  0
LINE
  8
0
 62
     0
 10
26.4322
 20
16.5185
 30
0.0
 11
26.4322
 21
10.7184
 31
0.0
  0
LINE
  8
0
 62
     0
 10
26.4322
 20
10.7184
 30
0.0
 11
25.6315
 21
10.7184
 31
0.0
  0
LINE
  8
0
 62
     0
 10
25.6315
 20
10.7184
 30
0.0
 11
25.6315
 21
7.61781
 31
0.0
  0
LINE
  8
0
 62
     0
 10
25.6315
 20
7.61781
 30
0.0
 11
26.4322
 21
7.61781
 31
0.0
  0
LINE
  8
0
 62
     0
 10
26.4322
 20
7.61781
 30
0.0
 11
26.4322
 21
6.61871
 31
0.0
  0
LINE
  8
0
 62
     0
 10
26.4322
 20
6.61871
 30
0.0
 11
40.4315
 21
6.61871
 31
0.0
  0
LINE
  8
0
 62
     0
 10
40.4315
 20
6.61871
 30
0.0
 11
40.4315
 21
7.61781
 31
0.0
  0
LINE
  8
0
 62
     0
 10
40.4315
 20
7.61781
 30
0.0
 11
41.2323
 21
7.61781
 31
0.0
  0
LINE
  8
0
 62
     0
 10
41.2323
 20
7.61781
 30
0.0
 11
41.2323
 21
10.7184
 31
0.0
  0
LINE
  8
0
 62
     0
 10
41.2323
 20
10.7184
 30
0.0
 11
40.4315
 21
10.7184
 31
0.0
  0
LINE
  8
0
 62
     0
 10
40.4315
 20
10.7184
 30
0.0
 11
40.4315
 21
16.5185
 31
0.0
  0
LINE
  8
0
 62
     0
 10
40.4315
 20
16.5185
 30
0.0
 11
41.2323
 21
16.5185
 31
0.0
  0
LINE
  8
0
 62
     0
 10
41.2323
 20
16.5185
 30
0.0
 11
41.2323
 21
19.6178
 31
0.0
  0
LINE
  8
0
 62
     0
 10
41.2323
 20
19.6178
 30
0.0
 11
40.4315
 21
19.6178
 31
0.0
  0
LINE
  8
0
 62
     0
 10
40.4315
 20
19.6178
 30
0.0
 11
40.4315
 21
20.6182
 31
0.0
  0
LINE
  8
0
 62
     0
 10
40.4315
 20
20.6182
 30
0.0
 11
26.4322
 21
20.6182
 31
0.0
  0
LINE
  8
0
 62
     0
 10
50.2447
 20
20.6182
 30
0.0
 11
50.2447
 21
19.6178
 31
0.0
  0
LINE
  8
0
 62
     0
 10
50.2447
 20
19.6178
 30
0.0
 11
49.4453
 21
19.6178
 31
0.0
  0
LINE
  8
0
 62
     0
 10
49.4453
 20
19.6178
 30
0.0
 11
49.4453
 21
16.5185
 31
0.0
  0
LINE
  8
0
 62
     0
 10
49.4453
 20
16.5185
 30
0.0
 11
50.2447
 21
16.5185
 31
0.0
  0
LINE
  8
0
 62
     0
 10
50.2447
 20
16.5185
 30
0.0
 11
50.2447
 21
10.7184
 31
0.0
  0
LINE
  8
0
 62
     0
 10
50.2447
 20
10.7184
 30
0.0
 11
49.4453
 21
10.7184
 31
0.0
  0
LINE
  8
0
 62
     0
 10
49.4453
 20
10.7184
 30
0.0
 11
49.4453
 21
7.61781
 31
0.0
  0
LINE
  8
0
 62
     0
 10
49.4453
 20
7.61781
 30
0.0
 11
50.2447
 21
7.61781
 31
0.0
  0
LINE
  8
0
 62
     0
 10
50.2447
 20
7.61781
 30
0.0
 11
50.2447
 21
6.61871
 31
0.0
  0
LINE
  8
0
 62
     0
 10
50.2447
 20
6.61871
 30
0.0
 11
64.244
 21
6.61871
 31
0.0
  0
LINE
  8
0
 62
     0
 10
64.244
 20
6.61871
 30
0.0
 11
64.244
 21
7.61781
 31
0.0
  0
LINE
  8
0
 62
     0
 10
64.244
 20
7.61781
 30
0.0
 11
65.0448
 21
7.61781
 31
0.0
  0
LINE
  8
0
 62
     0
 10
65.0448
 20
7.61781
 30
0.0
 11
65.0448
 21
10.7184
 31
0.0
  0
LINE
  8
0
 62
     0
 10
65.0448
 20
10.7184
 30
0.0
 11
64.244
 21
10.7184
 31
0.0
  0
LINE
  8
0
 62
     0
 10
64.244
 20
10.7184
 30
0.0
 11
64.244
 21
16.5185
 31
0.0
  0
LINE
  8
0
 62
     0
 10
64.244
 20
16.5185
 30
0.0
 11
65.0448
 21
16.5185
 31
0.0
  0
LINE
  8
0
 62
     0
 10
65.0448
 20
16.5185
 30
0.0
 11
65.0448
 21
19.6178
 31
0.0
  0
LINE
  8
0
 62
     0
 10
65.0448
 20
19.6178
 30
0.0
 11
64.244
 21
19.6178
 31
0.0
  0
LINE
  8
0
 62
     0
 10
64.244
 20
19.6178
 30
0.0
 11
64.244
 21
20.6182
 31
0.0
  0
LINE
  8
0
 62
     0
 10
64.244
 20
20.6182
 30
0.0
 11
50.2447
 21
20.6182
 31
0.0
  0
LINE
  8
0
 62
     0
 10
212.17
 20
20.6182
 30
0.0
 11
212.17
 21
19.6178
 31
0.0
  0
LINE
  8
0
 62
     0
 10
212.17
 20
19.6178
 30
0.0
 11
211.37
 21
19.6178
 31
0.0
  0
LINE
  8
0
 62
     0
 10
211.37
 20
19.6178
 30
0.0
 11
211.37
 21
16.5185
 31
0.0
  0
LINE
  8
0
 62
     0
 10
211.37
 20
16.5185
 30
0.0
 11
212.17
 21
16.5185
 31
0.0
  0
LINE
  8
0
 62
     0
 10
212.17
 20
16.5185
 30
0.0
 11
212.17
 21
10.7184
 31
0.0
  0
LINE
  8
0
 62
     0
 10
212.17
 20
10.7184
 30
0.0
 11
211.37
 21
10.7184
 31
0.0
  0
LINE
  8
0
 62
     0
 10
211.37
 20
10.7184
 30
0.0
 11
211.37
 21
7.61781
 31
0.0
  0
LINE
  8
0
 62
     0
 10
211.37
 20
7.61781
 30
0.0
 11
212.17
 21
7.61781
 31
0.0
  0
LINE
  8
0
 62
     0
 10
212.17
 20
7.61781
 30
0.0
 11
212.17
 21
6.61871
 31
0.0
  0
LINE
  8
0
 62
     0
 10
212.17
 20
6.61871
 30
0.0
 11
226.169
 21
6.61871
 31
0.0
  0
LINE
  8
0
 62
     0
 10
226.169
 20
6.61871
 30
0.0
 11
226.169
 21
7.61781
 31
0.0
  0
LINE
  8
0
 62
     0
 10
226.169
 20
7.61781
 30
0.0
 11
226.97
 21
7.61781
 31
0.0
  0
LINE
  8
0
 62
     0
 10
226.97
 20
7.61781
 30
0.0
 11
226.97
 21
10.7184
 31
0.0
  0
LINE
  8
0
 62
     0
 10
226.97
 20
10.7184
 30
0.0
 11
226.169
 21
10.7184
 31
0.0
  0
LINE
  8
0
 62
     0
 10
226.169
 20
10.7184
 30
0.0
 11
226.169
 21
16.5185
 31
0.0
  0
LINE
  8
0
 62
     0
 10
226.169
 20
16.5185
 30
0.0
 11
226.97
 21
16.5185
 31
0.0
  0
LINE
  8
0
 62
     0
 10
226.97
 20
16.5185
 30
0.0
 11
226.97
 21
19.6178
 31
0.0
  0
LINE
  8
0
 62
     0
 10
226.97
 20
19.6178
 30
0.0
 11
226.169
 21
19.6178
 31
0.0
  0
LINE
  8
0
 62
     0
 10
226.169
 20
19.6178
 30
0.0
 11
226.169
 21
20.6182
 31
0.0
  0
LINE
  8
0
 62
     0
 10
226.169
 20
20.6182
 30
0.0
 11
212.17
 21
20.6182
 31
0.0
  0
LINE
  8
0
 62
     0
 10
235.982
 20
20.6182
 30
0.0
 11
235.982
 21
19.6178
 31
0.0
  0
LINE
  8
0
 62
     0
 10
235.982
 20
19.6178
 30
0.0
 11
235.181
 21
19.6178
 31
0.0
  0
LINE
  8
0
 62
     0
 10
235.181
 20
19.6178
 30
0.0
 11
235.181
 21
16.5185
 31
0.0
  0
LINE
  8
0
 62
     0
 10
235.181
 20
16.5185
 30
0.0
 11
235.982
 21
16.5185
 31
0.0
  0
LINE
  8
0
 62
     0
 10
235.982
 20
16.5185
 30
0.0
 11
235.982
 21
10.7184
 31
0.0
  0
LINE
  8
0
 62
     0
 10
235.982
 20
10.7184
 30
0.0
 11
235.181
 21
10.7184
 31
0.0
  0
LINE
  8
0
 62
     0
 10
235.181
 20
10.7184
 30
0.0
 11
235.181
 21
7.61781
 31
0.0
  0
LINE
  8
0
 62
     0
 10
235.181
 20
7.61781
 30
0.0
 11
235.982
 21
7.61781
 31
0.0
  0
LINE
  8
0
 62
     0
 10
235.982
 20
7.61781
 30
0.0
 11
235.982
 21
6.61871
 31
0.0
  0
LINE
  8
0
 62
     0
 10
235.982
 20
6.61871
 30
0.0
 11
249.982
 21
6.61871
 31
0.0
  0
LINE
  8
0
 62
     0
 10
249.982
 20
6.61871
 30
0.0
 11
249.982
 21
7.61781
 31
0.0
  0
LINE
  8
0
 62
     0
 10
249.982
 20
7.61781
 30
0.0
 11
250.782
 21
7.61781
 31
0.0
  0
LINE
  8
0
 62
     0
 10
250.782
 20
7.61781
 30
0.0
 11
250.782
 21
10.7184
 31
0.0
  0
LINE
  8
0
 62
     0
 10
250.782
 20
10.7184
 30
0.0
 11
249.982
 21
10.7184
 31
0.0
  0
LINE
  8
0
 62
     0
 10
249.982
 20
10.7184
 30
0.0
 11
249.982
 21
16.5185
 31
0.0
  0
LINE
  8
0
 62
     0
 10
249.982
 20
16.5185
 30
0.0
 11
250.782
 21
16.5185
 31
0.0
  0
LINE
  8
0
 62
     0
 10
250.782
 20
16.5185
 30
0.0
 11
250.782
 21
19.6178
 31
0.0
  0
LINE
  8
0
 62
     0
 10
250.782
 20
19.6178
 30
0.0
 11
249.982
 21
19.6178
 31
0.0
  0
LINE
  8
0
 62
     0
 10
249.982
 20
19.6178
 30
0.0
 11
249.982
 21
20.6182
 31
0.0
  0
LINE
  8
0
 62
     0
 10
249.982
 20
20.6182
 30
0.0
 11
235.982
 21
20.6182
 31
0.0
  0
LINE
  8
0
 62
     0
 10
14.5259
 20
39.6681
 30
0.0
 11
14.5259
 21
38.6676
 31
0.0
  0
LINE
  8
0
 62
     0
 10
14.5259
 20
38.6676
 30
0.0
 11
13.7253
 21
38.6676
 31
0.0
  0
LINE
  8
0
 62
     0
 10
13.7253
 20
38.6676
 30
0.0
 11
13.7253
 21
35.5685
 31
0.0
  0
LINE
  8
0
 62
     0
 10
13.7253
 20
35.5685
 30
0.0
 11
14.5259
 21
35.5685
 31
0.0
  0
LINE
  8
0
 62
     0
 10
14.5259
 20
35.5685
 30
0.0
 11
14.5259
 21
34.9677
 31
0.0
  0
LINE
  8
0
 62
     0
 10
14.5259
 20
34.9677
 30
0.0
 11
13.0004
 21
34.9677
 31
0.0
  0
LINE
  8
0
 62
     0
 10
13.0004
 20
34.9677
 30
0.0
 11
13.0004
 21
38.1977
 31
0.0
  0
LINE
  8
0
 62
     0
 10
13.0004
 20
38.1977
 30
0.0
 11
11.2751
 21
38.1977
 31
0.0
  0
LINE
  8
0
 62
     0
 10
11.2751
 20
38.1977
 30
0.0
 11
11.2751
 21
39.1213
 31
0.0
  0
LINE
  8
0
 62
     0
 10
11.2751
 20
39.1213
 30
0.0
 11
7.97609
 21
39.1213
 31
0.0
  0
LINE
  8
0
 62
     0
 10
7.97609
 20
39.1213
 30
0.0
 11
7.97609
 21
38.1977
 31
0.0
  0
LINE
  8
0
 62
     0
 10
7.97609
 20
38.1977
 30
0.0
 11
6.2508
 21
38.1977
 31
0.0
  0
LINE
  8
0
 62
     0
 10
6.2508
 20
38.1977
 30
0.0
 11
6.2508
 21
34.9677
 31
0.0
  0
LINE
  8
0
 62
     0
 10
6.2508
 20
34.9677
 30
0.0
 11
5.42533
 21
34.9677
 31
0.0
  0
LINE
  8
0
 62
     0
 10
5.42533
 20
34.9677
 30
0.0
 11
5.42533
 21
32.1689
 31
0.0
  0
LINE
  8
0
 62
     0
 10
5.42533
 20
32.1689
 30
0.0
 11
6.2508
 21
32.1689
 31
0.0
  0
LINE
  8
0
 62
     0
 10
6.2508
 20
32.1689
 30
0.0
 11
6.2508
 21
25.8989
 31
0.0
  0
LINE
  8
0
 62
     0
 10
6.2508
 20
25.8989
 30
0.0
 11
7.97609
 21
25.8989
 31
0.0
  0
LINE
  8
0
 62
     0
 10
7.97609
 20
25.8989
 30
0.0
 11
7.97609
 21
24.9177
 31
0.0
  0
LINE
  8
0
 62
     0
 10
7.97609
 20
24.9177
 30
0.0
 11
11.2751
 21
24.9177
 31
0.0
  0
LINE
  8
0
 62
     0
 10
11.2751
 20
24.9177
 30
0.0
 11
11.2751
 21
25.8989
 31
0.0
  0
LINE
  8
0
 62
     0
 10
11.2751
 20
25.8989
 30
0.0
 11
13.0004
 21
25.8989
 31
0.0
  0
LINE
  8
0
 62
     0
 10
13.0004
 20
25.8989
 30
0.0
 11
13.0004
 21
30.3678
 31
0.0
  0
LINE
  8
0
 62
     0
 10
13.0004
 20
30.3678
 30
0.0
 11
14.5259
 21
30.3678
 31
0.0
  0
LINE
  8
0
 62
     0
 10
14.5259
 20
30.3678
 30
0.0
 11
14.5259
 21
29.7684
 31
0.0
  0
LINE
  8
0
 62
     0
 10
14.5259
 20
29.7684
 30
0.0
 11
13.7253
 21
29.7684
 31
0.0
  0
LINE
  8
0
 62
     0
 10
13.7253
 20
29.7684
 30
0.0
 11
13.7253
 21
26.6678
 31
0.0
  0
LINE
  8
0
 62
     0
 10
13.7253
 20
26.6678
 30
0.0
 11
14.5259
 21
26.6678
 31
0.0
  0
LINE
  8
0
 62
     0
 10
14.5259
 20
26.6678
 30
0.0
 11
14.5259
 21
25.6687
 31
0.0
  0
LINE
  8
0
 62
     0
 10
14.5259
 20
25.6687
 30
0.0
 11
28.5254
 21
25.6687
 31
0.0
  0
LINE
  8
0
 62
     0
 10
28.5254
 20
25.6687
 30
0.0
 11
28.5254
 21
26.6678
 31
0.0
  0
LINE
  8
0
 62
     0
 10
28.5254
 20
26.6678
 30
0.0
 11
29.326
 21
26.6678
 31
0.0
  0
LINE
  8
0
 62
     0
 10
29.326
 20
26.6678
 30
0.0
 11
29.326
 21
29.7684
 31
0.0
  0
LINE
  8
0
 62
     0
 10
29.326
 20
29.7684
 30
0.0
 11
28.5254
 21
29.7684
 31
0.0
  0
LINE
  8
0
 62
     0
 10
28.5254
 20
29.7684
 30
0.0
 11
28.5254
 21
30.3678
 31
0.0
  0
LINE
  8
0
 62
     0
 10
28.5254
 20
30.3678
 30
0.0
 11
30.0509
 21
30.3678
 31
0.0
  0
LINE
  8
0
 62
     0
 10
30.0509
 20
30.3678
 30
0.0
 11
30.0509
 21
25.8989
 31
0.0
  0
LINE
  8
0
 62
     0
 10
30.0509
 20
25.8989
 30
0.0
 11
31.7762
 21
25.8989
 31
0.0
  0
LINE
  8
0
 62
     0
 10
31.7762
 20
25.8989
 30
0.0
 11
31.7762
 21
24.9177
 31
0.0
  0
LINE
  8
0
 62
     0
 10
31.7762
 20
24.9177
 30
0.0
 11
35.0752
 21
24.9177
 31
0.0
  0
LINE
  8
0
 62
     0
 10
35.0752
 20
24.9177
 30
0.0
 11
35.0752
 21
25.8989
 31
0.0
  0
LINE
  8
0
 62
     0
 10
35.0752
 20
25.8989
 30
0.0
 11
36.8004
 21
25.8989
 31
0.0
  0
LINE
  8
0
 62
     0
 10
36.8004
 20
25.8989
 30
0.0
 11
36.8004
 21
32.1689
 31
0.0
  0
LINE
  8
0
 62
     0
 10
36.8004
 20
32.1689
 30
0.0
 11
37.6259
 21
32.1689
 31
0.0
  0
LINE
  8
0
 62
     0
 10
37.6259
 20
32.1689
 30
0.0
 11
37.6259
 21
34.9677
 31
0.0
  0
LINE
  8
0
 62
     0
 10
37.6259
 20
34.9677
 30
0.0
 11
36.8004
 21
34.9677
 31
0.0
  0
LINE
  8
0
 62
     0
 10
36.8004
 20
34.9677
 30
0.0
 11
36.8004
 21
38.1977
 31
0.0
  0
LINE
  8
0
 62
     0
 10
36.8004
 20
38.1977
 30
0.0
 11
35.0752
 21
38.1977
 31
0.0
  0
LINE
  8
0
 62
     0
 10
35.0752
 20
38.1977
 30
0.0
 11
35.0752
 21
39.1213
 31
0.0
  0
LINE
  8
0
 62
     0
 10
35.0752
 20
39.1213
 30
0.0
 11
31.7762
 21
39.1213
 31
0.0
  0
LINE
  8
0
 62
     0
 10
31.7762
 20
39.1213
 30
0.0
 11
31.7762
 21
38.1977
 31
0.0
  0
LINE
  8
0
 62
     0
 10
31.7762
 20
38.1977
 30
0.0
 11
30.0509
 21
38.1977
 31
0.0
  0
LINE
  8
0
 62
     0
 10
30.0509
 20
38.1977
 30
0.0
 11
30.0509
 21
34.9677
 31
0.0
  0
LINE
  8
0
 62
     0
 10
30.0509
 20
34.9677
 30
0.0
 11
28.5254
 21
34.9677
 31
0.0
  0
LINE
  8
0
 62
     0
 10
28.5254
 20
34.9677
 30
0.0
 11
28.5254
 21
35.5685
 31
0.0
  0
LINE
  8
0
 62
     0
 10
28.5254
 20
35.5685
 30
0.0
 11
29.326
 21
35.5685
 31
0.0
  0
LINE
  8
0
 62
     0
 10
29.326
 20
35.5685
 30
0.0
 11
29.326
 21
38.6676
 31
0.0
  0
LINE
  8
0
 62
     0
 10
29.326
 20
38.6676
 30
0.0
 11
28.5254
 21
38.6676
 31
0.0
  0
LINE
  8
0
 62
     0
 10
28.5254
 20
38.6676
 30
0.0
 11
28.5254
 21
39.6681
 31
0.0
  0
LINE
  8
0
 62
     0
 10
28.5254
 20
39.6681
 30
0.0
 11
14.5259
 21
39.6681
 31
0.0
  0
LINE
  8
0
 62
     0
 10
45.4822
 20
39.6681
 30
0.0
 11
45.4822
 21
38.6676
 31
0.0
  0
LINE
  8
0
 62
     0
 10
45.4822
 20
38.6676
 30
0.0
 11
44.6814
 21
38.6676
 31
0.0
  0
LINE
  8
0
 62
     0
 10
44.6814
 20
38.6676
 30
0.0
 11
44.6814
 21
35.5685
 31
0.0
  0
LINE
  8
0
 62
     0
 10
44.6814
 20
35.5685
 30
0.0
 11
45.4822
 21
35.5685
 31
0.0
  0
LINE
  8
0
 62
     0
 10
45.4822
 20
35.5685
 30
0.0
 11
45.4822
 21
29.7684
 31
0.0
  0
LINE
  8
0
 62
     0
 10
45.4822
 20
29.7684
 30
0.0
 11
44.6814
 21
29.7684
 31
0.0
  0
LINE
  8
0
 62
     0
 10
44.6814
 20
29.7684
 30
0.0
 11
44.6814
 21
26.6678
 31
0.0
  0
LINE
  8
0
 62
     0
 10
44.6814
 20
26.6678
 30
0.0
 11
45.4822
 21
26.6678
 31
0.0
  0
LINE
  8
0
 62
     0
 10
45.4822
 20
26.6678
 30
0.0
 11
45.4822
 21
25.6687
 31
0.0
  0
LINE
  8
0
 62
     0
 10
45.4822
 20
25.6687
 30
0.0
 11
59.4815
 21
25.6687
 31
0.0
  0
LINE
  8
0
 62
     0
 10
59.4815
 20
25.6687
 30
0.0
 11
59.4815
 21
26.6678
 31
0.0
  0
LINE
  8
0
 62
     0
 10
59.4815
 20
26.6678
 30
0.0
 11
60.2823
 21
26.6678
 31
0.0
  0
LINE
  8
0
 62
     0
 10
60.2823
 20
26.6678
 30
0.0
 11
60.2823
 21
29.7684
 31
0.0
  0
LINE
  8
0
 62
     0
 10
60.2823
 20
29.7684
 30
0.0
 11
59.4815
 21
29.7684
 31
0.0
  0
LINE
  8
0
 62
     0
 10
59.4815
 20
29.7684
 30
0.0
 11
59.4815
 21
35.5685
 31
0.0
  0
LINE
  8
0
 62
     0
 10
59.4815
 20
35.5685
 30
0.0
 11
60.2823
 21
35.5685
 31
0.0
  0
LINE
  8
0
 62
     0
 10
60.2823
 20
35.5685
 30
0.0
 11
60.2823
 21
38.6676
 31
0.0
  0
LINE
  8
0
 62
     0
 10
60.2823
 20
38.6676
 30
0.0
 11
59.4815
 21
38.6676
 31
0.0
  0
LINE
  8
0
 62
     0
 10
59.4815
 20
38.6676
 30
0.0
 11
59.4815
 21
39.6681
 31
0.0
  0
LINE
  8
0
 62
     0
 10
59.4815
 20
39.6681
 30
0.0
 11
45.4822
 21
39.6681
 31
0.0
  0
LINE
  8
0
 62
     0
 10
64.5322
 20
39.6681
 30
0.0
 11
64.5322
 21
38.6676
 31
0.0
  0
LINE
  8
0
 62
     0
 10
64.5322
 20
38.6676
 30
0.0
 11
63.7314
 21
38.6676
 31
0.0
  0
LINE
  8
0
 62
     0
 10
63.7314
 20
38.6676
 30
0.0
 11
63.7314
 21
35.5685
 31
0.0
  0
LINE
  8
0
 62
     0
 10
63.7314
 20
35.5685
 30
0.0
 11
64.5322
 21
35.5685
 31
0.0
  0
LINE
  8
0
 62
     0
 10
64.5322
 20
35.5685
 30
0.0
 11
64.5322
 21
29.7684
 31
0.0
  0
LINE
  8
0
 62
     0
 10
64.5322
 20
29.7684
 30
0.0
 11
63.7314
 21
29.7684
 31
0.0
  0
LINE
  8
0
 62
     0
 10
63.7314
 20
29.7684
 30
0.0
 11
63.7314
 21
26.6678
 31
0.0
  0
LINE
  8
0
 62
     0
 10
63.7314
 20
26.6678
 30
0.0
 11
64.5322
 21
26.6678
 31
0.0
  0
LINE
  8
0
 62
     0
 10
64.5322
 20
26.6678
 30
0.0
 11
64.5322
 21
25.6687
 31
0.0
  0
LINE
  8
0
 62
     0
 10
64.5322
 20
25.6687
 30
0.0
 11
78.5315
 21
25.6687
 31
0.0
  0
LINE
  8
0
 62
     0
 10
78.5315
 20
25.6687
 30
0.0
 11
78.5315
 21
26.6678
 31
0.0
  0
LINE
  8
0
 62
     0
 10
78.5315
 20
26.6678
 30
0.0
 11
79.3323
 21
26.6678
 31
0.0
  0
LINE
  8
0
 62
     0
 10
79.3323
 20
26.6678
 30
0.0
 11
79.3323
 21
29.7684
 31
0.0
  0
LINE
  8
0
 62
     0
 10
79.3323
 20
29.7684
 30
0.0
 11
78.5315
 21
29.7684
 31
0.0
  0
LINE
  8
0
 62
     0
 10
78.5315
 20
29.7684
 30
0.0
 11
78.5315
 21
35.5685
 31
0.0
  0
LINE
  8
0
 62
     0
 10
78.5315
 20
35.5685
 30
0.0
 11
79.3323
 21
35.5685
 31
0.0
  0
LINE
  8
0
 62
     0
 10
79.3323
 20
35.5685
 30
0.0
 11
79.3323
 21
38.6676
 31
0.0
  0
LINE
  8
0
 62
     0
 10
79.3323
 20
38.6676
 30
0.0
 11
78.5315
 21
38.6676
 31
0.0
  0
LINE
  8
0
 62
     0
 10
78.5315
 20
38.6676
 30
0.0
 11
78.5315
 21
39.6681
 31
0.0
  0
LINE
  8
0
 62
     0
 10
78.5315
 20
39.6681
 30
0.0
 11
64.5322
 21
39.6681
 31
0.0
  0
LINE
  8
0
 62
     0
 10
83.5822
 20
39.6681
 30
0.0
 11
83.5822
 21
38.6676
 31
0.0
  0
LINE
  8
0
 62
     0
 10
83.5822
 20
38.6676
 30
0.0
 11
82.7814
 21
38.6676
 31
0.0
  0
LINE
  8
0
 62
     0
 10
82.7814
 20
38.6676
 30
0.0
 11
82.7814
 21
35.5685
 31
0.0
  0
LINE
  8
0
 62
     0
 10
82.7814
 20
35.5685
 30
0.0
 11
83.5822
 21
35.5685
 31
0.0
  0
LINE
  8
0
 62
     0
 10
83.5822
 20
35.5685
 30
0.0
 11
83.5822
 21
29.7684
 31
0.0
  0
LINE
  8
0
 62
     0
 10
83.5822
 20
29.7684
 30
0.0
 11
82.7814
 21
29.7684
 31
0.0
  0
LINE
  8
0
 62
     0
 10
82.7814
 20
29.7684
 30
0.0
 11
82.7814
 21
26.6678
 31
0.0
  0
LINE
  8
0
 62
     0
 10
82.7814
 20
26.6678
 30
0.0
 11
83.5822
 21
26.6678
 31
0.0
  0
LINE
  8
0
 62
     0
 10
83.5822
 20
26.6678
 30
0.0
 11
83.5822
 21
25.6687
 31
0.0
  0
LINE
  8
0
 62
     0
 10
83.5822
 20
25.6687
 30
0.0
 11
97.5815
 21
25.6687
 31
0.0
  0
LINE
  8
0
 62
     0
 10
97.5815
 20
25.6687
 30
0.0
 11
97.5815
 21
26.6678
 31
0.0
  0
LINE
  8
0
 62
     0
 10
97.5815
 20
26.6678
 30
0.0
 11
98.3823
 21
26.6678
 31
0.0
  0
LINE
  8
0
 62
     0
 10
98.3823
 20
26.6678
 30
0.0
 11
98.3823
 21
29.7684
 31
0.0
  0
LINE
  8
0
 62
     0
 10
98.3823
 20
29.7684
 30
0.0
 11
97.5815
 21
29.7684
 31
0.0
  0
LINE
  8
0
 62
     0
 10
97.5815
 20
29.7684
 30
0.0
 11
97.5815
 21
35.5685
 31
0.0
  0
LINE
  8
0
 62
     0
 10
97.5815
 20
35.5685
 30
0.0
 11
98.3823
 21
35.5685
 31
0.0
  0
LINE
  8
0
 62
     0
 10
98.3823
 20
35.5685
 30
0.0
 11
98.3823
 21
38.6676
 31
0.0
  0
LINE
  8
0
 62
     0
 10
98.3823
 20
38.6676
 30
0.0
 11
97.5815
 21
38.6676
 31
0.0
  0
LINE
  8
0
 62
     0
 10
97.5815
 20
38.6676
 30
0.0
 11
97.5815
 21
39.6681
 31
0.0
  0
LINE
  8
0
 62
     0
 10
97.5815
 20
39.6681
 30
0.0
 11
83.5822
 21
39.6681
 31
0.0
  0
LINE
  8
0
 62
     0
 10
102.632
 20
39.6681
 30
0.0
 11
102.632
 21
38.6676
 31
0.0
  0
LINE
  8
0
 62
     0
 10
102.632
 20
38.6676
 30
0.0
 11
101.831
 21
38.6676
 31
0.0
  0
LINE
  8
0
 62
     0
 10
101.831
 20
38.6676
 30
0.0
 11
101.831
 21
35.5685
 31
0.0
  0
LINE
  8
0
 62
     0
 10
101.831
 20
35.5685
 30
0.0
 11
102.632
 21
35.5685
 31
0.0
  0
LINE
  8
0
 62
     0
 10
102.632
 20
35.5685
 30
0.0
 11
102.632
 21
29.7684
 31
0.0
  0
LINE
  8
0
 62
     0
 10
102.632
 20
29.7684
 30
0.0
 11
101.831
 21
29.7684
 31
0.0
  0
LINE
  8
0
 62
     0
 10
101.831
 20
29.7684
 30
0.0
 11
101.831
 21
26.6678
 31
0.0
  0
LINE
  8
0
 62
     0
 10
101.831
 20
26.6678
 30
0.0
 11
102.632
 21
26.6678
 31
0.0
  0
LINE
  8
0
 62
     0
 10
102.632
 20
26.6678
 30
0.0
 11
102.632
 21
25.6687
 31
0.0
  0
LINE
  8
0
 62
     0
 10
102.632
 20
25.6687
 30
0.0
 11
116.632
 21
25.6687
 31
0.0
  0
LINE
  8
0
 62
     0
 10
116.632
 20
25.6687
 30
0.0
 11
116.632
 21
26.6678
 31
0.0
  0
LINE
  8
0
 62
     0
 10
116.632
 20
26.6678
 30
0.0
 11
117.432
 21
26.6678
 31
0.0
  0
LINE
  8
0
 62
     0
 10
117.432
 20
26.6678
 30
0.0
 11
117.432
 21
29.7684
 31
0.0
  0
LINE
  8
0
 62
     0
 10
117.432
 20
29.7684
 30
0.0
 11
116.632
 21
29.7684
 31
0.0
  0
LINE
  8
0
 62
     0
 10
116.632
 20
29.7684
 30
0.0
 11
116.632
 21
35.5685
 31
0.0
  0
LINE
  8
0
 62
     0
 10
116.632
 20
35.5685
 30
0.0
 11
117.432
 21
35.5685
 31
0.0
  0
LINE
  8
0
 62
     0
 10
117.432
 20
35.5685
 30
0.0
 11
117.432
 21
38.6676
 31
0.0
  0
LINE
  8
0
 62
     0
 10
117.432
 20
38.6676
 30
0.0
 11
116.632
 21
38.6676
 31
0.0
  0
LINE
  8
0
 62
     0
 10
116.632
 20
38.6676
 30
0.0
 11
116.632
 21
39.6681
 31
0.0
  0
LINE
  8
0
 62
     0
 10
116.632
 20
39.6681
 30
0.0
 11
102.632
 21
39.6681
 31
0.0
  0
LINE
  8
0
 62
     0
 10
121.682
 20
39.6681
 30
0.0
 11
121.682
 21
38.6676
 31
0.0
  0
LINE
  8
0
 62
     0
 10
121.682
 20
38.6676
 30
0.0
 11
120.881
 21
38.6676
 31
0.0
  0
LINE
  8
0
 62
     0
 10
120.881
 20
38.6676
 30
0.0
 11
120.881
 21
35.5685
 31
0.0
  0
LINE
  8
0
 62
     0
 10
120.881
 20
35.5685
 30
0.0
 11
121.682
 21
35.5685
 31
0.0
  0
LINE
  8
0
 62
     0
 10
121.682
 20
35.5685
 30
0.0
 11
121.682
 21
29.7684
 31
0.0
  0
LINE
  8
0
 62
     0
 10
121.682
 20
29.7684
 30
0.0
 11
120.881
 21
29.7684
 31
0.0
  0
LINE
  8
0
 62
     0
 10
120.881
 20
29.7684
 30
0.0
 11
120.881
 21
26.6678
 31
0.0
  0
LINE
  8
0
 62
     0
 10
120.881
 20
26.6678
 30
0.0
 11
121.682
 21
26.6678
 31
0.0
  0
LINE
  8
0
 62
     0
 10
121.682
 20
26.6678
 30
0.0
 11
121.682
 21
25.6687
 31
0.0
  0
LINE
  8
0
 62
     0
 10
121.682
 20
25.6687
 30
0.0
 11
135.682
 21
25.6687
 31
0.0
  0
LINE
  8
0
 62
     0
 10
135.682
 20
25.6687
 30
0.0
 11
135.682
 21
26.6678
 31
0.0
  0
LINE
  8
0
 62
     0
 10
135.682
 20
26.6678
 30
0.0
 11
136.482
 21
26.6678
 31
0.0
  0
LINE
  8
0
 62
     0
 10
136.482
 20
26.6678
 30
0.0
 11
136.482
 21
29.7684
 31
0.0
  0
LINE
  8
0
 62
     0
 10
136.482
 20
29.7684
 30
0.0
 11
135.682
 21
29.7684
 31
0.0
  0
LINE
  8
0
 62
     0
 10
135.682
 20
29.7684
 30
0.0
 11
135.682
 21
35.5685
 31
0.0
  0
LINE
  8
0
 62
     0
 10
135.682
 20
35.5685
 30
0.0
 11
136.482
 21
35.5685
 31
0.0
  0
LINE
  8
0
 62
     0
 10
136.482
 20
35.5685
 30
0.0
 11
136.482
 21
38.6676
 31
0.0
  0
LINE
  8
0
 62
     0
 10
136.482
 20
38.6676
 30
0.0
 11
135.682
 21
38.6676
 31
0.0
  0
LINE
  8
0
 62
     0
 10
135.682
 20
38.6676
 30
0.0
 11
135.682
 21
39.6681
 31
0.0
  0
LINE
  8
0
 62
     0
 10
135.682
 20
39.6681
 30
0.0
 11
121.682
 21
39.6681
 31
0.0
  0
LINE
  8
0
 62
     0
 10
140.732
 20
39.6681
 30
0.0
 11
140.732
 21
38.6676
 31
0.0
  0
LINE
  8
0
 62
     0
 10
140.732
 20
38.6676
 30
0.0
 11
139.931
 21
38.6676
 31
0.0
  0
LINE
  8
0
 62
     0
 10
139.931
 20
38.6676
 30
0.0
 11
139.931
 21
35.5685
 31
0.0
  0
LINE
  8
0
 62
     0
 10
139.931
 20
35.5685
 30
0.0
 11
140.732
 21
35.5685
 31
0.0
  0
LINE
  8
0
 62
     0
 10
140.732
 20
35.5685
 30
0.0
 11
140.732
 21
29.7684
 31
0.0
  0
LINE
  8
0
 62
     0
 10
140.732
 20
29.7684
 30
0.0
 11
139.931
 21
29.7684
 31
0.0
  0
LINE
  8
0
 62
     0
 10
139.931
 20
29.7684
 30
0.0
 11
139.931
 21
26.6678
 31
0.0
  0
LINE
  8
0
 62
     0
 10
139.931
 20
26.6678
 30
0.0
 11
140.732
 21
26.6678
 31
0.0
  0
LINE
  8
0
 62
     0
 10
140.732
 20
26.6678
 30
0.0
 11
140.732
 21
25.6687
 31
0.0
  0
LINE
  8
0
 62
     0
 10
140.732
 20
25.6687
 30
0.0
 11
154.732
 21
25.6687
 31
0.0
  0
LINE
  8
0
 62
     0
 10
154.732
 20
25.6687
 30
0.0
 11
154.732
 21
26.6678
 31
0.0
  0
LINE
  8
0
 62
     0
 10
154.732
 20
26.6678
 30
0.0
 11
155.532
 21
26.6678
 31
0.0
  0
LINE
  8
0
 62
     0
 10
155.532
 20
26.6678
 30
0.0
 11
155.532
 21
29.7684
 31
0.0
  0
LINE
  8
0
 62
     0
 10
155.532
 20
29.7684
 30
0.0
 11
154.732
 21
29.7684
 31
0.0
  0
LINE
  8
0
 62
     0
 10
154.732
 20
29.7684
 30
0.0
 11
154.732
 21
35.5685
 31
0.0
  0
LINE
  8
0
 62
     0
 10
154.732
 20
35.5685
 30
0.0
 11
155.532
 21
35.5685
 31
0.0
  0
LINE
  8
0
 62
     0
 10
155.532
 20
35.5685
 30
0.0
 11
155.532
 21
38.6676
 31
0.0
  0
LINE
  8
0
 62
     0
 10
155.532
 20
38.6676
 30
0.0
 11
154.732
 21
38.6676
 31
0.0
  0
LINE
  8
0
 62
     0
 10
154.732
 20
38.6676
 30
0.0
 11
154.732
 21
39.6681
 31
0.0
  0
LINE
  8
0
 62
     0
 10
154.732
 20
39.6681
 30
0.0
 11
140.732
 21
39.6681
 31
0.0
  0
LINE
  8
0
 62
     0
 10
159.782
 20
39.6681
 30
0.0
 11
159.782
 21
38.6676
 31
0.0
  0
LINE
  8
0
 62
     0
 10
159.782
 20
38.6676
 30
0.0
 11
158.981
 21
38.6676
 31
0.0
  0
LINE
  8
0
 62
     0
 10
158.981
 20
38.6676
 30
0.0
 11
158.981
 21
35.5685
 31
0.0
  0
LINE
  8
0
 62
     0
 10
158.981
 20
35.5685
 30
0.0
 11
159.782
 21
35.5685
 31
0.0
  0
LINE
  8
0
 62
     0
 10
159.782
 20
35.5685
 30
0.0
 11
159.782
 21
29.7684
 31
0.0
  0
LINE
  8
0
 62
     0
 10
159.782
 20
29.7684
 30
0.0
 11
158.981
 21
29.7684
 31
0.0
  0
LINE
  8
0
 62
     0
 10
158.981
 20
29.7684
 30
0.0
 11
158.981
 21
26.6678
 31
0.0
  0
LINE
  8
0
 62
     0
 10
158.981
 20
26.6678
 30
0.0
 11
159.782
 21
26.6678
 31
0.0
  0
LINE
  8
0
 62
     0
 10
159.782
 20
26.6678
 30
0.0
 11
159.782
 21
25.6687
 31
0.0
  0
LINE
  8
0
 62
     0
 10
159.782
 20
25.6687
 30
0.0
 11
173.782
 21
25.6687
 31
0.0
  0
LINE
  8
0
 62
     0
 10
173.782
 20
25.6687
 30
0.0
 11
173.782
 21
26.6678
 31
0.0
  0
LINE
  8
0
 62
     0
 10
173.782
 20
26.6678
 30
0.0
 11
174.582
 21
26.6678
 31
0.0
  0
LINE
  8
0
 62
     0
 10
174.582
 20
26.6678
 30
0.0
 11
174.582
 21
29.7684
 31
0.0
  0
LINE
  8
0
 62
     0
 10
174.582
 20
29.7684
 30
0.0
 11
173.782
 21
29.7684
 31
0.0
  0
LINE
  8
0
 62
     0
 10
173.782
 20
29.7684
 30
0.0
 11
173.782
 21
35.5685
 31
0.0
  0
LINE
  8
0
 62
     0
 10
173.782
 20
35.5685
 30
0.0
 11
174.582
 21
35.5685
 31
0.0
  0
LINE
  8
0
 62
     0
 10
174.582
 20
35.5685
 30
0.0
 11
174.582
 21
38.6676
 31
0.0
  0
LINE
  8
0
 62
     0
 10
174.582
 20
38.6676
 30
0.0
 11
173.782
 21
38.6676
 31
0.0
  0
LINE
  8
0
 62
     0
 10
173.782
 20
38.6676
 30
0.0
 11
173.782
 21
39.6681
 31
0.0
  0
LINE
  8
0
 62
     0
 10
173.782
 20
39.6681
 30
0.0
 11
159.782
 21
39.6681
 31
0.0
  0
LINE
  8
0
 62
     0
 10
178.832
 20
39.6681
 30
0.0
 11
178.832
 21
38.6676
 31
0.0
  0
LINE
  8
0
 62
     0
 10
178.832
 20
38.6676
 30
0.0
 11
178.031
 21
38.6676
 31
0.0
  0
LINE
  8
0
 62
     0
 10
178.031
 20
38.6676
 30
0.0
 11
178.031
 21
35.5685
 31
0.0
  0
LINE
  8
0
 62
     0
 10
178.031
 20
35.5685
 30
0.0
 11
178.832
 21
35.5685
 31
0.0
  0
LINE
  8
0
 62
     0
 10
178.832
 20
35.5685
 30
0.0
 11
178.832
 21
29.7684
 31
0.0
  0
LINE
  8
0
 62
     0
 10
178.832
 20
29.7684
 30
0.0
 11
178.031
 21
29.7684
 31
0.0
  0
LINE
  8
0
 62
     0
 10
178.031
 20
29.7684
 30
0.0
 11
178.031
 21
26.6678
 31
0.0
  0
LINE
  8
0
 62
     0
 10
178.031
 20
26.6678
 30
0.0
 11
178.832
 21
26.6678
 31
0.0
  0
LINE
  8
0
 62
     0
 10
178.832
 20
26.6678
 30
0.0
 11
178.832
 21
25.6687
 31
0.0
  0
LINE
  8
0
 62
     0
 10
178.832
 20
25.6687
 30
0.0
 11
192.832
 21
25.6687
 31
0.0
  0
LINE
  8
0
 62
     0
 10
192.832
 20
25.6687
 30
0.0
 11
192.832
 21
26.6678
 31
0.0
  0
LINE
  8
0
 62
     0
 10
192.832
 20
26.6678
 30
0.0
 11
193.632
 21
26.6678
 31
0.0
  0
LINE
  8
0
 62
     0
 10
193.632
 20
26.6678
 30
0.0
 11
193.632
 21
29.7684
 31
0.0
  0
LINE
  8
0
 62
     0
 10
193.632
 20
29.7684
 30
0.0
 11
192.832
 21
29.7684
 31
0.0
  0
LINE
  8
0
 62
     0
 10
192.832
 20
29.7684
 30
0.0
 11
192.832
 21
35.5685
 31
0.0
  0
LINE
  8
0
 62
     0
 10
192.832
 20
35.5685
 30
0.0
 11
193.632
 21
35.5685
 31
0.0
  0
LINE
  8
0
 62
     0
 10
193.632
 20
35.5685
 30
0.0
 11
193.632
 21
38.6676
 31
0.0
  0
LINE
  8
0
 62
     0
 10
193.632
 20
38.6676
 30
0.0
 11
192.832
 21
38.6676
 31
0.0
  0
LINE
  8
0
 62
     0
 10
192.832
 20
38.6676
 30
0.0
 11
192.832
 21
39.6681
 31
0.0
  0
LINE
  8
0
 62
     0
 10
192.832
 20
39.6681
 30
0.0
 11
178.832
 21
39.6681
 31
0.0
  0
LINE
  8
0
 62
     0
 10
197.882
 20
39.6681
 30
0.0
 11
197.882
 21
38.6676
 31
0.0
  0
LINE
  8
0
 62
     0
 10
197.882
 20
38.6676
 30
0.0
 11
197.081
 21
38.6676
 31
0.0
  0
LINE
  8
0
 62
     0
 10
197.081
 20
38.6676
 30
0.0
 11
197.081
 21
35.5685
 31
0.0
  0
LINE
  8
0
 62
     0
 10
197.081
 20
35.5685
 30
0.0
 11
197.882
 21
35.5685
 31
0.0
  0
LINE
  8
0
 62
     0
 10
197.882
 20
35.5685
 30
0.0
 11
197.882
 21
29.7684
 31
0.0
  0
LINE
  8
0
 62
     0
 10
197.882
 20
29.7684
 30
0.0
 11
197.081
 21
29.7684
 31
0.0
  0
LINE
  8
0
 62
     0
 10
197.081
 20
29.7684
 30
0.0
 11
197.081
 21
26.6678
 31
0.0
  0
LINE
  8
0
 62
     0
 10
197.081
 20
26.6678
 30
0.0
 11
197.882
 21
26.6678
 31
0.0
  0
LINE
  8
0
 62
     0
 10
197.882
 20
26.6678
 30
0.0
 11
197.882
 21
25.6687
 31
0.0
  0
LINE
  8
0
 62
     0
 10
197.882
 20
25.6687
 30
0.0
 11
211.882
 21
25.6687
 31
0.0
  0
LINE
  8
0
 62
     0
 10
211.882
 20
25.6687
 30
0.0
 11
211.882
 21
26.6678
 31
0.0
  0
LINE
  8
0
 62
     0
 10
211.882
 20
26.6678
 30
0.0
 11
212.682
 21
26.6678
 31
0.0
  0
LINE
  8
0
 62
     0
 10
212.682
 20
26.6678
 30
0.0
 11
212.682
 21
29.7684
 31
0.0
  0
LINE
  8
0
 62
     0
 10
212.682
 20
29.7684
 30
0.0
 11
211.882
 21
29.7684
 31
0.0
  0
LINE
  8
0
 62
     0
 10
211.882
 20
29.7684
 30
0.0
 11
211.882
 21
35.5685
 31
0.0
  0
LINE
  8
0
 62
     0
 10
211.882
 20
35.5685
 30
0.0
 11
212.682
 21
35.5685
 31
0.0
  0
LINE
  8
0
 62
     0
 10
212.682
 20
35.5685
 30
0.0
 11
212.682
 21
38.6676
 31
0.0
  0
LINE
  8
0
 62
     0
 10
212.682
 20
38.6676
 30
0.0
 11
211.882
 21
38.6676
 31
0.0
  0
LINE
  8
0
 62
     0
 10
211.882
 20
38.6676
 30
0.0
 11
211.882
 21
39.6681
 31
0.0
  0
LINE
  8
0
 62
     0
 10
211.882
 20
39.6681
 30
0.0
 11
197.882
 21
39.6681
 31
0.0
  0
LINE
  8
0
 62
     0
 10
216.932
 20
39.6681
 30
0.0
 11
216.932
 21
38.6676
 31
0.0
  0
LINE
  8
0
 62
     0
 10
216.932
 20
38.6676
 30
0.0
 11
216.131
 21
38.6676
 31
0.0
  0
LINE
  8
0
 62
     0
 10
216.131
 20
38.6676
 30
0.0
 11
216.131
 21
35.5685
 31
0.0
  0
LINE
  8
0
 62
     0
 10
216.131
 20
35.5685
 30
0.0
 11
216.932
 21
35.5685
 31
0.0
  0
LINE
  8
0
 62
     0
 10
216.932
 20
35.5685
 30
0.0
 11
216.932
 21
29.7684
 31
0.0
  0
LINE
  8
0
 62
     0
 10
216.932
 20
29.7684
 30
0.0
 11
216.131
 21
29.7684
 31
0.0
  0
LINE
  8
0
 62
     0
 10
216.131
 20
29.7684
 30
0.0
 11
216.131
 21
26.6678
 31
0.0
  0
LINE
  8
0
 62
     0
 10
216.131
 20
26.6678
 30
0.0
 11
216.932
 21
26.6678
 31
0.0
  0
LINE
  8
0
 62
     0
 10
216.932
 20
26.6678
 30
0.0
 11
216.932
 21
25.6687
 31
0.0
  0
LINE
  8
0
 62
     0
 10
216.932
 20
25.6687
 30
0.0
 11
230.932
 21
25.6687
 31
0.0
  0
LINE
  8
0
 62
     0
 10
230.932
 20
25.6687
 30
0.0
 11
230.932
 21
26.6678
 31
0.0
  0
LINE
  8
0
 62
     0
 10
230.932
 20
26.6678
 30
0.0
 11
231.732
 21
26.6678
 31
0.0
  0
LINE
  8
0
 62
     0
 10
231.732
 20
26.6678
 30
0.0
 11
231.732
 21
29.7684
 31
0.0
  0
LINE
  8
0
 62
     0
 10
231.732
 20
29.7684
 30
0.0
 11
230.932
 21
29.7684
 31
0.0
  0
LINE
  8
0
 62
     0
 10
230.932
 20
29.7684
 30
0.0
 11
230.932
 21
35.5685
 31
0.0
  0
LINE
  8
0
 62
     0
 10
230.932
 20
35.5685
 30
0.0
 11
231.732
 21
35.5685
 31
0.0
  0
LINE
  8
0
 62
     0
 10
231.732
 20
35.5685
 30
0.0
 11
231.732
 21
38.6676
 31
0.0
  0
LINE
  8
0
 62
     0
 10
231.732
 20
38.6676
 30
0.0
 11
230.932
 21
38.6676
 31
0.0
  0
LINE
  8
0
 62
     0
 10
230.932
 20
38.6676
 30
0.0
 11
230.932
 21
39.6681
 31
0.0
  0
LINE
  8
0
 62
     0
 10
230.932
 20
39.6681
 30
0.0
 11
216.932
 21
39.6681
 31
0.0
  0
LINE
  8
0
 62
     0
 10
243.126
 20
39.6681
 30
0.0
 11
243.126
 21
38.6676
 31
0.0
  0
LINE
  8
0
 62
     0
 10
243.126
 20
38.6676
 30
0.0
 11
242.325
 21
38.6676
 31
0.0
  0
LINE
  8
0
 62
     0
 10
242.325
 20
38.6676
 30
0.0
 11
242.325
 21
35.5685
 31
0.0
  0
LINE
  8
0
 62
     0
 10
242.325
 20
35.5685
 30
0.0
 11
243.126
 21
35.5685
 31
0.0
  0
LINE
  8
0
 62
     0
 10
243.126
 20
35.5685
 30
0.0
 11
243.126
 21
29.7684
 31
0.0
  0
LINE
  8
0
 62
     0
 10
243.126
 20
29.7684
 30
0.0
 11
242.325
 21
29.7684
 31
0.0
  0
LINE
  8
0
 62
     0
 10
242.325
 20
29.7684
 30
0.0
 11
242.325
 21
26.6678
 31
0.0
  0
LINE
  8
0
 62
     0
 10
242.325
 20
26.6678
 30
0.0
 11
243.126
 21
26.6678
 31
0.0
  0
LINE
  8
0
 62
     0
 10
243.126
 20
26.6678
 30
0.0
 11
243.126
 21
25.6687
 31
0.0
  0
LINE
  8
0
 62
     0
 10
243.126
 20
25.6687
 30
0.0
 11
257.125
 21
25.6687
 31
0.0
  0
LINE
  8
0
 62
     0
 10
257.125
 20
25.6687
 30
0.0
 11
257.125
 21
26.6678
 31
0.0
  0
LINE
  8
0
 62
     0
 10
257.125
 20
26.6678
 30
0.0
 11
257.926
 21
26.6678
 31
0.0
  0
LINE
  8
0
 62
     0
 10
257.926
 20
26.6678
 30
0.0
 11
257.926
 21
29.7684
 31
0.0
  0
LINE
  8
0
 62
     0
 10
257.926
 20
29.7684
 30
0.0
 11
257.125
 21
29.7684
 31
0.0
  0
LINE
  8
0
 62
     0
 10
257.125
 20
29.7684
 30
0.0
 11
257.125
 21
35.5685
 31
0.0
  0
LINE
  8
0
 62
     0
 10
257.125
 20
35.5685
 30
0.0
 11
257.926
 21
35.5685
 31
0.0
  0
LINE
  8
0
 62
     0
 10
257.926
 20
35.5685
 30
0.0
 11
257.926
 21
38.6676
 31
0.0
  0
LINE
  8
0
 62
     0
 10
257.926
 20
38.6676
 30
0.0
 11
257.125
 21
38.6676
 31
0.0
  0
LINE
  8
0
 62
     0
 10
257.125
 20
38.6676
 30
0.0
 11
257.125
 21
39.6681
 31
0.0
  0
LINE
  8
0
 62
     0
 10
257.125
 20
39.6681
 30
0.0
 11
243.126
 21
39.6681
 31
0.0
  0
LINE
  8
0
 62
     0
 10
269.32
 20
39.6681
 30
0.0
 11
269.32
 21
38.6676
 31
0.0
  0
LINE
  8
0
 62
     0
 10
269.32
 20
38.6676
 30
0.0
 11
268.52
 21
38.6676
 31
0.0
  0
LINE
  8
0
 62
     0
 10
268.52
 20
38.6676
 30
0.0
 11
268.52
 21
35.5685
 31
0.0
  0
LINE
  8
0
 62
     0
 10
268.52
 20
35.5685
 30
0.0
 11
269.32
 21
35.5685
 31
0.0
  0
LINE
  8
0
 62
     0
 10
269.32
 20
35.5685
 30
0.0
 11
269.32
 21
29.7684
 31
0.0
  0
LINE
  8
0
 62
     0
 10
269.32
 20
29.7684
 30
0.0
 11
268.52
 21
29.7684
 31
0.0
  0
LINE
  8
0
 62
     0
 10
268.52
 20
29.7684
 30
0.0
 11
268.52
 21
26.6678
 31
0.0
  0
LINE
  8
0
 62
     0
 10
268.52
 20
26.6678
 30
0.0
 11
269.32
 21
26.6678
 31
0.0
  0
LINE
  8
0
 62
     0
 10
269.32
 20
26.6678
 30
0.0
 11
269.32
 21
25.6687
 31
0.0
  0
LINE
  8
0
 62
     0
 10
269.32
 20
25.6687
 30
0.0
 11
283.319
 21
25.6687
 31
0.0
  0
LINE
  8
0
 62
     0
 10
283.319
 20
25.6687
 30
0.0
 11
283.319
 21
26.6678
 31
0.0
  0
LINE
  8
0
 62
     0
 10
283.319
 20
26.6678
 30
0.0
 11
284.12
 21
26.6678
 31
0.0
  0
LINE
  8
0
 62
     0
 10
284.12
 20
26.6678
 30
0.0
 11
284.12
 21
29.7684
 31
0.0
  0
LINE
  8
0
 62
     0
 10
284.12
 20
29.7684
 30
0.0
 11
283.319
 21
29.7684
 31
0.0
  0
LINE
  8
0
 62
     0
 10
283.319
 20
29.7684
 30
0.0
 11
283.319
 21
35.5685
 31
0.0
  0
LINE
  8
0
 62
     0
 10
283.319
 20
35.5685
 30
0.0
 11
284.12
 21
35.5685
 31
0.0
  0
LINE
  8
0
 62
     0
 10
284.12
 20
35.5685
 30
0.0
 11
284.12
 21
38.6676
 31
0.0
  0
LINE
  8
0
 62
     0
 10
284.12
 20
38.6676
 30
0.0
 11
283.319
 21
38.6676
 31
0.0
  0
LINE
  8
0
 62
     0
 10
283.319
 20
38.6676
 30
0.0
 11
283.319
 21
39.6681
 31
0.0
  0
LINE
  8
0
 62
     0
 10
283.319
 20
39.6681
 30
0.0
 11
269.32
 21
39.6681
 31
0.0
  0
LINE
  8
0
 62
     0
 10
257.413
 20
58.7181
 30
0.0
 11
257.413
 21
57.7176
 31
0.0
  0
LINE
  8
0
 62
     0
 10
257.413
 20
57.7176
 30
0.0
 11
256.611
 21
57.7176
 31
0.0
  0
LINE
  8
0
 62
     0
 10
256.611
 20
57.7176
 30
0.0
 11
256.611
 21
54.6185
 31
0.0
  0
LINE
  8
0
 62
     0
 10
256.611
 20
54.6185
 30
0.0
 11
257.413
 21
54.6185
 31
0.0
  0
LINE
  8
0
 62
     0
 10
257.413
 20
54.6185
 30
0.0
 11
257.413
 21
54.0177
 31
0.0
  0
LINE
  8
0
 62
     0
 10
257.413
 20
54.0177
 30
0.0
 11
255.888
 21
54.0177
 31
0.0
  0
LINE
  8
0
 62
     0
 10
255.888
 20
54.0177
 30
0.0
 11
255.888
 21
57.2477
 31
0.0
  0
LINE
  8
0
 62
     0
 10
255.888
 20
57.2477
 30
0.0
 11
254.161
 21
57.2477
 31
0.0
  0
LINE
  8
0
 62
     0
 10
254.161
 20
57.2477
 30
0.0
 11
254.161
 21
58.1685
 31
0.0
  0
LINE
  8
0
 62
     0
 10
254.161
 20
58.1685
 30
0.0
 11
250.862
 21
58.1685
 31
0.0
  0
LINE
  8
0
 62
     0
 10
250.862
 20
58.1685
 30
0.0
 11
250.862
 21
57.2477
 31
0.0
  0
LINE
  8
0
 62
     0
 10
250.862
 20
57.2477
 30
0.0
 11
249.138
 21
57.2477
 31
0.0
  0
LINE
  8
0
 62
     0
 10
249.138
 20
57.2477
 30
0.0
 11
249.138
 21
54.0177
 31
0.0
  0
LINE
  8
0
 62
     0
 10
249.138
 20
54.0177
 30
0.0
 11
248.313
 21
54.0177
 31
0.0
  0
LINE
  8
0
 62
     0
 10
248.313
 20
54.0177
 30
0.0
 11
248.313
 21
51.2191
 31
0.0
  0
LINE
  8
0
 62
     0
 10
248.313
 20
51.2191
 30
0.0
 11
249.138
 21
51.2191
 31
0.0
  0
LINE
  8
0
 62
     0
 10
249.138
 20
51.2191
 30
0.0
 11
249.138
 21
44.9488
 31
0.0
  0
LINE
  8
0
 62
     0
 10
249.138
 20
44.9488
 30
0.0
 11
250.862
 21
44.9488
 31
0.0
  0
LINE
  8
0
 62
     0
 10
250.862
 20
44.9488
 30
0.0
 11
250.862
 21
43.9678
 31
0.0
  0
LINE
  8
0
 62
     0
 10
250.862
 20
43.9678
 30
0.0
 11
254.161
 21
43.9678
 31
0.0
  0
LINE
  8
0
 62
     0
 10
254.161
 20
43.9678
 30
0.0
 11
254.161
 21
44.9488
 31
0.0
  0
LINE
  8
0
 62
     0
 10
254.161
 20
44.9488
 30
0.0
 11
255.888
 21
44.9488
 31
0.0
  0
LINE
  8
0
 62
     0
 10
255.888
 20
44.9488
 30
0.0
 11
255.888
 21
49.4178
 31
0.0
  0
LINE
  8
0
 62
     0
 10
255.888
 20
49.4178
 30
0.0
 11
257.413
 21
49.4178
 31
0.0
  0
LINE
  8
0
 62
     0
 10
257.413
 20
49.4178
 30
0.0
 11
257.413
 21
48.8184
 31
0.0
  0
LINE
  8
0
 62
     0
 10
257.413
 20
48.8184
 30
0.0
 11
256.611
 21
48.8184
 31
0.0
  0
LINE
  8
0
 62
     0
 10
256.611
 20
48.8184
 30
0.0
 11
256.611
 21
45.7179
 31
0.0
  0
LINE
  8
0
 62
     0
 10
256.611
 20
45.7179
 30
0.0
 11
257.413
 21
45.7179
 31
0.0
  0
LINE
  8
0
 62
     0
 10
257.413
 20
45.7179
 30
0.0
 11
257.413
 21
44.7188
 31
0.0
  0
LINE
  8
0
 62
     0
 10
257.413
 20
44.7188
 30
0.0
 11
271.413
 21
44.7188
 31
0.0
  0
LINE
  8
0
 62
     0
 10
271.413
 20
44.7188
 30
0.0
 11
271.413
 21
45.7179
 31
0.0
  0
LINE
  8
0
 62
     0
 10
271.413
 20
45.7179
 30
0.0
 11
272.212
 21
45.7179
 31
0.0
  0
LINE
  8
0
 62
     0
 10
272.212
 20
45.7179
 30
0.0
 11
272.212
 21
48.8184
 31
0.0
  0
LINE
  8
0
 62
     0
 10
272.212
 20
48.8184
 30
0.0
 11
271.413
 21
48.8184
 31
0.0
  0
LINE
  8
0
 62
     0
 10
271.413
 20
48.8184
 30
0.0
 11
271.413
 21
49.4178
 31
0.0
  0
LINE
  8
0
 62
     0
 10
271.413
 20
49.4178
 30
0.0
 11
272.939
 21
49.4178
 31
0.0
  0
LINE
  8
0
 62
     0
 10
272.939
 20
49.4178
 30
0.0
 11
272.939
 21
44.9488
 31
0.0
  0
LINE
  8
0
 62
     0
 10
272.939
 20
44.9488
 30
0.0
 11
274.662
 21
44.9488
 31
0.0
  0
LINE
  8
0
 62
     0
 10
274.662
 20
44.9488
 30
0.0
 11
274.662
 21
43.9678
 31
0.0
  0
LINE
  8
0
 62
     0
 10
274.662
 20
43.9678
 30
0.0
 11
277.963
 21
43.9678
 31
0.0
  0
LINE
  8
0
 62
     0
 10
277.963
 20
43.9678
 30
0.0
 11
277.963
 21
44.9488
 31
0.0
  0
LINE
  8
0
 62
     0
 10
277.963
 20
44.9488
 30
0.0
 11
279.688
 21
44.9488
 31
0.0
  0
LINE
  8
0
 62
     0
 10
279.688
 20
44.9488
 30
0.0
 11
279.688
 21
51.2191
 31
0.0
  0
LINE
  8
0
 62
     0
 10
279.688
 20
51.2191
 30
0.0
 11
280.512
 21
51.2191
 31
0.0
  0
LINE
  8
0
 62
     0
 10
280.512
 20
51.2191
 30
0.0
 11
280.512
 21
54.0177
 31
0.0
  0
LINE
  8
0
 62
     0
 10
280.512
 20
54.0177
 30
0.0
 11
279.688
 21
54.0177
 31
0.0
  0
LINE
  8
0
 62
     0
 10
279.688
 20
54.0177
 30
0.0
 11
279.688
 21
57.2477
 31
0.0
  0
LINE
  8
0
 62
     0
 10
279.688
 20
57.2477
 30
0.0
 11
277.963
 21
57.2477
 31
0.0
  0
LINE
  8
0
 62
     0
 10
277.963
 20
57.2477
 30
0.0
 11
277.963
 21
58.1685
 31
0.0
  0
LINE
  8
0
 62
     0
 10
277.963
 20
58.1685
 30
0.0
 11
274.662
 21
58.1685
 31
0.0
  0
LINE
  8
0
 62
     0
 10
274.662
 20
58.1685
 30
0.0
 11
274.662
 21
57.2477
 31
0.0
  0
LINE
  8
0
 62
     0
 10
274.662
 20
57.2477
 30
0.0
 11
272.939
 21
57.2477
 31
0.0
  0
LINE
  8
0
 62
     0
 10
272.939
 20
57.2477
 30
0.0
 11
272.939
 21
54.0177
 31
0.0
  0
LINE
  8
0
 62
     0
 10
272.939
 20
54.0177
 30
0.0
 11
271.413
 21
54.0177
 31
0.0
  0
LINE
  8
0
 62
     0
 10
271.413
 20
54.0177
 30
0.0
 11
271.413
 21
54.6185
 31
0.0
  0
LINE
  8
0
 62
     0
 10
271.413
 20
54.6185
 30
0.0
 11
272.212
 21
54.6185
 31
0.0
  0
LINE
  8
0
 62
     0
 10
272.212
 20
54.6185
 30
0.0
 11
272.212
 21
57.7176
 31
0.0
  0
LINE
  8
0
 62
     0
 10
272.212
 20
57.7176
 30
0.0
 11
271.413
 21
57.7176
 31
0.0
  0
LINE
  8
0
 62
     0
 10
271.413
 20
57.7176
 30
0.0
 11
271.413
 21
58.7181
 31
0.0
  0
LINE
  8
0
 62
     0
 10
271.413
 20
58.7181
 30
0.0
 11
257.413
 21
58.7181
 31
0.0
  0
LINE
  8
0
 62
     0
 10
9.76341
 20
58.7181
 30
0.0
 11
9.76341
 21
57.7176
 31
0.0
  0
LINE
  8
0
 62
     0
 10
9.76341
 20
57.7176
 30
0.0
 11
8.96278
 21
57.7176
 31
0.0
  0
LINE
  8
0
 62
     0
 10
8.96278
 20
57.7176
 30
0.0
 11
8.96278
 21
54.6185
 31
0.0
  0
LINE
  8
0
 62
     0
 10
8.96278
 20
54.6185
 30
0.0
 11
9.76341
 21
54.6185
 31
0.0
  0
LINE
  8
0
 62
     0
 10
9.76341
 20
54.6185
 30
0.0
 11
9.76341
 21
48.8184
 31
0.0
  0
LINE
  8
0
 62
     0
 10
9.76341
 20
48.8184
 30
0.0
 11
8.96278
 21
48.8184
 31
0.0
  0
LINE
  8
0
 62
     0
 10
8.96278
 20
48.8184
 30
0.0
 11
8.96278
 21
45.7179
 31
0.0
  0
LINE
  8
0
 62
     0
 10
8.96278
 20
45.7179
 30
0.0
 11
9.76341
 21
45.7179
 31
0.0
  0
LINE
  8
0
 62
     0
 10
9.76341
 20
45.7179
 30
0.0
 11
9.76341
 21
44.7188
 31
0.0
  0
LINE
  8
0
 62
     0
 10
9.76341
 20
44.7188
 30
0.0
 11
23.7629
 21
44.7188
 31
0.0
  0
LINE
  8
0
 62
     0
 10
23.7629
 20
44.7188
 30
0.0
 11
23.7629
 21
45.7179
 31
0.0
  0
LINE
  8
0
 62
     0
 10
23.7629
 20
45.7179
 30
0.0
 11
24.5622
 21
45.7179
 31
0.0
  0
LINE
  8
0
 62
     0
 10
24.5622
 20
45.7179
 30
0.0
 11
24.5622
 21
48.8184
 31
0.0
  0
LINE
  8
0
 62
     0
 10
24.5622
 20
48.8184
 30
0.0
 11
23.7629
 21
48.8184
 31
0.0
  0
LINE
  8
0
 62
     0
 10
23.7629
 20
48.8184
 30
0.0
 11
23.7629
 21
54.6185
 31
0.0
  0
LINE
  8
0
 62
     0
 10
23.7629
 20
54.6185
 30
0.0
 11
24.5622
 21
54.6185
 31
0.0
  0
LINE
  8
0
 62
     0
 10
24.5622
 20
54.6185
 30
0.0
 11
24.5622
 21
57.7176
 31
0.0
  0
LINE
  8
0
 62
     0
 10
24.5622
 20
57.7176
 30
0.0
 11
23.7629
 21
57.7176
 31
0.0
  0
LINE
  8
0
 62
     0
 10
23.7629
 20
57.7176
 30
0.0
 11
23.7629
 21
58.7181
 31
0.0
  0
LINE
  8
0
 62
     0
 10
23.7629
 20
58.7181
 30
0.0
 11
9.76341
 21
58.7181
 31
0.0
  0
LINE
  8
0
 62
     0
 10
35.9572
 20
58.7181
 30
0.0
 11
35.9572
 21
57.7176
 31
0.0
  0
LINE
  8
0
 62
     0
 10
35.9572
 20
57.7176
 30
0.0
 11
35.1565
 21
57.7176
 31
0.0
  0
LINE
  8
0
 62
     0
 10
35.1565
 20
57.7176
 30
0.0
 11
35.1565
 21
54.6185
 31
0.0
  0
LINE
  8
0
 62
     0
 10
35.1565
 20
54.6185
 30
0.0
 11
35.9572
 21
54.6185
 31
0.0
  0
LINE
  8
0
 62
     0
 10
35.9572
 20
54.6185
 30
0.0
 11
35.9572
 21
48.8184
 31
0.0
  0
LINE
  8
0
 62
     0
 10
35.9572
 20
48.8184
 30
0.0
 11
35.1565
 21
48.8184
 31
0.0
  0
LINE
  8
0
 62
     0
 10
35.1565
 20
48.8184
 30
0.0
 11
35.1565
 21
45.7179
 31
0.0
  0
LINE
  8
0
 62
     0
 10
35.1565
 20
45.7179
 30
0.0
 11
35.9572
 21
45.7179
 31
0.0
  0
LINE
  8
0
 62
     0
 10
35.9572
 20
45.7179
 30
0.0
 11
35.9572
 21
44.7188
 31
0.0
  0
LINE
  8
0
 62
     0
 10
35.9572
 20
44.7188
 30
0.0
 11
49.9565
 21
44.7188
 31
0.0
  0
LINE
  8
0
 62
     0
 10
49.9565
 20
44.7188
 30
0.0
 11
49.9565
 21
45.7179
 31
0.0
  0
LINE
  8
0
 62
     0
 10
49.9565
 20
45.7179
 30
0.0
 11
50.7573
 21
45.7179
 31
0.0
  0
LINE
  8
0
 62
     0
 10
50.7573
 20
45.7179
 30
0.0
 11
50.7573
 21
48.8184
 31
0.0
  0
LINE
  8
0
 62
     0
 10
50.7573
 20
48.8184
 30
0.0
 11
49.9565
 21
48.8184
 31
0.0
  0
LINE
  8
0
 62
     0
 10
49.9565
 20
48.8184
 30
0.0
 11
49.9565
 21
54.6185
 31
0.0
  0
LINE
  8
0
 62
     0
 10
49.9565
 20
54.6185
 30
0.0
 11
50.7573
 21
54.6185
 31
0.0
  0
LINE
  8
0
 62
     0
 10
50.7573
 20
54.6185
 30
0.0
 11
50.7573
 21
57.7176
 31
0.0
  0
LINE
  8
0
 62
     0
 10
50.7573
 20
57.7176
 30
0.0
 11
49.9565
 21
57.7176
 31
0.0
  0
LINE
  8
0
 62
     0
 10
49.9565
 20
57.7176
 30
0.0
 11
49.9565
 21
58.7181
 31
0.0
  0
LINE
  8
0
 62
     0
 10
49.9565
 20
58.7181
 30
0.0
 11
35.9572
 21
58.7181
 31
0.0
  0
LINE
  8
0
 62
     0
 10
55.0072
 20
58.7181
 30
0.0
 11
55.0072
 21
57.7176
 31
0.0
  0
LINE
  8
0
 62
     0
 10
55.0072
 20
57.7176
 30
0.0
 11
54.2064
 21
57.7176
 31
0.0
  0
LINE
  8
0
 62
     0
 10
54.2064
 20
57.7176
 30
0.0
 11
54.2064
 21
54.6185
 31
0.0
  0
LINE
  8
0
 62
     0
 10
54.2064
 20
54.6185
 30
0.0
 11
55.0072
 21
54.6185
 31
0.0
  0
LINE
  8
0
 62
     0
 10
55.0072
 20
54.6185
 30
0.0
 11
55.0072
 21
48.8184
 31
0.0
  0
LINE
  8
0
 62
     0
 10
55.0072
 20
48.8184
 30
0.0
 11
54.2064
 21
48.8184
 31
0.0
  0
LINE
  8
0
 62
     0
 10
54.2064
 20
48.8184
 30
0.0
 11
54.2064
 21
45.7179
 31
0.0
  0
LINE
  8
0
 62
     0
 10
54.2064
 20
45.7179
 30
0.0
 11
55.0072
 21
45.7179
 31
0.0
  0
LINE
  8
0
 62
     0
 10
55.0072
 20
45.7179
 30
0.0
 11
55.0072
 21
44.7188
 31
0.0
  0
LINE
  8
0
 62
     0
 10
55.0072
 20
44.7188
 30
0.0
 11
69.0065
 21
44.7188
 31
0.0
  0
LINE
  8
0
 62
     0
 10
69.0065
 20
44.7188
 30
0.0
 11
69.0065
 21
45.7179
 31
0.0
  0
LINE
  8
0
 62
     0
 10
69.0065
 20
45.7179
 30
0.0
 11
69.8073
 21
45.7179
 31
0.0
  0
LINE
  8
0
 62
     0
 10
69.8073
 20
45.7179
 30
0.0
 11
69.8073
 21
48.8184
 31
0.0
  0
LINE
  8
0
 62
     0
 10
69.8073
 20
48.8184
 30
0.0
 11
69.0065
 21
48.8184
 31
0.0
  0
LINE
  8
0
 62
     0
 10
69.0065
 20
48.8184
 30
0.0
 11
69.0065
 21
54.6185
 31
0.0
  0
LINE
  8
0
 62
     0
 10
69.0065
 20
54.6185
 30
0.0
 11
69.8073
 21
54.6185
 31
0.0
  0
LINE
  8
0
 62
     0
 10
69.8073
 20
54.6185
 30
0.0
 11
69.8073
 21
57.7176
 31
0.0
  0
LINE
  8
0
 62
     0
 10
69.8073
 20
57.7176
 30
0.0
 11
69.0065
 21
57.7176
 31
0.0
  0
LINE
  8
0
 62
     0
 10
69.0065
 20
57.7176
 30
0.0
 11
69.0065
 21
58.7181
 31
0.0
  0
LINE
  8
0
 62
     0
 10
69.0065
 20
58.7181
 30
0.0
 11
55.0072
 21
58.7181
 31
0.0
  0
LINE
  8
0
 62
     0
 10
74.0572
 20
58.7181
 30
0.0
 11
74.0572
 21
57.7176
 31
0.0
  0
LINE
  8
0
 62
     0
 10
74.0572
 20
57.7176
 30
0.0
 11
73.2564
 21
57.7176
 31
0.0
  0
LINE
  8
0
 62
     0
 10
73.2564
 20
57.7176
 30
0.0
 11
73.2564
 21
54.6185
 31
0.0
  0
LINE
  8
0
 62
     0
 10
73.2564
 20
54.6185
 30
0.0
 11
74.0572
 21
54.6185
 31
0.0
  0
LINE
  8
0
 62
     0
 10
74.0572
 20
54.6185
 30
0.0
 11
74.0572
 21
48.8184
 31
0.0
  0
LINE
  8
0
 62
     0
 10
74.0572
 20
48.8184
 30
0.0
 11
73.2564
 21
48.8184
 31
0.0
  0
LINE
  8
0
 62
     0
 10
73.2564
 20
48.8184
 30
0.0
 11
73.2564
 21
45.7179
 31
0.0
  0
LINE
  8
0
 62
     0
 10
73.2564
 20
45.7179
 30
0.0
 11
74.0572
 21
45.7179
 31
0.0
  0
LINE
  8
0
 62
     0
 10
74.0572
 20
45.7179
 30
0.0
 11
74.0572
 21
44.7188
 31
0.0
  0
LINE
  8
0
 62
     0
 10
74.0572
 20
44.7188
 30
0.0
 11
88.0565
 21
44.7188
 31
0.0
  0
LINE
  8
0
 62
     0
 10
88.0565
 20
44.7188
 30
0.0
 11
88.0565
 21
45.7179
 31
0.0
  0
LINE
  8
0
 62
     0
 10
88.0565
 20
45.7179
 30
0.0
 11
88.8573
 21
45.7179
 31
0.0
  0
LINE
  8
0
 62
     0
 10
88.8573
 20
45.7179
 30
0.0
 11
88.8573
 21
48.8184
 31
0.0
  0
LINE
  8
0
 62
     0
 10
88.8573
 20
48.8184
 30
0.0
 11
88.0565
 21
48.8184
 31
0.0
  0
LINE
  8
0
 62
     0
 10
88.0565
 20
48.8184
 30
0.0
 11
88.0565
 21
54.6185
 31
0.0
  0
LINE
  8
0
 62
     0
 10
88.0565
 20
54.6185
 30
0.0
 11
88.8573
 21
54.6185
 31
0.0
  0
LINE
  8
0
 62
     0
 10
88.8573
 20
54.6185
 30
0.0
 11
88.8573
 21
57.7176
 31
0.0
  0
LINE
  8
0
 62
     0
 10
88.8573
 20
57.7176
 30
0.0
 11
88.0565
 21
57.7176
 31
0.0
  0
LINE
  8
0
 62
     0
 10
88.0565
 20
57.7176
 30
0.0
 11
88.0565
 21
58.7181
 31
0.0
  0
LINE
  8
0
 62
     0
 10
88.0565
 20
58.7181
 30
0.0
 11
74.0572
 21
58.7181
 31
0.0
  0
LINE
  8
0
 62
     0
 10
93.1072
 20
58.7181
 30
0.0
 11
93.1072
 21
57.7176
 31
0.0
  0
LINE
  8
0
 62
     0
 10
93.1072
 20
57.7176
 30
0.0
 11
92.3064
 21
57.7176
 31
0.0
  0
LINE
  8
0
 62
     0
 10
92.3064
 20
57.7176
 30
0.0
 11
92.3064
 21
54.6185
 31
0.0
  0
LINE
  8
0
 62
     0
 10
92.3064
 20
54.6185
 30
0.0
 11
93.1072
 21
54.6185
 31
0.0
  0
LINE
  8
0
 62
     0
 10
93.1072
 20
54.6185
 30
0.0
 11
93.1072
 21
48.8184
 31
0.0
  0
LINE
  8
0
 62
     0
 10
93.1072
 20
48.8184
 30
0.0
 11
92.3064
 21
48.8184
 31
0.0
  0
LINE
  8
0
 62
     0
 10
92.3064
 20
48.8184
 30
0.0
 11
92.3064
 21
45.7179
 31
0.0
  0
LINE
  8
0
 62
     0
 10
92.3064
 20
45.7179
 30
0.0
 11
93.1072
 21
45.7179
 31
0.0
  0
LINE
  8
0
 62
     0
 10
93.1072
 20
45.7179
 30
0.0
 11
93.1072
 21
44.7188
 31
0.0
  0
LINE
  8
0
 62
     0
 10
93.1072
 20
44.7188
 30
0.0
 11
107.107
 21
44.7188
 31
0.0
  0
LINE
  8
0
 62
     0
 10
107.107
 20
44.7188
 30
0.0
 11
107.107
 21
45.7179
 31
0.0
  0
LINE
  8
0
 62
     0
 10
107.107
 20
45.7179
 30
0.0
 11
107.907
 21
45.7179
 31
0.0
  0
LINE
  8
0
 62
     0
 10
107.907
 20
45.7179
 30
0.0
 11
107.907
 21
48.8184
 31
0.0
  0
LINE
  8
0
 62
     0
 10
107.907
 20
48.8184
 30
0.0
 11
107.107
 21
48.8184
 31
0.0
  0
LINE
  8
0
 62
     0
 10
107.107
 20
48.8184
 30
0.0
 11
107.107
 21
54.6185
 31
0.0
  0
LINE
  8
0
 62
     0
 10
107.107
 20
54.6185
 30
0.0
 11
107.907
 21
54.6185
 31
0.0
  0
LINE
  8
0
 62
     0
 10
107.907
 20
54.6185
 30
0.0
 11
107.907
 21
57.7176
 31
0.0
  0
LINE
  8
0
 62
     0
 10
107.907
 20
57.7176
 30
0.0
 11
107.107
 21
57.7176
 31
0.0
  0
LINE
  8
0
 62
     0
 10
107.107
 20
57.7176
 30
0.0
 11
107.107
 21
58.7181
 31
0.0
  0
LINE
  8
0
 62
     0
 10
107.107
 20
58.7181
 30
0.0
 11
93.1072
 21
58.7181
 31
0.0
  0
LINE
  8
0
 62
     0
 10
112.157
 20
58.7181
 30
0.0
 11
112.157
 21
57.7176
 31
0.0
  0
LINE
  8
0
 62
     0
 10
112.157
 20
57.7176
 30
0.0
 11
111.356
 21
57.7176
 31
0.0
  0
LINE
  8
0
 62
     0
 10
111.356
 20
57.7176
 30
0.0
 11
111.356
 21
54.6185
 31
0.0
  0
LINE
  8
0
 62
     0
 10
111.356
 20
54.6185
 30
0.0
 11
112.157
 21
54.6185
 31
0.0
  0
LINE
  8
0
 62
     0
 10
112.157
 20
54.6185
 30
0.0
 11
112.157
 21
48.8184
 31
0.0
  0
LINE
  8
0
 62
     0
 10
112.157
 20
48.8184
 30
0.0
 11
111.356
 21
48.8184
 31
0.0
  0
LINE
  8
0
 62
     0
 10
111.356
 20
48.8184
 30
0.0
 11
111.356
 21
45.7179
 31
0.0
  0
LINE
  8
0
 62
     0
 10
111.356
 20
45.7179
 30
0.0
 11
112.157
 21
45.7179
 31
0.0
  0
LINE
  8
0
 62
     0
 10
112.157
 20
45.7179
 30
0.0
 11
112.157
 21
44.7188
 31
0.0
  0
LINE
  8
0
 62
     0
 10
112.157
 20
44.7188
 30
0.0
 11
126.157
 21
44.7188
 31
0.0
  0
LINE
  8
0
 62
     0
 10
126.157
 20
44.7188
 30
0.0
 11
126.157
 21
45.7179
 31
0.0
  0
LINE
  8
0
 62
     0
 10
126.157
 20
45.7179
 30
0.0
 11
126.957
 21
45.7179
 31
0.0
  0
LINE
  8
0
 62
     0
 10
126.957
 20
45.7179
 30
0.0
 11
126.957
 21
48.8184
 31
0.0
  0
LINE
  8
0
 62
     0
 10
126.957
 20
48.8184
 30
0.0
 11
126.157
 21
48.8184
 31
0.0
  0
LINE
  8
0
 62
     0
 10
126.157
 20
48.8184
 30
0.0
 11
126.157
 21
54.6185
 31
0.0
  0
LINE
  8
0
 62
     0
 10
126.157
 20
54.6185
 30
0.0
 11
126.957
 21
54.6185
 31
0.0
  0
LINE
  8
0
 62
     0
 10
126.957
 20
54.6185
 30
0.0
 11
126.957
 21
57.7176
 31
0.0
  0
LINE
  8
0
 62
     0
 10
126.957
 20
57.7176
 30
0.0
 11
126.157
 21
57.7176
 31
0.0
  0
LINE
  8
0
 62
     0
 10
126.157
 20
57.7176
 30
0.0
 11
126.157
 21
58.7181
 31
0.0
  0
LINE
  8
0
 62
     0
 10
126.157
 20
58.7181
 30
0.0
 11
112.157
 21
58.7181
 31
0.0
  0
LINE
  8
0
 62
     0
 10
131.207
 20
58.7181
 30
0.0
 11
131.207
 21
57.7176
 31
0.0
  0
LINE
  8
0
 62
     0
 10
131.207
 20
57.7176
 30
0.0
 11
130.406
 21
57.7176
 31
0.0
  0
LINE
  8
0
 62
     0
 10
130.406
 20
57.7176
 30
0.0
 11
130.406
 21
54.6185
 31
0.0
  0
LINE
  8
0
 62
     0
 10
130.406
 20
54.6185
 30
0.0
 11
131.207
 21
54.6185
 31
0.0
  0
LINE
  8
0
 62
     0
 10
131.207
 20
54.6185
 30
0.0
 11
131.207
 21
48.8184
 31
0.0
  0
LINE
  8
0
 62
     0
 10
131.207
 20
48.8184
 30
0.0
 11
130.406
 21
48.8184
 31
0.0
  0
LINE
  8
0
 62
     0
 10
130.406
 20
48.8184
 30
0.0
 11
130.406
 21
45.7179
 31
0.0
  0
LINE
  8
0
 62
     0
 10
130.406
 20
45.7179
 30
0.0
 11
131.207
 21
45.7179
 31
0.0
  0
LINE
  8
0
 62
     0
 10
131.207
 20
45.7179
 30
0.0
 11
131.207
 21
44.7188
 31
0.0
  0
LINE
  8
0
 62
     0
 10
131.207
 20
44.7188
 30
0.0
 11
145.207
 21
44.7188
 31
0.0
  0
LINE
  8
0
 62
     0
 10
145.207
 20
44.7188
 30
0.0
 11
145.207
 21
45.7179
 31
0.0
  0
LINE
  8
0
 62
     0
 10
145.207
 20
45.7179
 30
0.0
 11
146.007
 21
45.7179
 31
0.0
  0
LINE
  8
0
 62
     0
 10
146.007
 20
45.7179
 30
0.0
 11
146.007
 21
48.8184
 31
0.0
  0
LINE
  8
0
 62
     0
 10
146.007
 20
48.8184
 30
0.0
 11
145.207
 21
48.8184
 31
0.0
  0
LINE
  8
0
 62
     0
 10
145.207
 20
48.8184
 30
0.0
 11
145.207
 21
54.6185
 31
0.0
  0
LINE
  8
0
 62
     0
 10
145.207
 20
54.6185
 30
0.0
 11
146.007
 21
54.6185
 31
0.0
  0
LINE
  8
0
 62
     0
 10
146.007
 20
54.6185
 30
0.0
 11
146.007
 21
57.7176
 31
0.0
  0
LINE
  8
0
 62
     0
 10
146.007
 20
57.7176
 30
0.0
 11
145.207
 21
57.7176
 31
0.0
  0
LINE
  8
0
 62
     0
 10
145.207
 20
57.7176
 30
0.0
 11
145.207
 21
58.7181
 31
0.0
  0
LINE
  8
0
 62
     0
 10
145.207
 20
58.7181
 30
0.0
 11
131.207
 21
58.7181
 31
0.0
  0
LINE
  8
0
 62
     0
 10
150.257
 20
58.7181
 30
0.0
 11
150.257
 21
57.7176
 31
0.0
  0
LINE
  8
0
 62
     0
 10
150.257
 20
57.7176
 30
0.0
 11
149.456
 21
57.7176
 31
0.0
  0
LINE
  8
0
 62
     0
 10
149.456
 20
57.7176
 30
0.0
 11
149.456
 21
54.6185
 31
0.0
  0
LINE
  8
0
 62
     0
 10
149.456
 20
54.6185
 30
0.0
 11
150.257
 21
54.6185
 31
0.0
  0
LINE
  8
0
 62
     0
 10
150.257
 20
54.6185
 30
0.0
 11
150.257
 21
48.8184
 31
0.0
  0
LINE
  8
0
 62
     0
 10
150.257
 20
48.8184
 30
0.0
 11
149.456
 21
48.8184
 31
0.0
  0
LINE
  8
0
 62
     0
 10
149.456
 20
48.8184
 30
0.0
 11
149.456
 21
45.7179
 31
0.0
  0
LINE
  8
0
 62
     0
 10
149.456
 20
45.7179
 30
0.0
 11
150.257
 21
45.7179
 31
0.0
  0
LINE
  8
0
 62
     0
 10
150.257
 20
45.7179
 30
0.0
 11
150.257
 21
44.7188
 31
0.0
  0
LINE
  8
0
 62
     0
 10
150.257
 20
44.7188
 30
0.0
 11
164.257
 21
44.7188
 31
0.0
  0
LINE
  8
0
 62
     0
 10
164.257
 20
44.7188
 30
0.0
 11
164.257
 21
45.7179
 31
0.0
  0
LINE
  8
0
 62
     0
 10
164.257
 20
45.7179
 30
0.0
 11
165.057
 21
45.7179
 31
0.0
  0
LINE
  8
0
 62
     0
 10
165.057
 20
45.7179
 30
0.0
 11
165.057
 21
48.8184
 31
0.0
  0
LINE
  8
0
 62
     0
 10
165.057
 20
48.8184
 30
0.0
 11
164.257
 21
48.8184
 31
0.0
  0
LINE
  8
0
 62
     0
 10
164.257
 20
48.8184
 30
0.0
 11
164.257
 21
54.6185
 31
0.0
  0
LINE
  8
0
 62
     0
 10
164.257
 20
54.6185
 30
0.0
 11
165.057
 21
54.6185
 31
0.0
  0
LINE
  8
0
 62
     0
 10
165.057
 20
54.6185
 30
0.0
 11
165.057
 21
57.7176
 31
0.0
  0
LINE
  8
0
 62
     0
 10
165.057
 20
57.7176
 30
0.0
 11
164.257
 21
57.7176
 31
0.0
  0
LINE
  8
0
 62
     0
 10
164.257
 20
57.7176
 30
0.0
 11
164.257
 21
58.7181
 31
0.0
  0
LINE
  8
0
 62
     0
 10
164.257
 20
58.7181
 30
0.0
 11
150.257
 21
58.7181
 31
0.0
  0
LINE
  8
0
 62
     0
 10
169.307
 20
58.7181
 30
0.0
 11
169.307
 21
57.7176
 31
0.0
  0
LINE
  8
0
 62
     0
 10
169.307
 20
57.7176
 30
0.0
 11
168.506
 21
57.7176
 31
0.0
  0
LINE
  8
0
 62
     0
 10
168.506
 20
57.7176
 30
0.0
 11
168.506
 21
54.6185
 31
0.0
  0
LINE
  8
0
 62
     0
 10
168.506
 20
54.6185
 30
0.0
 11
169.307
 21
54.6185
 31
0.0
  0
LINE
  8
0
 62
     0
 10
169.307
 20
54.6185
 30
0.0
 11
169.307
 21
48.8184
 31
0.0
  0
LINE
  8
0
 62
     0
 10
169.307
 20
48.8184
 30
0.0
 11
168.506
 21
48.8184
 31
0.0
  0
LINE
  8
0
 62
     0
 10
168.506
 20
48.8184
 30
0.0
 11
168.506
 21
45.7179
 31
0.0
  0
LINE
  8
0
 62
     0
 10
168.506
 20
45.7179
 30
0.0
 11
169.307
 21
45.7179
 31
0.0
  0
LINE
  8
0
 62
     0
 10
169.307
 20
45.7179
 30
0.0
 11
169.307
 21
44.7188
 31
0.0
  0
LINE
  8
0
 62
     0
 10
169.307
 20
44.7188
 30
0.0
 11
183.307
 21
44.7188
 31
0.0
  0
LINE
  8
0
 62
     0
 10
183.307
 20
44.7188
 30
0.0
 11
183.307
 21
45.7179
 31
0.0
  0
LINE
  8
0
 62
     0
 10
183.307
 20
45.7179
 30
0.0
 11
184.107
 21
45.7179
 31
0.0
  0
LINE
  8
0
 62
     0
 10
184.107
 20
45.7179
 30
0.0
 11
184.107
 21
48.8184
 31
0.0
  0
LINE
  8
0
 62
     0
 10
184.107
 20
48.8184
 30
0.0
 11
183.307
 21
48.8184
 31
0.0
  0
LINE
  8
0
 62
     0
 10
183.307
 20
48.8184
 30
0.0
 11
183.307
 21
54.6185
 31
0.0
  0
LINE
  8
0
 62
     0
 10
183.307
 20
54.6185
 30
0.0
 11
184.107
 21
54.6185
 31
0.0
  0
LINE
  8
0
 62
     0
 10
184.107
 20
54.6185
 30
0.0
 11
184.107
 21
57.7176
 31
0.0
  0
LINE
  8
0
 62
     0
 10
184.107
 20
57.7176
 30
0.0
 11
183.307
 21
57.7176
 31
0.0
  0
LINE
  8
0
 62
     0
 10
183.307
 20
57.7176
 30
0.0
 11
183.307
 21
58.7181
 31
0.0
  0
LINE
  8
0
 62
     0
 10
183.307
 20
58.7181
 30
0.0
 11
169.307
 21
58.7181
 31
0.0
  0
LINE
  8
0
 62
     0
 10
188.357
 20
58.7181
 30
0.0
 11
188.357
 21
57.7176
 31
0.0
  0
LINE
  8
0
 62
     0
 10
188.357
 20
57.7176
 30
0.0
 11
187.556
 21
57.7176
 31
0.0
  0
LINE
  8
0
 62
     0
 10
187.556
 20
57.7176
 30
0.0
 11
187.556
 21
54.6185
 31
0.0
  0
LINE
  8
0
 62
     0
 10
187.556
 20
54.6185
 30
0.0
 11
188.357
 21
54.6185
 31
0.0
  0
LINE
  8
0
 62
     0
 10
188.357
 20
54.6185
 30
0.0
 11
188.357
 21
48.8184
 31
0.0
  0
LINE
  8
0
 62
     0
 10
188.357
 20
48.8184
 30
0.0
 11
187.556
 21
48.8184
 31
0.0
  0
LINE
  8
0
 62
     0
 10
187.556
 20
48.8184
 30
0.0
 11
187.556
 21
45.7179
 31
0.0
  0
LINE
  8
0
 62
     0
 10
187.556
 20
45.7179
 30
0.0
 11
188.357
 21
45.7179
 31
0.0
  0
LINE
  8
0
 62
     0
 10
188.357
 20
45.7179
 30
0.0
 11
188.357
 21
44.7188
 31
0.0
  0
LINE
  8
0
 62
     0
 10
188.357
 20
44.7188
 30
0.0
 11
202.357
 21
44.7188
 31
0.0
  0
LINE
  8
0
 62
     0
 10
202.357
 20
44.7188
 30
0.0
 11
202.357
 21
45.7179
 31
0.0
  0
LINE
  8
0
 62
     0
 10
202.357
 20
45.7179
 30
0.0
 11
203.157
 21
45.7179
 31
0.0
  0
LINE
  8
0
 62
     0
 10
203.157
 20
45.7179
 30
0.0
 11
203.157
 21
48.8184
 31
0.0
  0
LINE
  8
0
 62
     0
 10
203.157
 20
48.8184
 30
0.0
 11
202.357
 21
48.8184
 31
0.0
  0
LINE
  8
0
 62
     0
 10
202.357
 20
48.8184
 30
0.0
 11
202.357
 21
54.6185
 31
0.0
  0
LINE
  8
0
 62
     0
 10
202.357
 20
54.6185
 30
0.0
 11
203.157
 21
54.6185
 31
0.0
  0
LINE
  8
0
 62
     0
 10
203.157
 20
54.6185
 30
0.0
 11
203.157
 21
57.7176
 31
0.0
  0
LINE
  8
0
 62
     0
 10
203.157
 20
57.7176
 30
0.0
 11
202.357
 21
57.7176
 31
0.0
  0
LINE
  8
0
 62
     0
 10
202.357
 20
57.7176
 30
0.0
 11
202.357
 21
58.7181
 31
0.0
  0
LINE
  8
0
 62
     0
 10
202.357
 20
58.7181
 30
0.0
 11
188.357
 21
58.7181
 31
0.0
  0
LINE
  8
0
 62
     0
 10
207.407
 20
58.7181
 30
0.0
 11
207.407
 21
57.7176
 31
0.0
  0
LINE
  8
0
 62
     0
 10
207.407
 20
57.7176
 30
0.0
 11
206.606
 21
57.7176
 31
0.0
  0
LINE
  8
0
 62
     0
 10
206.606
 20
57.7176
 30
0.0
 11
206.606
 21
54.6185
 31
0.0
  0
LINE
  8
0
 62
     0
 10
206.606
 20
54.6185
 30
0.0
 11
207.407
 21
54.6185
 31
0.0
  0
LINE
  8
0
 62
     0
 10
207.407
 20
54.6185
 30
0.0
 11
207.407
 21
48.8184
 31
0.0
  0
LINE
  8
0
 62
     0
 10
207.407
 20
48.8184
 30
0.0
 11
206.606
 21
48.8184
 31
0.0
  0
LINE
  8
0
 62
     0
 10
206.606
 20
48.8184
 30
0.0
 11
206.606
 21
45.7179
 31
0.0
  0
LINE
  8
0
 62
     0
 10
206.606
 20
45.7179
 30
0.0
 11
207.407
 21
45.7179
 31
0.0
  0
LINE
  8
0
 62
     0
 10
207.407
 20
45.7179
 30
0.0
 11
207.407
 21
44.7188
 31
0.0
  0
LINE
  8
0
 62
     0
 10
207.407
 20
44.7188
 30
0.0
 11
221.407
 21
44.7188
 31
0.0
  0
LINE
  8
0
 62
     0
 10
221.407
 20
44.7188
 30
0.0
 11
221.407
 21
45.7179
 31
0.0
  0
LINE
  8
0
 62
     0
 10
221.407
 20
45.7179
 30
0.0
 11
222.207
 21
45.7179
 31
0.0
  0
LINE
  8
0
 62
     0
 10
222.207
 20
45.7179
 30
0.0
 11
222.207
 21
48.8184
 31
0.0
  0
LINE
  8
0
 62
     0
 10
222.207
 20
48.8184
 30
0.0
 11
221.407
 21
48.8184
 31
0.0
  0
LINE
  8
0
 62
     0
 10
221.407
 20
48.8184
 30
0.0
 11
221.407
 21
54.6185
 31
0.0
  0
LINE
  8
0
 62
     0
 10
221.407
 20
54.6185
 30
0.0
 11
222.207
 21
54.6185
 31
0.0
  0
LINE
  8
0
 62
     0
 10
222.207
 20
54.6185
 30
0.0
 11
222.207
 21
57.7176
 31
0.0
  0
LINE
  8
0
 62
     0
 10
222.207
 20
57.7176
 30
0.0
 11
221.407
 21
57.7176
 31
0.0
  0
LINE
  8
0
 62
     0
 10
221.407
 20
57.7176
 30
0.0
 11
221.407
 21
58.7181
 31
0.0
  0
LINE
  8
0
 62
     0
 10
221.407
 20
58.7181
 30
0.0
 11
207.407
 21
58.7181
 31
0.0
  0
LINE
  8
0
 62
     0
 10
226.457
 20
58.7181
 30
0.0
 11
226.457
 21
57.7176
 31
0.0
  0
LINE
  8
0
 62
     0
 10
226.457
 20
57.7176
 30
0.0
 11
225.656
 21
57.7176
 31
0.0
  0
LINE
  8
0
 62
     0
 10
225.656
 20
57.7176
 30
0.0
 11
225.656
 21
54.6185
 31
0.0
  0
LINE
  8
0
 62
     0
 10
225.656
 20
54.6185
 30
0.0
 11
226.457
 21
54.6185
 31
0.0
  0
LINE
  8
0
 62
     0
 10
226.457
 20
54.6185
 30
0.0
 11
226.457
 21
48.8184
 31
0.0
  0
LINE
  8
0
 62
     0
 10
226.457
 20
48.8184
 30
0.0
 11
225.656
 21
48.8184
 31
0.0
  0
LINE
  8
0
 62
     0
 10
225.656
 20
48.8184
 30
0.0
 11
225.656
 21
45.7179
 31
0.0
  0
LINE
  8
0
 62
     0
 10
225.656
 20
45.7179
 30
0.0
 11
226.457
 21
45.7179
 31
0.0
  0
LINE
  8
0
 62
     0
 10
226.457
 20
45.7179
 30
0.0
 11
226.457
 21
44.7188
 31
0.0
  0
LINE
  8
0
 62
     0
 10
226.457
 20
44.7188
 30
0.0
 11
240.457
 21
44.7188
 31
0.0
  0
LINE
  8
0
 62
     0
 10
240.457
 20
44.7188
 30
0.0
 11
240.457
 21
45.7179
 31
0.0
  0
LINE
  8
0
 62
     0
 10
240.457
 20
45.7179
 30
0.0
 11
241.257
 21
45.7179
 31
0.0
  0
LINE
  8
0
 62
     0
 10
241.257
 20
45.7179
 30
0.0
 11
241.257
 21
48.8184
 31
0.0
  0
LINE
  8
0
 62
     0
 10
241.257
 20
48.8184
 30
0.0
 11
240.457
 21
48.8184
 31
0.0
  0
LINE
  8
0
 62
     0
 10
240.457
 20
48.8184
 30
0.0
 11
240.457
 21
54.6185
 31
0.0
  0
LINE
  8
0
 62
     0
 10
240.457
 20
54.6185
 30
0.0
 11
241.257
 21
54.6185
 31
0.0
  0
LINE
  8
0
 62
     0
 10
241.257
 20
54.6185
 30
0.0
 11
241.257
 21
57.7176
 31
0.0
  0
LINE
  8
0
 62
     0
 10
241.257
 20
57.7176
 30
0.0
 11
240.457
 21
57.7176
 31
0.0
  0
LINE
  8
0
 62
     0
 10
240.457
 20
57.7176
 30
0.0
 11
240.457
 21
58.7181
 31
0.0
  0
LINE
  8
0
 62
     0
 10
240.457
 20
58.7181
 30
0.0
 11
226.457
 21
58.7181
 31
0.0
  0
LINE
  8
0
 62
     0
 10
7.38216
 20
77.7681
 30
0.0
 11
7.38216
 21
76.7676
 31
0.0
  0
LINE
  8
0
 62
     0
 10
7.38216
 20
76.7676
 30
0.0
 11
6.58153
 21
76.7676
 31
0.0
  0
LINE
  8
0
 62
     0
 10
6.58153
 20
76.7676
 30
0.0
 11
6.58153
 21
73.6685
 31
0.0
  0
LINE
  8
0
 62
     0
 10
6.58153
 20
73.6685
 30
0.0
 11
7.38216
 21
73.6685
 31
0.0
  0
LINE
  8
0
 62
     0
 10
7.38216
 20
73.6685
 30
0.0
 11
7.38216
 21
67.8684
 31
0.0
  0
LINE
  8
0
 62
     0
 10
7.38216
 20
67.8684
 30
0.0
 11
6.58153
 21
67.8684
 31
0.0
  0
LINE
  8
0
 62
     0
 10
6.58153
 20
67.8684
 30
0.0
 11
6.58153
 21
64.7679
 31
0.0
  0
LINE
  8
0
 62
     0
 10
6.58153
 20
64.7679
 30
0.0
 11
7.38216
 21
64.7679
 31
0.0
  0
LINE
  8
0
 62
     0
 10
7.38216
 20
64.7679
 30
0.0
 11
7.38216
 21
63.7688
 31
0.0
  0
LINE
  8
0
 62
     0
 10
7.38216
 20
63.7688
 30
0.0
 11
21.3817
 21
63.7688
 31
0.0
  0
LINE
  8
0
 62
     0
 10
21.3817
 20
63.7688
 30
0.0
 11
21.3817
 21
64.7679
 31
0.0
  0
LINE
  8
0
 62
     0
 10
21.3817
 20
64.7679
 30
0.0
 11
22.1823
 21
64.7679
 31
0.0
  0
LINE
  8
0
 62
     0
 10
22.1823
 20
64.7679
 30
0.0
 11
22.1823
 21
67.8684
 31
0.0
  0
LINE
  8
0
 62
     0
 10
22.1823
 20
67.8684
 30
0.0
 11
21.3817
 21
67.8684
 31
0.0
  0
LINE
  8
0
 62
     0
 10
21.3817
 20
67.8684
 30
0.0
 11
21.3817
 21
73.6685
 31
0.0
  0
LINE
  8
0
 62
     0
 10
21.3817
 20
73.6685
 30
0.0
 11
22.1823
 21
73.6685
 31
0.0
  0
LINE
  8
0
 62
     0
 10
22.1823
 20
73.6685
 30
0.0
 11
22.1823
 21
76.7676
 31
0.0
  0
LINE
  8
0
 62
     0
 10
22.1823
 20
76.7676
 30
0.0
 11
21.3817
 21
76.7676
 31
0.0
  0
LINE
  8
0
 62
     0
 10
21.3817
 20
76.7676
 30
0.0
 11
21.3817
 21
77.7681
 31
0.0
  0
LINE
  8
0
 62
     0
 10
21.3817
 20
77.7681
 30
0.0
 11
7.38216
 21
77.7681
 31
0.0
  0
LINE
  8
0
 62
     0
 10
31.1947
 20
77.7681
 30
0.0
 11
31.1947
 21
76.7676
 31
0.0
  0
LINE
  8
0
 62
     0
 10
31.1947
 20
76.7676
 30
0.0
 11
30.3954
 21
76.7676
 31
0.0
  0
LINE
  8
0
 62
     0
 10
30.3954
 20
76.7676
 30
0.0
 11
30.3954
 21
73.6685
 31
0.0
  0
LINE
  8
0
 62
     0
 10
30.3954
 20
73.6685
 30
0.0
 11
31.1947
 21
73.6685
 31
0.0
  0
LINE
  8
0
 62
     0
 10
31.1947
 20
73.6685
 30
0.0
 11
31.1947
 21
67.8684
 31
0.0
  0
LINE
  8
0
 62
     0
 10
31.1947
 20
67.8684
 30
0.0
 11
30.3954
 21
67.8684
 31
0.0
  0
LINE
  8
0
 62
     0
 10
30.3954
 20
67.8684
 30
0.0
 11
30.3954
 21
64.7679
 31
0.0
  0
LINE
  8
0
 62
     0
 10
30.3954
 20
64.7679
 30
0.0
 11
31.1947
 21
64.7679
 31
0.0
  0
LINE
  8
0
 62
     0
 10
31.1947
 20
64.7679
 30
0.0
 11
31.1947
 21
63.7688
 31
0.0
  0
LINE
  8
0
 62
     0
 10
31.1947
 20
63.7688
 30
0.0
 11
45.194
 21
63.7688
 31
0.0
  0
LINE
  8
0
 62
     0
 10
45.194
 20
63.7688
 30
0.0
 11
45.194
 21
64.7679
 31
0.0
  0
LINE
  8
0
 62
     0
 10
45.194
 20
64.7679
 30
0.0
 11
45.9948
 21
64.7679
 31
0.0
  0
LINE
  8
0
 62
     0
 10
45.9948
 20
64.7679
 30
0.0
 11
45.9948
 21
67.8684
 31
0.0
  0
LINE
  8
0
 62
     0
 10
45.9948
 20
67.8684
 30
0.0
 11
45.194
 21
67.8684
 31
0.0
  0
LINE
  8
0
 62
     0
 10
45.194
 20
67.8684
 30
0.0
 11
45.194
 21
73.6685
 31
0.0
  0
LINE
  8
0
 62
     0
 10
45.194
 20
73.6685
 30
0.0
 11
45.9948
 21
73.6685
 31
0.0
  0
LINE
  8
0
 62
     0
 10
45.9948
 20
73.6685
 30
0.0
 11
45.9948
 21
76.7676
 31
0.0
  0
LINE
  8
0
 62
     0
 10
45.9948
 20
76.7676
 30
0.0
 11
45.194
 21
76.7676
 31
0.0
  0
LINE
  8
0
 62
     0
 10
45.194
 20
76.7676
 30
0.0
 11
45.194
 21
77.7681
 31
0.0
  0
LINE
  8
0
 62
     0
 10
45.194
 20
77.7681
 30
0.0
 11
31.1947
 21
77.7681
 31
0.0
  0
LINE
  8
0
 62
     0
 10
50.2447
 20
77.7681
 30
0.0
 11
50.2447
 21
76.7676
 31
0.0
  0
LINE
  8
0
 62
     0
 10
50.2447
 20
76.7676
 30
0.0
 11
49.4453
 21
76.7676
 31
0.0
  0
LINE
  8
0
 62
     0
 10
49.4453
 20
76.7676
 30
0.0
 11
49.4453
 21
73.6685
 31
0.0
  0
LINE
  8
0
 62
     0
 10
49.4453
 20
73.6685
 30
0.0
 11
50.2447
 21
73.6685
 31
0.0
  0
LINE
  8
0
 62
     0
 10
50.2447
 20
73.6685
 30
0.0
 11
50.2447
 21
67.8684
 31
0.0
  0
LINE
  8
0
 62
     0
 10
50.2447
 20
67.8684
 30
0.0
 11
49.4453
 21
67.8684
 31
0.0
  0
LINE
  8
0
 62
     0
 10
49.4453
 20
67.8684
 30
0.0
 11
49.4453
 21
64.7679
 31
0.0
  0
LINE
  8
0
 62
     0
 10
49.4453
 20
64.7679
 30
0.0
 11
50.2447
 21
64.7679
 31
0.0
  0
LINE
  8
0
 62
     0
 10
50.2447
 20
64.7679
 30
0.0
 11
50.2447
 21
63.7688
 31
0.0
  0
LINE
  8
0
 62
     0
 10
50.2447
 20
63.7688
 30
0.0
 11
64.244
 21
63.7688
 31
0.0
  0
LINE
  8
0
 62
     0
 10
64.244
 20
63.7688
 30
0.0
 11
64.244
 21
64.7679
 31
0.0
  0
LINE
  8
0
 62
     0
 10
64.244
 20
64.7679
 30
0.0
 11
65.0448
 21
64.7679
 31
0.0
  0
LINE
  8
0
 62
     0
 10
65.0448
 20
64.7679
 30
0.0
 11
65.0448
 21
67.8684
 31
0.0
  0
LINE
  8
0
 62
     0
 10
65.0448
 20
67.8684
 30
0.0
 11
64.244
 21
67.8684
 31
0.0
  0
LINE
  8
0
 62
     0
 10
64.244
 20
67.8684
 30
0.0
 11
64.244
 21
73.6685
 31
0.0
  0
LINE
  8
0
 62
     0
 10
64.244
 20
73.6685
 30
0.0
 11
65.0448
 21
73.6685
 31
0.0
  0
LINE
  8
0
 62
     0
 10
65.0448
 20
73.6685
 30
0.0
 11
65.0448
 21
76.7676
 31
0.0
  0
LINE
  8
0
 62
     0
 10
65.0448
 20
76.7676
 30
0.0
 11
64.244
 21
76.7676
 31
0.0
  0
LINE
  8
0
 62
     0
 10
64.244
 20
76.7676
 30
0.0
 11
64.244
 21
77.7681
 31
0.0
  0
LINE
  8
0
 62
     0
 10
64.244
 20
77.7681
 30
0.0
 11
50.2447
 21
77.7681
 31
0.0
  0
LINE
  8
0
 62
     0
 10
69.2947
 20
77.7681
 30
0.0
 11
69.2947
 21
76.7676
 31
0.0
  0
LINE
  8
0
 62
     0
 10
69.2947
 20
76.7676
 30
0.0
 11
68.4953
 21
76.7676
 31
0.0
  0
LINE
  8
0
 62
     0
 10
68.4953
 20
76.7676
 30
0.0
 11
68.4953
 21
73.6685
 31
0.0
  0
LINE
  8
0
 62
     0
 10
68.4953
 20
73.6685
 30
0.0
 11
69.2947
 21
73.6685
 31
0.0
  0
LINE
  8
0
 62
     0
 10
69.2947
 20
73.6685
 30
0.0
 11
69.2947
 21
67.8684
 31
0.0
  0
LINE
  8
0
 62
     0
 10
69.2947
 20
67.8684
 30
0.0
 11
68.4953
 21
67.8684
 31
0.0
  0
LINE
  8
0
 62
     0
 10
68.4953
 20
67.8684
 30
0.0
 11
68.4953
 21
64.7679
 31
0.0
  0
LINE
  8
0
 62
     0
 10
68.4953
 20
64.7679
 30
0.0
 11
69.2947
 21
64.7679
 31
0.0
  0
LINE
  8
0
 62
     0
 10
69.2947
 20
64.7679
 30
0.0
 11
69.2947
 21
63.7688
 31
0.0
  0
LINE
  8
0
 62
     0
 10
69.2947
 20
63.7688
 30
0.0
 11
83.294
 21
63.7688
 31
0.0
  0
LINE
  8
0
 62
     0
 10
83.294
 20
63.7688
 30
0.0
 11
83.294
 21
64.7679
 31
0.0
  0
LINE
  8
0
 62
     0
 10
83.294
 20
64.7679
 30
0.0
 11
84.0948
 21
64.7679
 31
0.0
  0
LINE
  8
0
 62
     0
 10
84.0948
 20
64.7679
 30
0.0
 11
84.0948
 21
67.8684
 31
0.0
  0
LINE
  8
0
 62
     0
 10
84.0948
 20
67.8684
 30
0.0
 11
83.294
 21
67.8684
 31
0.0
  0
LINE
  8
0
 62
     0
 10
83.294
 20
67.8684
 30
0.0
 11
83.294
 21
73.6685
 31
0.0
  0
LINE
  8
0
 62
     0
 10
83.294
 20
73.6685
 30
0.0
 11
84.0948
 21
73.6685
 31
0.0
  0
LINE
  8
0
 62
     0
 10
84.0948
 20
73.6685
 30
0.0
 11
84.0948
 21
76.7676
 31
0.0
  0
LINE
  8
0
 62
     0
 10
84.0948
 20
76.7676
 30
0.0
 11
83.294
 21
76.7676
 31
0.0
  0
LINE
  8
0
 62
     0
 10
83.294
 20
76.7676
 30
0.0
 11
83.294
 21
77.7681
 31
0.0
  0
LINE
  8
0
 62
     0
 10
83.294
 20
77.7681
 30
0.0
 11
69.2947
 21
77.7681
 31
0.0
  0
LINE
  8
0
 62
     0
 10
88.3447
 20
77.7681
 30
0.0
 11
88.3447
 21
76.7676
 31
0.0
  0
LINE
  8
0
 62
     0
 10
88.3447
 20
76.7676
 30
0.0
 11
87.5453
 21
76.7676
 31
0.0
  0
LINE
  8
0
 62
     0
 10
87.5453
 20
76.7676
 30
0.0
 11
87.5453
 21
73.6685
 31
0.0
  0
LINE
  8
0
 62
     0
 10
87.5453
 20
73.6685
 30
0.0
 11
88.3447
 21
73.6685
 31
0.0
  0
LINE
  8
0
 62
     0
 10
88.3447
 20
73.6685
 30
0.0
 11
88.3447
 21
67.8684
 31
0.0
  0
LINE
  8
0
 62
     0
 10
88.3447
 20
67.8684
 30
0.0
 11
87.5453
 21
67.8684
 31
0.0
  0
LINE
  8
0
 62
     0
 10
87.5453
 20
67.8684
 30
0.0
 11
87.5453
 21
64.7679
 31
0.0
  0
LINE
  8
0
 62
     0
 10
87.5453
 20
64.7679
 30
0.0
 11
88.3447
 21
64.7679
 31
0.0
  0
LINE
  8
0
 62
     0
 10
88.3447
 20
64.7679
 30
0.0
 11
88.3447
 21
63.7688
 31
0.0
  0
LINE
  8
0
 62
     0
 10
88.3447
 20
63.7688
 30
0.0
 11
102.344
 21
63.7688
 31
0.0
  0
LINE
  8
0
 62
     0
 10
102.344
 20
63.7688
 30
0.0
 11
102.344
 21
64.7679
 31
0.0
  0
LINE
  8
0
 62
     0
 10
102.344
 20
64.7679
 30
0.0
 11
103.145
 21
64.7679
 31
0.0
  0
LINE
  8
0
 62
     0
 10
103.145
 20
64.7679
 30
0.0
 11
103.145
 21
67.8684
 31
0.0
  0
LINE
  8
0
 62
     0
 10
103.145
 20
67.8684
 30
0.0
 11
102.344
 21
67.8684
 31
0.0
  0
LINE
  8
0
 62
     0
 10
102.344
 20
67.8684
 30
0.0
 11
102.344
 21
73.6685
 31
0.0
  0
LINE
  8
0
 62
     0
 10
102.344
 20
73.6685
 30
0.0
 11
103.145
 21
73.6685
 31
0.0
  0
LINE
  8
0
 62
     0
 10
103.145
 20
73.6685
 30
0.0
 11
103.145
 21
76.7676
 31
0.0
  0
LINE
  8
0
 62
     0
 10
103.145
 20
76.7676
 30
0.0
 11
102.344
 21
76.7676
 31
0.0
  0
LINE
  8
0
 62
     0
 10
102.344
 20
76.7676
 30
0.0
 11
102.344
 21
77.7681
 31
0.0
  0
LINE
  8
0
 62
     0
 10
102.344
 20
77.7681
 30
0.0
 11
88.3447
 21
77.7681
 31
0.0
  0
LINE
  8
0
 62
     0
 10
107.395
 20
77.7681
 30
0.0
 11
107.395
 21
76.7676
 31
0.0
  0
LINE
  8
0
 62
     0
 10
107.395
 20
76.7676
 30
0.0
 11
106.595
 21
76.7676
 31
0.0
  0
LINE
  8
0
 62
     0
 10
106.595
 20
76.7676
 30
0.0
 11
106.595
 21
73.6685
 31
0.0
  0
LINE
  8
0
 62
     0
 10
106.595
 20
73.6685
 30
0.0
 11
107.395
 21
73.6685
 31
0.0
  0
LINE
  8
0
 62
     0
 10
107.395
 20
73.6685
 30
0.0
 11
107.395
 21
67.8684
 31
0.0
  0
LINE
  8
0
 62
     0
 10
107.395
 20
67.8684
 30
0.0
 11
106.595
 21
67.8684
 31
0.0
  0
LINE
  8
0
 62
     0
 10
106.595
 20
67.8684
 30
0.0
 11
106.595
 21
64.7679
 31
0.0
  0
LINE
  8
0
 62
     0
 10
106.595
 20
64.7679
 30
0.0
 11
107.395
 21
64.7679
 31
0.0
  0
LINE
  8
0
 62
     0
 10
107.395
 20
64.7679
 30
0.0
 11
107.395
 21
63.7688
 31
0.0
  0
LINE
  8
0
 62
     0
 10
107.395
 20
63.7688
 30
0.0
 11
121.394
 21
63.7688
 31
0.0
  0
LINE
  8
0
 62
     0
 10
121.394
 20
63.7688
 30
0.0
 11
121.394
 21
64.7679
 31
0.0
  0
LINE
  8
0
 62
     0
 10
121.394
 20
64.7679
 30
0.0
 11
122.195
 21
64.7679
 31
0.0
  0
LINE
  8
0
 62
     0
 10
122.195
 20
64.7679
 30
0.0
 11
122.195
 21
67.8684
 31
0.0
  0
LINE
  8
0
 62
     0
 10
122.195
 20
67.8684
 30
0.0
 11
121.394
 21
67.8684
 31
0.0
  0
LINE
  8
0
 62
     0
 10
121.394
 20
67.8684
 30
0.0
 11
121.394
 21
73.6685
 31
0.0
  0
LINE
  8
0
 62
     0
 10
121.394
 20
73.6685
 30
0.0
 11
122.195
 21
73.6685
 31
0.0
  0
LINE
  8
0
 62
     0
 10
122.195
 20
73.6685
 30
0.0
 11
122.195
 21
76.7676
 31
0.0
  0
LINE
  8
0
 62
     0
 10
122.195
 20
76.7676
 30
0.0
 11
121.394
 21
76.7676
 31
0.0
  0
LINE
  8
0
 62
     0
 10
121.394
 20
76.7676
 30
0.0
 11
121.394
 21
77.7681
 31
0.0
  0
LINE
  8
0
 62
     0
 10
121.394
 20
77.7681
 30
0.0
 11
107.395
 21
77.7681
 31
0.0
  0
LINE
  8
0
 62
     0
 10
126.445
 20
77.7681
 30
0.0
 11
126.445
 21
76.7676
 31
0.0
  0
LINE
  8
0
 62
     0
 10
126.445
 20
76.7676
 30
0.0
 11
125.644
 21
76.7676
 31
0.0
  0
LINE
  8
0
 62
     0
 10
125.644
 20
76.7676
 30
0.0
 11
125.644
 21
73.6685
 31
0.0
  0
LINE
  8
0
 62
     0
 10
125.644
 20
73.6685
 30
0.0
 11
126.445
 21
73.6685
 31
0.0
  0
LINE
  8
0
 62
     0
 10
126.445
 20
73.6685
 30
0.0
 11
126.445
 21
67.8684
 31
0.0
  0
LINE
  8
0
 62
     0
 10
126.445
 20
67.8684
 30
0.0
 11
125.644
 21
67.8684
 31
0.0
  0
LINE
  8
0
 62
     0
 10
125.644
 20
67.8684
 30
0.0
 11
125.644
 21
64.7679
 31
0.0
  0
LINE
  8
0
 62
     0
 10
125.644
 20
64.7679
 30
0.0
 11
126.445
 21
64.7679
 31
0.0
  0
LINE
  8
0
 62
     0
 10
126.445
 20
64.7679
 30
0.0
 11
126.445
 21
63.7688
 31
0.0
  0
LINE
  8
0
 62
     0
 10
126.445
 20
63.7688
 30
0.0
 11
140.444
 21
63.7688
 31
0.0
  0
LINE
  8
0
 62
     0
 10
140.444
 20
63.7688
 30
0.0
 11
140.444
 21
64.7679
 31
0.0
  0
LINE
  8
0
 62
     0
 10
140.444
 20
64.7679
 30
0.0
 11
141.245
 21
64.7679
 31
0.0
  0
LINE
  8
0
 62
     0
 10
141.245
 20
64.7679
 30
0.0
 11
141.245
 21
67.8684
 31
0.0
  0
LINE
  8
0
 62
     0
 10
141.245
 20
67.8684
 30
0.0
 11
140.444
 21
67.8684
 31
0.0
  0
LINE
  8
0
 62
     0
 10
140.444
 20
67.8684
 30
0.0
 11
140.444
 21
73.6685
 31
0.0
  0
LINE
  8
0
 62
     0
 10
140.444
 20
73.6685
 30
0.0
 11
141.245
 21
73.6685
 31
0.0
  0
LINE
  8
0
 62
     0
 10
141.245
 20
73.6685
 30
0.0
 11
141.245
 21
76.7676
 31
0.0
  0
LINE
  8
0
 62
     0
 10
141.245
 20
76.7676
 30
0.0
 11
140.444
 21
76.7676
 31
0.0
  0
LINE
  8
0
 62
     0
 10
140.444
 20
76.7676
 30
0.0
 11
140.444
 21
77.7681
 31
0.0
  0
LINE
  8
0
 62
     0
 10
140.444
 20
77.7681
 30
0.0
 11
126.445
 21
77.7681
 31
0.0
  0
LINE
  8
0
 62
     0
 10
145.495
 20
77.7681
 30
0.0
 11
145.495
 21
76.7676
 31
0.0
  0
LINE
  8
0
 62
     0
 10
145.495
 20
76.7676
 30
0.0
 11
144.695
 21
76.7676
 31
0.0
  0
LINE
  8
0
 62
     0
 10
144.695
 20
76.7676
 30
0.0
 11
144.695
 21
73.6685
 31
0.0
  0
LINE
  8
0
 62
     0
 10
144.695
 20
73.6685
 30
0.0
 11
145.495
 21
73.6685
 31
0.0
  0
LINE
  8
0
 62
     0
 10
145.495
 20
73.6685
 30
0.0
 11
145.495
 21
67.8684
 31
0.0
  0
LINE
  8
0
 62
     0
 10
145.495
 20
67.8684
 30
0.0
 11
144.695
 21
67.8684
 31
0.0
  0
LINE
  8
0
 62
     0
 10
144.695
 20
67.8684
 30
0.0
 11
144.695
 21
64.7679
 31
0.0
  0
LINE
  8
0
 62
     0
 10
144.695
 20
64.7679
 30
0.0
 11
145.495
 21
64.7679
 31
0.0
  0
LINE
  8
0
 62
     0
 10
145.495
 20
64.7679
 30
0.0
 11
145.495
 21
63.7688
 31
0.0
  0
LINE
  8
0
 62
     0
 10
145.495
 20
63.7688
 30
0.0
 11
159.494
 21
63.7688
 31
0.0
  0
LINE
  8
0
 62
     0
 10
159.494
 20
63.7688
 30
0.0
 11
159.494
 21
64.7679
 31
0.0
  0
LINE
  8
0
 62
     0
 10
159.494
 20
64.7679
 30
0.0
 11
160.295
 21
64.7679
 31
0.0
  0
LINE
  8
0
 62
     0
 10
160.295
 20
64.7679
 30
0.0
 11
160.295
 21
67.8684
 31
0.0
  0
LINE
  8
0
 62
     0
 10
160.295
 20
67.8684
 30
0.0
 11
159.494
 21
67.8684
 31
0.0
  0
LINE
  8
0
 62
     0
 10
159.494
 20
67.8684
 30
0.0
 11
159.494
 21
73.6685
 31
0.0
  0
LINE
  8
0
 62
     0
 10
159.494
 20
73.6685
 30
0.0
 11
160.295
 21
73.6685
 31
0.0
  0
LINE
  8
0
 62
     0
 10
160.295
 20
73.6685
 30
0.0
 11
160.295
 21
76.7676
 31
0.0
  0
LINE
  8
0
 62
     0
 10
160.295
 20
76.7676
 30
0.0
 11
159.494
 21
76.7676
 31
0.0
  0
LINE
  8
0
 62
     0
 10
159.494
 20
76.7676
 30
0.0
 11
159.494
 21
77.7681
 31
0.0
  0
LINE
  8
0
 62
     0
 10
159.494
 20
77.7681
 30
0.0
 11
145.495
 21
77.7681
 31
0.0
  0
LINE
  8
0
 62
     0
 10
164.545
 20
77.7681
 30
0.0
 11
164.545
 21
76.7676
 31
0.0
  0
LINE
  8
0
 62
     0
 10
164.545
 20
76.7676
 30
0.0
 11
163.745
 21
76.7676
 31
0.0
  0
LINE
  8
0
 62
     0
 10
163.745
 20
76.7676
 30
0.0
 11
163.745
 21
73.6685
 31
0.0
  0
LINE
  8
0
 62
     0
 10
163.745
 20
73.6685
 30
0.0
 11
164.545
 21
73.6685
 31
0.0
  0
LINE
  8
0
 62
     0
 10
164.545
 20
73.6685
 30
0.0
 11
164.545
 21
67.8684
 31
0.0
  0
LINE
  8
0
 62
     0
 10
164.545
 20
67.8684
 30
0.0
 11
163.745
 21
67.8684
 31
0.0
  0
LINE
  8
0
 62
     0
 10
163.745
 20
67.8684
 30
0.0
 11
163.745
 21
64.7679
 31
0.0
  0
LINE
  8
0
 62
     0
 10
163.745
 20
64.7679
 30
0.0
 11
164.545
 21
64.7679
 31
0.0
  0
LINE
  8
0
 62
     0
 10
164.545
 20
64.7679
 30
0.0
 11
164.545
 21
63.7688
 31
0.0
  0
LINE
  8
0
 62
     0
 10
164.545
 20
63.7688
 30
0.0
 11
178.544
 21
63.7688
 31
0.0
  0
LINE
  8
0
 62
     0
 10
178.544
 20
63.7688
 30
0.0
 11
178.544
 21
64.7679
 31
0.0
  0
LINE
  8
0
 62
     0
 10
178.544
 20
64.7679
 30
0.0
 11
179.345
 21
64.7679
 31
0.0
  0
LINE
  8
0
 62
     0
 10
179.345
 20
64.7679
 30
0.0
 11
179.345
 21
67.8684
 31
0.0
  0
LINE
  8
0
 62
     0
 10
179.345
 20
67.8684
 30
0.0
 11
178.544
 21
67.8684
 31
0.0
  0
LINE
  8
0
 62
     0
 10
178.544
 20
67.8684
 30
0.0
 11
178.544
 21
73.6685
 31
0.0
  0
LINE
  8
0
 62
     0
 10
178.544
 20
73.6685
 30
0.0
 11
179.345
 21
73.6685
 31
0.0
  0
LINE
  8
0
 62
     0
 10
179.345
 20
73.6685
 30
0.0
 11
179.345
 21
76.7676
 31
0.0
  0
LINE
  8
0
 62
     0
 10
179.345
 20
76.7676
 30
0.0
 11
178.544
 21
76.7676
 31
0.0
  0
LINE
  8
0
 62
     0
 10
178.544
 20
76.7676
 30
0.0
 11
178.544
 21
77.7681
 31
0.0
  0
LINE
  8
0
 62
     0
 10
178.544
 20
77.7681
 30
0.0
 11
164.545
 21
77.7681
 31
0.0
  0
LINE
  8
0
 62
     0
 10
183.595
 20
77.7681
 30
0.0
 11
183.595
 21
76.7676
 31
0.0
  0
LINE
  8
0
 62
     0
 10
183.595
 20
76.7676
 30
0.0
 11
182.795
 21
76.7676
 31
0.0
  0
LINE
  8
0
 62
     0
 10
182.795
 20
76.7676
 30
0.0
 11
182.795
 21
73.6685
 31
0.0
  0
LINE
  8
0
 62
     0
 10
182.795
 20
73.6685
 30
0.0
 11
183.595
 21
73.6685
 31
0.0
  0
LINE
  8
0
 62
     0
 10
183.595
 20
73.6685
 30
0.0
 11
183.595
 21
67.8684
 31
0.0
  0
LINE
  8
0
 62
     0
 10
183.595
 20
67.8684
 30
0.0
 11
182.795
 21
67.8684
 31
0.0
  0
LINE
  8
0
 62
     0
 10
182.795
 20
67.8684
 30
0.0
 11
182.795
 21
64.7679
 31
0.0
  0
LINE
  8
0
 62
     0
 10
182.795
 20
64.7679
 30
0.0
 11
183.595
 21
64.7679
 31
0.0
  0
LINE
  8
0
 62
     0
 10
183.595
 20
64.7679
 30
0.0
 11
183.595
 21
63.7688
 31
0.0
  0
LINE
  8
0
 62
     0
 10
183.595
 20
63.7688
 30
0.0
 11
197.594
 21
63.7688
 31
0.0
  0
LINE
  8
0
 62
     0
 10
197.594
 20
63.7688
 30
0.0
 11
197.594
 21
64.7679
 31
0.0
  0
LINE
  8
0
 62
     0
 10
197.594
 20
64.7679
 30
0.0
 11
198.395
 21
64.7679
 31
0.0
  0
LINE
  8
0
 62
     0
 10
198.395
 20
64.7679
 30
0.0
 11
198.395
 21
67.8684
 31
0.0
  0
LINE
  8
0
 62
     0
 10
198.395
 20
67.8684
 30
0.0
 11
197.594
 21
67.8684
 31
0.0
  0
LINE
  8
0
 62
     0
 10
197.594
 20
67.8684
 30
0.0
 11
197.594
 21
73.6685
 31
0.0
  0
LINE
  8
0
 62
     0
 10
197.594
 20
73.6685
 30
0.0
 11
198.395
 21
73.6685
 31
0.0
  0
LINE
  8
0
 62
     0
 10
198.395
 20
73.6685
 30
0.0
 11
198.395
 21
76.7676
 31
0.0
  0
LINE
  8
0
 62
     0
 10
198.395
 20
76.7676
 30
0.0
 11
197.594
 21
76.7676
 31
0.0
  0
LINE
  8
0
 62
     0
 10
197.594
 20
76.7676
 30
0.0
 11
197.594
 21
77.7681
 31
0.0
  0
LINE
  8
0
 62
     0
 10
197.594
 20
77.7681
 30
0.0
 11
183.595
 21
77.7681
 31
0.0
  0
LINE
  8
0
 62
     0
 10
202.645
 20
77.7681
 30
0.0
 11
202.645
 21
76.7676
 31
0.0
  0
LINE
  8
0
 62
     0
 10
202.645
 20
76.7676
 30
0.0
 11
201.845
 21
76.7676
 31
0.0
  0
LINE
  8
0
 62
     0
 10
201.845
 20
76.7676
 30
0.0
 11
201.845
 21
73.6685
 31
0.0
  0
LINE
  8
0
 62
     0
 10
201.845
 20
73.6685
 30
0.0
 11
202.645
 21
73.6685
 31
0.0
  0
LINE
  8
0
 62
     0
 10
202.645
 20
73.6685
 30
0.0
 11
202.645
 21
67.8684
 31
0.0
  0
LINE
  8
0
 62
     0
 10
202.645
 20
67.8684
 30
0.0
 11
201.845
 21
67.8684
 31
0.0
  0
LINE
  8
0
 62
     0
 10
201.845
 20
67.8684
 30
0.0
 11
201.845
 21
64.7679
 31
0.0
  0
LINE
  8
0
 62
     0
 10
201.845
 20
64.7679
 30
0.0
 11
202.645
 21
64.7679
 31
0.0
  0
LINE
  8
0
 62
     0
 10
202.645
 20
64.7679
 30
0.0
 11
202.645
 21
63.7688
 31
0.0
  0
LINE
  8
0
 62
     0
 10
202.645
 20
63.7688
 30
0.0
 11
216.644
 21
63.7688
 31
0.0
  0
LINE
  8
0
 62
     0
 10
216.644
 20
63.7688
 30
0.0
 11
216.644
 21
64.7679
 31
0.0
  0
LINE
  8
0
 62
     0
 10
216.644
 20
64.7679
 30
0.0
 11
217.445
 21
64.7679
 31
0.0
  0
LINE
  8
0
 62
     0
 10
217.445
 20
64.7679
 30
0.0
 11
217.445
 21
67.8684
 31
0.0
  0
LINE
  8
0
 62
     0
 10
217.445
 20
67.8684
 30
0.0
 11
216.644
 21
67.8684
 31
0.0
  0
LINE
  8
0
 62
     0
 10
216.644
 20
67.8684
 30
0.0
 11
216.644
 21
73.6685
 31
0.0
  0
LINE
  8
0
 62
     0
 10
216.644
 20
73.6685
 30
0.0
 11
217.445
 21
73.6685
 31
0.0
  0
LINE
  8
0
 62
     0
 10
217.445
 20
73.6685
 30
0.0
 11
217.445
 21
76.7676
 31
0.0
  0
LINE
  8
0
 62
     0
 10
217.445
 20
76.7676
 30
0.0
 11
216.644
 21
76.7676
 31
0.0
  0
LINE
  8
0
 62
     0
 10
216.644
 20
76.7676
 30
0.0
 11
216.644
 21
77.7681
 31
0.0
  0
LINE
  8
0
 62
     0
 10
216.644
 20
77.7681
 30
0.0
 11
202.645
 21
77.7681
 31
0.0
  0
LINE
  8
0
 62
     0
 10
221.695
 20
77.7681
 30
0.0
 11
221.695
 21
76.7676
 31
0.0
  0
LINE
  8
0
 62
     0
 10
221.695
 20
76.7676
 30
0.0
 11
220.895
 21
76.7676
 31
0.0
  0
LINE
  8
0
 62
     0
 10
220.895
 20
76.7676
 30
0.0
 11
220.895
 21
73.6685
 31
0.0
  0
LINE
  8
0
 62
     0
 10
220.895
 20
73.6685
 30
0.0
 11
221.695
 21
73.6685
 31
0.0
  0
LINE
  8
0
 62
     0
 10
221.695
 20
73.6685
 30
0.0
 11
221.695
 21
67.8684
 31
0.0
  0
LINE
  8
0
 62
     0
 10
221.695
 20
67.8684
 30
0.0
 11
220.895
 21
67.8684
 31
0.0
  0
LINE
  8
0
 62
     0
 10
220.895
 20
67.8684
 30
0.0
 11
220.895
 21
64.7679
 31
0.0
  0
LINE
  8
0
 62
     0
 10
220.895
 20
64.7679
 30
0.0
 11
221.695
 21
64.7679
 31
0.0
  0
LINE
  8
0
 62
     0
 10
221.695
 20
64.7679
 30
0.0
 11
221.695
 21
63.7688
 31
0.0
  0
LINE
  8
0
 62
     0
 10
221.695
 20
63.7688
 30
0.0
 11
235.694
 21
63.7688
 31
0.0
  0
LINE
  8
0
 62
     0
 10
235.694
 20
63.7688
 30
0.0
 11
235.694
 21
64.7679
 31
0.0
  0
LINE
  8
0
 62
     0
 10
235.694
 20
64.7679
 30
0.0
 11
236.495
 21
64.7679
 31
0.0
  0
LINE
  8
0
 62
     0
 10
236.495
 20
64.7679
 30
0.0
 11
236.495
 21
67.8684
 31
0.0
  0
LINE
  8
0
 62
     0
 10
236.495
 20
67.8684
 30
0.0
 11
235.694
 21
67.8684
 31
0.0
  0
LINE
  8
0
 62
     0
 10
235.694
 20
67.8684
 30
0.0
 11
235.694
 21
73.6685
 31
0.0
  0
LINE
  8
0
 62
     0
 10
235.694
 20
73.6685
 30
0.0
 11
236.495
 21
73.6685
 31
0.0
  0
LINE
  8
0
 62
     0
 10
236.495
 20
73.6685
 30
0.0
 11
236.495
 21
76.7676
 31
0.0
  0
LINE
  8
0
 62
     0
 10
236.495
 20
76.7676
 30
0.0
 11
235.694
 21
76.7676
 31
0.0
  0
LINE
  8
0
 62
     0
 10
235.694
 20
76.7676
 30
0.0
 11
235.694
 21
77.7681
 31
0.0
  0
LINE
  8
0
 62
     0
 10
235.694
 20
77.7681
 30
0.0
 11
221.695
 21
77.7681
 31
0.0
  0
LINE
  8
0
 62
     0
 10
240.745
 20
77.7681
 30
0.0
 11
240.745
 21
76.7676
 31
0.0
  0
LINE
  8
0
 62
     0
 10
240.745
 20
76.7676
 30
0.0
 11
239.945
 21
76.7676
 31
0.0
  0
LINE
  8
0
 62
     0
 10
239.945
 20
76.7676
 30
0.0
 11
239.945
 21
73.6685
 31
0.0
  0
LINE
  8
0
 62
     0
 10
239.945
 20
73.6685
 30
0.0
 11
240.745
 21
73.6685
 31
0.0
  0
LINE
  8
0
 62
     0
 10
240.745
 20
73.6685
 30
0.0
 11
240.745
 21
67.8684
 31
0.0
  0
LINE
  8
0
 62
     0
 10
240.745
 20
67.8684
 30
0.0
 11
239.945
 21
67.8684
 31
0.0
  0
LINE
  8
0
 62
     0
 10
239.945
 20
67.8684
 30
0.0
 11
239.945
 21
64.7679
 31
0.0
  0
LINE
  8
0
 62
     0
 10
239.945
 20
64.7679
 30
0.0
 11
240.745
 21
64.7679
 31
0.0
  0
LINE
  8
0
 62
     0
 10
240.745
 20
64.7679
 30
0.0
 11
240.745
 21
63.7688
 31
0.0
  0
LINE
  8
0
 62
     0
 10
240.745
 20
63.7688
 30
0.0
 11
254.744
 21
63.7688
 31
0.0
  0
LINE
  8
0
 62
     0
 10
254.744
 20
63.7688
 30
0.0
 11
254.744
 21
64.7679
 31
0.0
  0
LINE
  8
0
 62
     0
 10
254.744
 20
64.7679
 30
0.0
 11
255.545
 21
64.7679
 31
0.0
  0
LINE
  8
0
 62
     0
 10
255.545
 20
64.7679
 30
0.0
 11
255.545
 21
67.8684
 31
0.0
  0
LINE
  8
0
 62
     0
 10
255.545
 20
67.8684
 30
0.0
 11
254.744
 21
67.8684
 31
0.0
  0
LINE
  8
0
 62
     0
 10
254.744
 20
67.8684
 30
0.0
 11
254.744
 21
73.6685
 31
0.0
  0
LINE
  8
0
 62
     0
 10
254.744
 20
73.6685
 30
0.0
 11
255.545
 21
73.6685
 31
0.0
  0
LINE
  8
0
 62
     0
 10
255.545
 20
73.6685
 30
0.0
 11
255.545
 21
76.7676
 31
0.0
  0
LINE
  8
0
 62
     0
 10
255.545
 20
76.7676
 30
0.0
 11
254.744
 21
76.7676
 31
0.0
  0
LINE
  8
0
 62
     0
 10
254.744
 20
76.7676
 30
0.0
 11
254.744
 21
77.7681
 31
0.0
  0
LINE
  8
0
 62
     0
 10
254.744
 20
77.7681
 30
0.0
 11
240.745
 21
77.7681
 31
0.0
  0
LINE
  8
0
 62
     0
 10
264.557
 20
77.7681
 30
0.0
 11
264.557
 21
76.7676
 31
0.0
  0
LINE
  8
0
 62
     0
 10
264.557
 20
76.7676
 30
0.0
 11
263.756
 21
76.7676
 31
0.0
  0
LINE
  8
0
 62
     0
 10
263.756
 20
76.7676
 30
0.0
 11
263.756
 21
73.6685
 31
0.0
  0
LINE
  8
0
 62
     0
 10
263.756
 20
73.6685
 30
0.0
 11
264.557
 21
73.6685
 31
0.0
  0
LINE
  8
0
 62
     0
 10
264.557
 20
73.6685
 30
0.0
 11
264.557
 21
67.8684
 31
0.0
  0
LINE
  8
0
 62
     0
 10
264.557
 20
67.8684
 30
0.0
 11
263.756
 21
67.8684
 31
0.0
  0
LINE
  8
0
 62
     0
 10
263.756
 20
67.8684
 30
0.0
 11
263.756
 21
64.7679
 31
0.0
  0
LINE
  8
0
 62
     0
 10
263.756
 20
64.7679
 30
0.0
 11
264.557
 21
64.7679
 31
0.0
  0
LINE
  8
0
 62
     0
 10
264.557
 20
64.7679
 30
0.0
 11
264.557
 21
63.7688
 31
0.0
  0
LINE
  8
0
 62
     0
 10
264.557
 20
63.7688
 30
0.0
 11
278.557
 21
63.7688
 31
0.0
  0
LINE
  8
0
 62
     0
 10
278.557
 20
63.7688
 30
0.0
 11
278.557
 21
64.7679
 31
0.0
  0
LINE
  8
0
 62
     0
 10
278.557
 20
64.7679
 30
0.0
 11
279.357
 21
64.7679
 31
0.0
  0
LINE
  8
0
 62
     0
 10
279.357
 20
64.7679
 30
0.0
 11
279.357
 21
67.8684
 31
0.0
  0
LINE
  8
0
 62
     0
 10
279.357
 20
67.8684
 30
0.0
 11
278.557
 21
67.8684
 31
0.0
  0
LINE
  8
0
 62
     0
 10
278.557
 20
67.8684
 30
0.0
 11
278.557
 21
73.6685
 31
0.0
  0
LINE
  8
0
 62
     0
 10
278.557
 20
73.6685
 30
0.0
 11
279.357
 21
73.6685
 31
0.0
  0
LINE
  8
0
 62
     0
 10
279.357
 20
73.6685
 30
0.0
 11
279.357
 21
76.7676
 31
0.0
  0
LINE
  8
0
 62
     0
 10
279.357
 20
76.7676
 30
0.0
 11
278.557
 21
76.7676
 31
0.0
  0
LINE
  8
0
 62
     0
 10
278.557
 20
76.7676
 30
0.0
 11
278.557
 21
77.7681
 31
0.0
  0
LINE
  8
0
 62
     0
 10
278.557
 20
77.7681
 30
0.0
 11
264.557
 21
77.7681
 31
0.0
  0
LINE
  8
0
 62
     0
 10
2.61965
 20
96.8181
 30
0.0
 11
2.61965
 21
95.8176
 31
0.0
  0
LINE
  8
0
 62
     0
 10
2.61965
 20
95.8176
 30
0.0
 11
1.82039
 21
95.8176
 31
0.0
  0
LINE
  8
0
 62
     0
 10
1.82039
 20
95.8176
 30
0.0
 11
1.82039
 21
92.7185
 31
0.0
  0
LINE
  8
0
 62
     0
 10
1.82039
 20
92.7185
 30
0.0
 11
2.61965
 21
92.7185
 31
0.0
  0
LINE
  8
0
 62
     0
 10
2.61965
 20
92.7185
 30
0.0
 11
2.61965
 21
86.9184
 31
0.0
  0
LINE
  8
0
 62
     0
 10
2.61965
 20
86.9184
 30
0.0
 11
1.82039
 21
86.9184
 31
0.0
  0
LINE
  8
0
 62
     0
 10
1.82039
 20
86.9184
 30
0.0
 11
1.82039
 21
83.8179
 31
0.0
  0
LINE
  8
0
 62
     0
 10
1.82039
 20
83.8179
 30
0.0
 11
2.61965
 21
83.8179
 31
0.0
  0
LINE
  8
0
 62
     0
 10
2.61965
 20
83.8179
 30
0.0
 11
2.61965
 21
82.8188
 31
0.0
  0
LINE
  8
0
 62
     0
 10
2.61965
 20
82.8188
 30
0.0
 11
16.6192
 21
82.8188
 31
0.0
  0
LINE
  8
0
 62
     0
 10
16.6192
 20
82.8188
 30
0.0
 11
16.6192
 21
83.8179
 31
0.0
  0
LINE
  8
0
 62
     0
 10
16.6192
 20
83.8179
 30
0.0
 11
17.4198
 21
83.8179
 31
0.0
  0
LINE
  8
0
 62
     0
 10
17.4198
 20
83.8179
 30
0.0
 11
17.4198
 21
86.9184
 31
0.0
  0
LINE
  8
0
 62
     0
 10
17.4198
 20
86.9184
 30
0.0
 11
16.6192
 21
86.9184
 31
0.0
  0
LINE
  8
0
 62
     0
 10
16.6192
 20
86.9184
 30
0.0
 11
16.6192
 21
92.7185
 31
0.0
  0
LINE
  8
0
 62
     0
 10
16.6192
 20
92.7185
 30
0.0
 11
17.4198
 21
92.7185
 31
0.0
  0
LINE
  8
0
 62
     0
 10
17.4198
 20
92.7185
 30
0.0
 11
17.4198
 21
95.8176
 31
0.0
  0
LINE
  8
0
 62
     0
 10
17.4198
 20
95.8176
 30
0.0
 11
16.6192
 21
95.8176
 31
0.0
  0
LINE
  8
0
 62
     0
 10
16.6192
 20
95.8176
 30
0.0
 11
16.6192
 21
96.8181
 31
0.0
  0
LINE
  8
0
 62
     0
 10
16.6192
 20
96.8181
 30
0.0
 11
2.61965
 21
96.8181
 31
0.0
  0
LINE
  8
0
 62
     0
 10
21.6697
 20
96.8181
 30
0.0
 11
21.6697
 21
95.8176
 31
0.0
  0
LINE
  8
0
 62
     0
 10
21.6697
 20
95.8176
 30
0.0
 11
20.8704
 21
95.8176
 31
0.0
  0
LINE
  8
0
 62
     0
 10
20.8704
 20
95.8176
 30
0.0
 11
20.8704
 21
92.7185
 31
0.0
  0
LINE
  8
0
 62
     0
 10
20.8704
 20
92.7185
 30
0.0
 11
21.6697
 21
92.7185
 31
0.0
  0
LINE
  8
0
 62
     0
 10
21.6697
 20
92.7185
 30
0.0
 11
21.6697
 21
86.9184
 31
0.0
  0
LINE
  8
0
 62
     0
 10
21.6697
 20
86.9184
 30
0.0
 11
20.8704
 21
86.9184
 31
0.0
  0
LINE
  8
0
 62
     0
 10
20.8704
 20
86.9184
 30
0.0
 11
20.8704
 21
83.8179
 31
0.0
  0
LINE
  8
0
 62
     0
 10
20.8704
 20
83.8179
 30
0.0
 11
21.6697
 21
83.8179
 31
0.0
  0
LINE
  8
0
 62
     0
 10
21.6697
 20
83.8179
 30
0.0
 11
21.6697
 21
82.8188
 31
0.0
  0
LINE
  8
0
 62
     0
 10
21.6697
 20
82.8188
 30
0.0
 11
35.669
 21
82.8188
 31
0.0
  0
LINE
  8
0
 62
     0
 10
35.669
 20
82.8188
 30
0.0
 11
35.669
 21
83.8179
 31
0.0
  0
LINE
  8
0
 62
     0
 10
35.669
 20
83.8179
 30
0.0
 11
36.4698
 21
83.8179
 31
0.0
  0
LINE
  8
0
 62
     0
 10
36.4698
 20
83.8179
 30
0.0
 11
36.4698
 21
86.9184
 31
0.0
  0
LINE
  8
0
 62
     0
 10
36.4698
 20
86.9184
 30
0.0
 11
35.669
 21
86.9184
 31
0.0
  0
LINE
  8
0
 62
     0
 10
35.669
 20
86.9184
 30
0.0
 11
35.669
 21
92.7185
 31
0.0
  0
LINE
  8
0
 62
     0
 10
35.669
 20
92.7185
 30
0.0
 11
36.4698
 21
92.7185
 31
0.0
  0
LINE
  8
0
 62
     0
 10
36.4698
 20
92.7185
 30
0.0
 11
36.4698
 21
95.8176
 31
0.0
  0
LINE
  8
0
 62
     0
 10
36.4698
 20
95.8176
 30
0.0
 11
35.669
 21
95.8176
 31
0.0
  0
LINE
  8
0
 62
     0
 10
35.669
 20
95.8176
 30
0.0
 11
35.669
 21
96.8181
 31
0.0
  0
LINE
  8
0
 62
     0
 10
35.669
 20
96.8181
 30
0.0
 11
21.6697
 21
96.8181
 31
0.0
  0
LINE
  8
0
 62
     0
 10
40.7197
 20
96.8181
 30
0.0
 11
40.7197
 21
95.8176
 31
0.0
  0
LINE
  8
0
 62
     0
 10
40.7197
 20
95.8176
 30
0.0
 11
39.9203
 21
95.8176
 31
0.0
  0
LINE
  8
0
 62
     0
 10
39.9203
 20
95.8176
 30
0.0
 11
39.9203
 21
92.7185
 31
0.0
  0
LINE
  8
0
 62
     0
 10
39.9203
 20
92.7185
 30
0.0
 11
40.7197
 21
92.7185
 31
0.0
  0
LINE
  8
0
 62
     0
 10
40.7197
 20
92.7185
 30
0.0
 11
40.7197
 21
86.9184
 31
0.0
  0
LINE
  8
0
 62
     0
 10
40.7197
 20
86.9184
 30
0.0
 11
39.9203
 21
86.9184
 31
0.0
  0
LINE
  8
0
 62
     0
 10
39.9203
 20
86.9184
 30
0.0
 11
39.9203
 21
83.8179
 31
0.0
  0
LINE
  8
0
 62
     0
 10
39.9203
 20
83.8179
 30
0.0
 11
40.7197
 21
83.8179
 31
0.0
  0
LINE
  8
0
 62
     0
 10
40.7197
 20
83.8179
 30
0.0
 11
40.7197
 21
82.8188
 31
0.0
  0
LINE
  8
0
 62
     0
 10
40.7197
 20
82.8188
 30
0.0
 11
54.719
 21
82.8188
 31
0.0
  0
LINE
  8
0
 62
     0
 10
54.719
 20
82.8188
 30
0.0
 11
54.719
 21
83.8179
 31
0.0
  0
LINE
  8
0
 62
     0
 10
54.719
 20
83.8179
 30
0.0
 11
55.5198
 21
83.8179
 31
0.0
  0
LINE
  8
0
 62
     0
 10
55.5198
 20
83.8179
 30
0.0
 11
55.5198
 21
86.9184
 31
0.0
  0
LINE
  8
0
 62
     0
 10
55.5198
 20
86.9184
 30
0.0
 11
54.719
 21
86.9184
 31
0.0
  0
LINE
  8
0
 62
     0
 10
54.719
 20
86.9184
 30
0.0
 11
54.719
 21
92.7185
 31
0.0
  0
LINE
  8
0
 62
     0
 10
54.719
 20
92.7185
 30
0.0
 11
55.5198
 21
92.7185
 31
0.0
  0
LINE
  8
0
 62
     0
 10
55.5198
 20
92.7185
 30
0.0
 11
55.5198
 21
95.8176
 31
0.0
  0
LINE
  8
0
 62
     0
 10
55.5198
 20
95.8176
 30
0.0
 11
54.719
 21
95.8176
 31
0.0
  0
LINE
  8
0
 62
     0
 10
54.719
 20
95.8176
 30
0.0
 11
54.719
 21
96.8181
 31
0.0
  0
LINE
  8
0
 62
     0
 10
54.719
 20
96.8181
 30
0.0
 11
40.7197
 21
96.8181
 31
0.0
  0
LINE
  8
0
 62
     0
 10
59.7697
 20
96.8181
 30
0.0
 11
59.7697
 21
95.8176
 31
0.0
  0
LINE
  8
0
 62
     0
 10
59.7697
 20
95.8176
 30
0.0
 11
58.9703
 21
95.8176
 31
0.0
  0
LINE
  8
0
 62
     0
 10
58.9703
 20
95.8176
 30
0.0
 11
58.9703
 21
92.7185
 31
0.0
  0
LINE
  8
0
 62
     0
 10
58.9703
 20
92.7185
 30
0.0
 11
59.7697
 21
92.7185
 31
0.0
  0
LINE
  8
0
 62
     0
 10
59.7697
 20
92.7185
 30
0.0
 11
59.7697
 21
86.9184
 31
0.0
  0
LINE
  8
0
 62
     0
 10
59.7697
 20
86.9184
 30
0.0
 11
58.9703
 21
86.9184
 31
0.0
  0
LINE
  8
0
 62
     0
 10
58.9703
 20
86.9184
 30
0.0
 11
58.9703
 21
83.8179
 31
0.0
  0
LINE
  8
0
 62
     0
 10
58.9703
 20
83.8179
 30
0.0
 11
59.7697
 21
83.8179
 31
0.0
  0
LINE
  8
0
 62
     0
 10
59.7697
 20
83.8179
 30
0.0
 11
59.7697
 21
82.8188
 31
0.0
  0
LINE
  8
0
 62
     0
 10
59.7697
 20
82.8188
 30
0.0
 11
73.769
 21
82.8188
 31
0.0
  0
LINE
  8
0
 62
     0
 10
73.769
 20
82.8188
 30
0.0
 11
73.769
 21
83.8179
 31
0.0
  0
LINE
  8
0
 62
     0
 10
73.769
 20
83.8179
 30
0.0
 11
74.5698
 21
83.8179
 31
0.0
  0
LINE
  8
0
 62
     0
 10
74.5698
 20
83.8179
 30
0.0
 11
74.5698
 21
86.9184
 31
0.0
  0
LINE
  8
0
 62
     0
 10
74.5698
 20
86.9184
 30
0.0
 11
73.769
 21
86.9184
 31
0.0
  0
LINE
  8
0
 62
     0
 10
73.769
 20
86.9184
 30
0.0
 11
73.769
 21
92.7185
 31
0.0
  0
LINE
  8
0
 62
     0
 10
73.769
 20
92.7185
 30
0.0
 11
74.5698
 21
92.7185
 31
0.0
  0
LINE
  8
0
 62
     0
 10
74.5698
 20
92.7185
 30
0.0
 11
74.5698
 21
95.8176
 31
0.0
  0
LINE
  8
0
 62
     0
 10
74.5698
 20
95.8176
 30
0.0
 11
73.769
 21
95.8176
 31
0.0
  0
LINE
  8
0
 62
     0
 10
73.769
 20
95.8176
 30
0.0
 11
73.769
 21
96.8181
 31
0.0
  0
LINE
  8
0
 62
     0
 10
73.769
 20
96.8181
 30
0.0
 11
59.7697
 21
96.8181
 31
0.0
  0
LINE
  8
0
 62
     0
 10
78.8197
 20
96.8181
 30
0.0
 11
78.8197
 21
95.8176
 31
0.0
  0
LINE
  8
0
 62
     0
 10
78.8197
 20
95.8176
 30
0.0
 11
78.0203
 21
95.8176
 31
0.0
  0
LINE
  8
0
 62
     0
 10
78.0203
 20
95.8176
 30
0.0
 11
78.0203
 21
92.7185
 31
0.0
  0
LINE
  8
0
 62
     0
 10
78.0203
 20
92.7185
 30
0.0
 11
78.8197
 21
92.7185
 31
0.0
  0
LINE
  8
0
 62
     0
 10
78.8197
 20
92.7185
 30
0.0
 11
78.8197
 21
86.9184
 31
0.0
  0
LINE
  8
0
 62
     0
 10
78.8197
 20
86.9184
 30
0.0
 11
78.0203
 21
86.9184
 31
0.0
  0
LINE
  8
0
 62
     0
 10
78.0203
 20
86.9184
 30
0.0
 11
78.0203
 21
83.8179
 31
0.0
  0
LINE
  8
0
 62
     0
 10
78.0203
 20
83.8179
 30
0.0
 11
78.8197
 21
83.8179
 31
0.0
  0
LINE
  8
0
 62
     0
 10
78.8197
 20
83.8179
 30
0.0
 11
78.8197
 21
82.8188
 31
0.0
  0
LINE
  8
0
 62
     0
 10
78.8197
 20
82.8188
 30
0.0
 11
92.819
 21
82.8188
 31
0.0
  0
LINE
  8
0
 62
     0
 10
92.819
 20
82.8188
 30
0.0
 11
92.819
 21
83.8179
 31
0.0
  0
LINE
  8
0
 62
     0
 10
92.819
 20
83.8179
 30
0.0
 11
93.6184
 21
83.8179
 31
0.0
  0
LINE
  8
0
 62
     0
 10
93.6184
 20
83.8179
 30
0.0
 11
93.6184
 21
86.9184
 31
0.0
  0
LINE
  8
0
 62
     0
 10
93.6184
 20
86.9184
 30
0.0
 11
92.819
 21
86.9184
 31
0.0
  0
LINE
  8
0
 62
     0
 10
92.819
 20
86.9184
 30
0.0
 11
92.819
 21
92.7185
 31
0.0
  0
LINE
  8
0
 62
     0
 10
92.819
 20
92.7185
 30
0.0
 11
93.6184
 21
92.7185
 31
0.0
  0
LINE
  8
0
 62
     0
 10
93.6184
 20
92.7185
 30
0.0
 11
93.6184
 21
95.8176
 31
0.0
  0
LINE
  8
0
 62
     0
 10
93.6184
 20
95.8176
 30
0.0
 11
92.819
 21
95.8176
 31
0.0
  0
LINE
  8
0
 62
     0
 10
92.819
 20
95.8176
 30
0.0
 11
92.819
 21
96.8181
 31
0.0
  0
LINE
  8
0
 62
     0
 10
92.819
 20
96.8181
 30
0.0
 11
78.8197
 21
96.8181
 31
0.0
  0
LINE
  8
0
 62
     0
 10
97.8683
 20
96.8181
 30
0.0
 11
97.8683
 21
95.8176
 31
0.0
  0
LINE
  8
0
 62
     0
 10
97.8683
 20
95.8176
 30
0.0
 11
97.0703
 21
95.8176
 31
0.0
  0
LINE
  8
0
 62
     0
 10
97.0703
 20
95.8176
 30
0.0
 11
97.0703
 21
92.7185
 31
0.0
  0
LINE
  8
0
 62
     0
 10
97.0703
 20
92.7185
 30
0.0
 11
97.8683
 21
92.7185
 31
0.0
  0
LINE
  8
0
 62
     0
 10
97.8683
 20
92.7185
 30
0.0
 11
97.8683
 21
86.9184
 31
0.0
  0
LINE
  8
0
 62
     0
 10
97.8683
 20
86.9184
 30
0.0
 11
97.0703
 21
86.9184
 31
0.0
  0
LINE
  8
0
 62
     0
 10
97.0703
 20
86.9184
 30
0.0
 11
97.0703
 21
83.8179
 31
0.0
  0
LINE
  8
0
 62
     0
 10
97.0703
 20
83.8179
 30
0.0
 11
97.8683
 21
83.8179
 31
0.0
  0
LINE
  8
0
 62
     0
 10
97.8683
 20
83.8179
 30
0.0
 11
97.8683
 21
82.8188
 31
0.0
  0
LINE
  8
0
 62
     0
 10
97.8683
 20
82.8188
 30
0.0
 11
111.869
 21
82.8188
 31
0.0
  0
LINE
  8
0
 62
     0
 10
111.869
 20
82.8188
 30
0.0
 11
111.869
 21
83.8179
 31
0.0
  0
LINE
  8
0
 62
     0
 10
111.869
 20
83.8179
 30
0.0
 11
112.668
 21
83.8179
 31
0.0
  0
LINE
  8
0
 62
     0
 10
112.668
 20
83.8179
 30
0.0
 11
112.668
 21
86.9184
 31
0.0
  0
LINE
  8
0
 62
     0
 10
112.668
 20
86.9184
 30
0.0
 11
111.869
 21
86.9184
 31
0.0
  0
LINE
  8
0
 62
     0
 10
111.869
 20
86.9184
 30
0.0
 11
111.869
 21
92.7185
 31
0.0
  0
LINE
  8
0
 62
     0
 10
111.869
 20
92.7185
 30
0.0
 11
112.668
 21
92.7185
 31
0.0
  0
LINE
  8
0
 62
     0
 10
112.668
 20
92.7185
 30
0.0
 11
112.668
 21
95.8176
 31
0.0
  0
LINE
  8
0
 62
     0
 10
112.668
 20
95.8176
 30
0.0
 11
111.869
 21
95.8176
 31
0.0
  0
LINE
  8
0
 62
     0
 10
111.869
 20
95.8176
 30
0.0
 11
111.869
 21
96.8181
 31
0.0
  0
LINE
  8
0
 62
     0
 10
111.869
 20
96.8181
 30
0.0
 11
97.8683
 21
96.8181
 31
0.0
  0
LINE
  8
0
 62
     0
 10
116.918
 20
96.8181
 30
0.0
 11
116.918
 21
95.8176
 31
0.0
  0
LINE
  8
0
 62
     0
 10
116.918
 20
95.8176
 30
0.0
 11
116.119
 21
95.8176
 31
0.0
  0
LINE
  8
0
 62
     0
 10
116.119
 20
95.8176
 30
0.0
 11
116.119
 21
92.7185
 31
0.0
  0
LINE
  8
0
 62
     0
 10
116.119
 20
92.7185
 30
0.0
 11
116.918
 21
92.7185
 31
0.0
  0
LINE
  8
0
 62
     0
 10
116.918
 20
92.7185
 30
0.0
 11
116.918
 21
86.9184
 31
0.0
  0
LINE
  8
0
 62
     0
 10
116.918
 20
86.9184
 30
0.0
 11
116.119
 21
86.9184
 31
0.0
  0
LINE
  8
0
 62
     0
 10
116.119
 20
86.9184
 30
0.0
 11
116.119
 21
83.8179
 31
0.0
  0
LINE
  8
0
 62
     0
 10
116.119
 20
83.8179
 30
0.0
 11
116.918
 21
83.8179
 31
0.0
  0
LINE
  8
0
 62
     0
 10
116.918
 20
83.8179
 30
0.0
 11
116.918
 21
82.8188
 31
0.0
  0
LINE
  8
0
 62
     0
 10
116.918
 20
82.8188
 30
0.0
 11
130.919
 21
82.8188
 31
0.0
  0
LINE
  8
0
 62
     0
 10
130.919
 20
82.8188
 30
0.0
 11
130.919
 21
83.8179
 31
0.0
  0
LINE
  8
0
 62
     0
 10
130.919
 20
83.8179
 30
0.0
 11
131.72
 21
83.8179
 31
0.0
  0
LINE
  8
0
 62
     0
 10
131.72
 20
83.8179
 30
0.0
 11
131.72
 21
86.9184
 31
0.0
  0
LINE
  8
0
 62
     0
 10
131.72
 20
86.9184
 30
0.0
 11
130.919
 21
86.9184
 31
0.0
  0
LINE
  8
0
 62
     0
 10
130.919
 20
86.9184
 30
0.0
 11
130.919
 21
92.7185
 31
0.0
  0
LINE
  8
0
 62
     0
 10
130.919
 20
92.7185
 30
0.0
 11
131.72
 21
92.7185
 31
0.0
  0
LINE
  8
0
 62
     0
 10
131.72
 20
92.7185
 30
0.0
 11
131.72
 21
95.8176
 31
0.0
  0
LINE
  8
0
 62
     0
 10
131.72
 20
95.8176
 30
0.0
 11
130.919
 21
95.8176
 31
0.0
  0
LINE
  8
0
 62
     0
 10
130.919
 20
95.8176
 30
0.0
 11
130.919
 21
96.8181
 31
0.0
  0
LINE
  8
0
 62
     0
 10
130.919
 20
96.8181
 30
0.0
 11
116.918
 21
96.8181
 31
0.0
  0
LINE
  8
0
 62
     0
 10
135.97
 20
96.8181
 30
0.0
 11
135.97
 21
95.8176
 31
0.0
  0
LINE
  8
0
 62
     0
 10
135.97
 20
95.8176
 30
0.0
 11
135.17
 21
95.8176
 31
0.0
  0
LINE
  8
0
 62
     0
 10
135.17
 20
95.8176
 30
0.0
 11
135.17
 21
92.7185
 31
0.0
  0
LINE
  8
0
 62
     0
 10
135.17
 20
92.7185
 30
0.0
 11
135.97
 21
92.7185
 31
0.0
  0
LINE
  8
0
 62
     0
 10
135.97
 20
92.7185
 30
0.0
 11
135.97
 21
86.9184
 31
0.0
  0
LINE
  8
0
 62
     0
 10
135.97
 20
86.9184
 30
0.0
 11
135.17
 21
86.9184
 31
0.0
  0
LINE
  8
0
 62
     0
 10
135.17
 20
86.9184
 30
0.0
 11
135.17
 21
83.8179
 31
0.0
  0
LINE
  8
0
 62
     0
 10
135.17
 20
83.8179
 30
0.0
 11
135.97
 21
83.8179
 31
0.0
  0
LINE
  8
0
 62
     0
 10
135.97
 20
83.8179
 30
0.0
 11
135.97
 21
82.8188
 31
0.0
  0
LINE
  8
0
 62
     0
 10
135.97
 20
82.8188
 30
0.0
 11
149.969
 21
82.8188
 31
0.0
  0
LINE
  8
0
 62
     0
 10
149.969
 20
82.8188
 30
0.0
 11
149.969
 21
83.8179
 31
0.0
  0
LINE
  8
0
 62
     0
 10
149.969
 20
83.8179
 30
0.0
 11
150.77
 21
83.8179
 31
0.0
  0
LINE
  8
0
 62
     0
 10
150.77
 20
83.8179
 30
0.0
 11
150.77
 21
86.9184
 31
0.0
  0
LINE
  8
0
 62
     0
 10
150.77
 20
86.9184
 30
0.0
 11
149.969
 21
86.9184
 31
0.0
  0
LINE
  8
0
 62
     0
 10
149.969
 20
86.9184
 30
0.0
 11
149.969
 21
92.7185
 31
0.0
  0
LINE
  8
0
 62
     0
 10
149.969
 20
92.7185
 30
0.0
 11
150.77
 21
92.7185
 31
0.0
  0
LINE
  8
0
 62
     0
 10
150.77
 20
92.7185
 30
0.0
 11
150.77
 21
95.8176
 31
0.0
  0
LINE
  8
0
 62
     0
 10
150.77
 20
95.8176
 30
0.0
 11
149.969
 21
95.8176
 31
0.0
  0
LINE
  8
0
 62
     0
 10
149.969
 20
95.8176
 30
0.0
 11
149.969
 21
96.8181
 31
0.0
  0
LINE
  8
0
 62
     0
 10
149.969
 20
96.8181
 30
0.0
 11
135.97
 21
96.8181
 31
0.0
  0
LINE
  8
0
 62
     0
 10
155.02
 20
96.8181
 30
0.0
 11
155.02
 21
95.8176
 31
0.0
  0
LINE
  8
0
 62
     0
 10
155.02
 20
95.8176
 30
0.0
 11
154.22
 21
95.8176
 31
0.0
  0
LINE
  8
0
 62
     0
 10
154.22
 20
95.8176
 30
0.0
 11
154.22
 21
92.7185
 31
0.0
  0
LINE
  8
0
 62
     0
 10
154.22
 20
92.7185
 30
0.0
 11
155.02
 21
92.7185
 31
0.0
  0
LINE
  8
0
 62
     0
 10
155.02
 20
92.7185
 30
0.0
 11
155.02
 21
86.9184
 31
0.0
  0
LINE
  8
0
 62
     0
 10
155.02
 20
86.9184
 30
0.0
 11
154.22
 21
86.9184
 31
0.0
  0
LINE
  8
0
 62
     0
 10
154.22
 20
86.9184
 30
0.0
 11
154.22
 21
83.8179
 31
0.0
  0
LINE
  8
0
 62
     0
 10
154.22
 20
83.8179
 30
0.0
 11
155.02
 21
83.8179
 31
0.0
  0
LINE
  8
0
 62
     0
 10
155.02
 20
83.8179
 30
0.0
 11
155.02
 21
82.8188
 31
0.0
  0
LINE
  8
0
 62
     0
 10
155.02
 20
82.8188
 30
0.0
 11
169.019
 21
82.8188
 31
0.0
  0
LINE
  8
0
 62
     0
 10
169.019
 20
82.8188
 30
0.0
 11
169.019
 21
83.8179
 31
0.0
  0
LINE
  8
0
 62
     0
 10
169.019
 20
83.8179
 30
0.0
 11
169.82
 21
83.8179
 31
0.0
  0
LINE
  8
0
 62
     0
 10
169.82
 20
83.8179
 30
0.0
 11
169.82
 21
86.9184
 31
0.0
  0
LINE
  8
0
 62
     0
 10
169.82
 20
86.9184
 30
0.0
 11
169.019
 21
86.9184
 31
0.0
  0
LINE
  8
0
 62
     0
 10
169.019
 20
86.9184
 30
0.0
 11
169.019
 21
92.7185
 31
0.0
  0
LINE
  8
0
 62
     0
 10
169.019
 20
92.7185
 30
0.0
 11
169.82
 21
92.7185
 31
0.0
  0
LINE
  8
0
 62
     0
 10
169.82
 20
92.7185
 30
0.0
 11
169.82
 21
95.8176
 31
0.0
  0
LINE
  8
0
 62
     0
 10
169.82
 20
95.8176
 30
0.0
 11
169.019
 21
95.8176
 31
0.0
  0
LINE
  8
0
 62
     0
 10
169.019
 20
95.8176
 30
0.0
 11
169.019
 21
96.8181
 31
0.0
  0
LINE
  8
0
 62
     0
 10
169.019
 20
96.8181
 30
0.0
 11
155.02
 21
96.8181
 31
0.0
  0
LINE
  8
0
 62
     0
 10
174.07
 20
96.8181
 30
0.0
 11
174.07
 21
95.8176
 31
0.0
  0
LINE
  8
0
 62
     0
 10
174.07
 20
95.8176
 30
0.0
 11
173.27
 21
95.8176
 31
0.0
  0
LINE
  8
0
 62
     0
 10
173.27
 20
95.8176
 30
0.0
 11
173.27
 21
92.7185
 31
0.0
  0
LINE
  8
0
 62
     0
 10
173.27
 20
92.7185
 30
0.0
 11
174.07
 21
92.7185
 31
0.0
  0
LINE
  8
0
 62
     0
 10
174.07
 20
92.7185
 30
0.0
 11
174.07
 21
86.9184
 31
0.0
  0
LINE
  8
0
 62
     0
 10
174.07
 20
86.9184
 30
0.0
 11
173.27
 21
86.9184
 31
0.0
  0
LINE
  8
0
 62
     0
 10
173.27
 20
86.9184
 30
0.0
 11
173.27
 21
83.8179
 31
0.0
  0
LINE
  8
0
 62
     0
 10
173.27
 20
83.8179
 30
0.0
 11
174.07
 21
83.8179
 31
0.0
  0
LINE
  8
0
 62
     0
 10
174.07
 20
83.8179
 30
0.0
 11
174.07
 21
82.8188
 31
0.0
  0
LINE
  8
0
 62
     0
 10
174.07
 20
82.8188
 30
0.0
 11
188.069
 21
82.8188
 31
0.0
  0
LINE
  8
0
 62
     0
 10
188.069
 20
82.8188
 30
0.0
 11
188.069
 21
83.8179
 31
0.0
  0
LINE
  8
0
 62
     0
 10
188.069
 20
83.8179
 30
0.0
 11
188.87
 21
83.8179
 31
0.0
  0
LINE
  8
0
 62
     0
 10
188.87
 20
83.8179
 30
0.0
 11
188.87
 21
86.9184
 31
0.0
  0
LINE
  8
0
 62
     0
 10
188.87
 20
86.9184
 30
0.0
 11
188.069
 21
86.9184
 31
0.0
  0
LINE
  8
0
 62
     0
 10
188.069
 20
86.9184
 30
0.0
 11
188.069
 21
92.7185
 31
0.0
  0
LINE
  8
0
 62
     0
 10
188.069
 20
92.7185
 30
0.0
 11
188.87
 21
92.7185
 31
0.0
  0
LINE
  8
0
 62
     0
 10
188.87
 20
92.7185
 30
0.0
 11
188.87
 21
95.8176
 31
0.0
  0
LINE
  8
0
 62
     0
 10
188.87
 20
95.8176
 30
0.0
 11
188.069
 21
95.8176
 31
0.0
  0
LINE
  8
0
 62
     0
 10
188.069
 20
95.8176
 30
0.0
 11
188.069
 21
96.8181
 31
0.0
  0
LINE
  8
0
 62
     0
 10
188.069
 20
96.8181
 30
0.0
 11
174.07
 21
96.8181
 31
0.0
  0
LINE
  8
0
 62
     0
 10
193.12
 20
96.8181
 30
0.0
 11
193.12
 21
95.8176
 31
0.0
  0
LINE
  8
0
 62
     0
 10
193.12
 20
95.8176
 30
0.0
 11
192.32
 21
95.8176
 31
0.0
  0
LINE
  8
0
 62
     0
 10
192.32
 20
95.8176
 30
0.0
 11
192.32
 21
92.7185
 31
0.0
  0
LINE
  8
0
 62
     0
 10
192.32
 20
92.7185
 30
0.0
 11
193.12
 21
92.7185
 31
0.0
  0
LINE
  8
0
 62
     0
 10
193.12
 20
92.7185
 30
0.0
 11
193.12
 21
86.9184
 31
0.0
  0
LINE
  8
0
 62
     0
 10
193.12
 20
86.9184
 30
0.0
 11
192.32
 21
86.9184
 31
0.0
  0
LINE
  8
0
 62
     0
 10
192.32
 20
86.9184
 30
0.0
 11
192.32
 21
83.8179
 31
0.0
  0
LINE
  8
0
 62
     0
 10
192.32
 20
83.8179
 30
0.0
 11
193.12
 21
83.8179
 31
0.0
  0
LINE
  8
0
 62
     0
 10
193.12
 20
83.8179
 30
0.0
 11
193.12
 21
82.8188
 31
0.0
  0
LINE
  8
0
 62
     0
 10
193.12
 20
82.8188
 30
0.0
 11
207.119
 21
82.8188
 31
0.0
  0
LINE
  8
0
 62
     0
 10
207.119
 20
82.8188
 30
0.0
 11
207.119
 21
83.8179
 31
0.0
  0
LINE
  8
0
 62
     0
 10
207.119
 20
83.8179
 30
0.0
 11
207.92
 21
83.8179
 31
0.0
  0
LINE
  8
0
 62
     0
 10
207.92
 20
83.8179
 30
0.0
 11
207.92
 21
86.9184
 31
0.0
  0
LINE
  8
0
 62
     0
 10
207.92
 20
86.9184
 30
0.0
 11
207.119
 21
86.9184
 31
0.0
  0
LINE
  8
0
 62
     0
 10
207.119
 20
86.9184
 30
0.0
 11
207.119
 21
92.7185
 31
0.0
  0
LINE
  8
0
 62
     0
 10
207.119
 20
92.7185
 30
0.0
 11
207.92
 21
92.7185
 31
0.0
  0
LINE
  8
0
 62
     0
 10
207.92
 20
92.7185
 30
0.0
 11
207.92
 21
95.8176
 31
0.0
  0
LINE
  8
0
 62
     0
 10
207.92
 20
95.8176
 30
0.0
 11
207.119
 21
95.8176
 31
0.0
  0
LINE
  8
0
 62
     0
 10
207.119
 20
95.8176
 30
0.0
 11
207.119
 21
96.8181
 31
0.0
  0
LINE
  8
0
 62
     0
 10
207.119
 20
96.8181
 30
0.0
 11
193.12
 21
96.8181
 31
0.0
  0
LINE
  8
0
 62
     0
 10
212.17
 20
96.8181
 30
0.0
 11
212.17
 21
95.8176
 31
0.0
  0
LINE
  8
0
 62
     0
 10
212.17
 20
95.8176
 30
0.0
 11
211.37
 21
95.8176
 31
0.0
  0
LINE
  8
0
 62
     0
 10
211.37
 20
95.8176
 30
0.0
 11
211.37
 21
92.7185
 31
0.0
  0
LINE
  8
0
 62
     0
 10
211.37
 20
92.7185
 30
0.0
 11
212.17
 21
92.7185
 31
0.0
  0
LINE
  8
0
 62
     0
 10
212.17
 20
92.7185
 30
0.0
 11
212.17
 21
86.9184
 31
0.0
  0
LINE
  8
0
 62
     0
 10
212.17
 20
86.9184
 30
0.0
 11
211.37
 21
86.9184
 31
0.0
  0
LINE
  8
0
 62
     0
 10
211.37
 20
86.9184
 30
0.0
 11
211.37
 21
83.8179
 31
0.0
  0
LINE
  8
0
 62
     0
 10
211.37
 20
83.8179
 30
0.0
 11
212.17
 21
83.8179
 31
0.0
  0
LINE
  8
0
 62
     0
 10
212.17
 20
83.8179
 30
0.0
 11
212.17
 21
82.8188
 31
0.0
  0
LINE
  8
0
 62
     0
 10
212.17
 20
82.8188
 30
0.0
 11
226.169
 21
82.8188
 31
0.0
  0
LINE
  8
0
 62
     0
 10
226.169
 20
82.8188
 30
0.0
 11
226.169
 21
83.8179
 31
0.0
  0
LINE
  8
0
 62
     0
 10
226.169
 20
83.8179
 30
0.0
 11
226.97
 21
83.8179
 31
0.0
  0
LINE
  8
0
 62
     0
 10
226.97
 20
83.8179
 30
0.0
 11
226.97
 21
86.9184
 31
0.0
  0
LINE
  8
0
 62
     0
 10
226.97
 20
86.9184
 30
0.0
 11
226.169
 21
86.9184
 31
0.0
  0
LINE
  8
0
 62
     0
 10
226.169
 20
86.9184
 30
0.0
 11
226.169
 21
92.7185
 31
0.0
  0
LINE
  8
0
 62
     0
 10
226.169
 20
92.7185
 30
0.0
 11
226.97
 21
92.7185
 31
0.0
  0
LINE
  8
0
 62
     0
 10
226.97
 20
92.7185
 30
0.0
 11
226.97
 21
95.8176
 31
0.0
  0
LINE
  8
0
 62
     0
 10
226.97
 20
95.8176
 30
0.0
 11
226.169
 21
95.8176
 31
0.0
  0
LINE
  8
0
 62
     0
 10
226.169
 20
95.8176
 30
0.0
 11
226.169
 21
96.8181
 31
0.0
  0
LINE
  8
0
 62
     0
 10
226.169
 20
96.8181
 30
0.0
 11
212.17
 21
96.8181
 31
0.0
  0
LINE
  8
0
 62
     0
 10
231.22
 20
96.8181
 30
0.0
 11
231.22
 21
95.8176
 31
0.0
  0
LINE
  8
0
 62
     0
 10
231.22
 20
95.8176
 30
0.0
 11
230.42
 21
95.8176
 31
0.0
  0
LINE
  8
0
 62
     0
 10
230.42
 20
95.8176
 30
0.0
 11
230.42
 21
92.7185
 31
0.0
  0
LINE
  8
0
 62
     0
 10
230.42
 20
92.7185
 30
0.0
 11
231.22
 21
92.7185
 31
0.0
  0
LINE
  8
0
 62
     0
 10
231.22
 20
92.7185
 30
0.0
 11
231.22
 21
86.9184
 31
0.0
  0
LINE
  8
0
 62
     0
 10
231.22
 20
86.9184
 30
0.0
 11
230.42
 21
86.9184
 31
0.0
  0
LINE
  8
0
 62
     0
 10
230.42
 20
86.9184
 30
0.0
 11
230.42
 21
83.8179
 31
0.0
  0
LINE
  8
0
 62
     0
 10
230.42
 20
83.8179
 30
0.0
 11
231.22
 21
83.8179
 31
0.0
  0
LINE
  8
0
 62
     0
 10
231.22
 20
83.8179
 30
0.0
 11
231.22
 21
82.8188
 31
0.0
  0
LINE
  8
0
 62
     0
 10
231.22
 20
82.8188
 30
0.0
 11
245.219
 21
82.8188
 31
0.0
  0
LINE
  8
0
 62
     0
 10
245.219
 20
82.8188
 30
0.0
 11
245.219
 21
83.8179
 31
0.0
  0
LINE
  8
0
 62
     0
 10
245.219
 20
83.8179
 30
0.0
 11
246.02
 21
83.8179
 31
0.0
  0
LINE
  8
0
 62
     0
 10
246.02
 20
83.8179
 30
0.0
 11
246.02
 21
86.9184
 31
0.0
  0
LINE
  8
0
 62
     0
 10
246.02
 20
86.9184
 30
0.0
 11
245.219
 21
86.9184
 31
0.0
  0
LINE
  8
0
 62
     0
 10
245.219
 20
86.9184
 30
0.0
 11
245.219
 21
92.7185
 31
0.0
  0
LINE
  8
0
 62
     0
 10
245.219
 20
92.7185
 30
0.0
 11
246.02
 21
92.7185
 31
0.0
  0
LINE
  8
0
 62
     0
 10
246.02
 20
92.7185
 30
0.0
 11
246.02
 21
95.8176
 31
0.0
  0
LINE
  8
0
 62
     0
 10
246.02
 20
95.8176
 30
0.0
 11
245.219
 21
95.8176
 31
0.0
  0
LINE
  8
0
 62
     0
 10
245.219
 20
95.8176
 30
0.0
 11
245.219
 21
96.8181
 31
0.0
  0
LINE
  8
0
 62
     0
 10
245.219
 20
96.8181
 30
0.0
 11
231.22
 21
96.8181
 31
0.0
  0
LINE
  8
0
 62
     0
 10
250.27
 20
96.8181
 30
0.0
 11
250.27
 21
95.8176
 31
0.0
  0
LINE
  8
0
 62
     0
 10
250.27
 20
95.8176
 30
0.0
 11
249.47
 21
95.8176
 31
0.0
  0
LINE
  8
0
 62
     0
 10
249.47
 20
95.8176
 30
0.0
 11
249.47
 21
92.7185
 31
0.0
  0
LINE
  8
0
 62
     0
 10
249.47
 20
92.7185
 30
0.0
 11
250.27
 21
92.7185
 31
0.0
  0
LINE
  8
0
 62
     0
 10
250.27
 20
92.7185
 30
0.0
 11
250.27
 21
86.9184
 31
0.0
  0
LINE
  8
0
 62
     0
 10
250.27
 20
86.9184
 30
0.0
 11
249.47
 21
86.9184
 31
0.0
  0
LINE
  8
0
 62
     0
 10
249.47
 20
86.9184
 30
0.0
 11
249.47
 21
83.8179
 31
0.0
  0
LINE
  8
0
 62
     0
 10
249.47
 20
83.8179
 30
0.0
 11
250.27
 21
83.8179
 31
0.0
  0
LINE
  8
0
 62
     0
 10
250.27
 20
83.8179
 30
0.0
 11
250.27
 21
82.8188
 31
0.0
  0
LINE
  8
0
 62
     0
 10
250.27
 20
82.8188
 30
0.0
 11
264.269
 21
82.8188
 31
0.0
  0
LINE
  8
0
 62
     0
 10
264.269
 20
82.8188
 30
0.0
 11
264.269
 21
83.8179
 31
0.0
  0
LINE
  8
0
 62
     0
 10
264.269
 20
83.8179
 30
0.0
 11
265.07
 21
83.8179
 31
0.0
  0
LINE
  8
0
 62
     0
 10
265.07
 20
83.8179
 30
0.0
 11
265.07
 21
86.9184
 31
0.0
  0
LINE
  8
0
 62
     0
 10
265.07
 20
86.9184
 30
0.0
 11
264.269
 21
86.9184
 31
0.0
  0
LINE
  8
0
 62
     0
 10
264.269
 20
86.9184
 30
0.0
 11
264.269
 21
92.7185
 31
0.0
  0
LINE
  8
0
 62
     0
 10
264.269
 20
92.7185
 30
0.0
 11
265.07
 21
92.7185
 31
0.0
  0
LINE
  8
0
 62
     0
 10
265.07
 20
92.7185
 30
0.0
 11
265.07
 21
95.8176
 31
0.0
  0
LINE
  8
0
 62
     0
 10
265.07
 20
95.8176
 30
0.0
 11
264.269
 21
95.8176
 31
0.0
  0
LINE
  8
0
 62
     0
 10
264.269
 20
95.8176
 30
0.0
 11
264.269
 21
96.8181
 31
0.0
  0
LINE
  8
0
 62
     0
 10
264.269
 20
96.8181
 30
0.0
 11
250.27
 21
96.8181
 31
0.0
  0
LINE
  8
0
 62
     0
 10
269.32
 20
96.8181
 30
0.0
 11
269.32
 21
95.8176
 31
0.0
  0
LINE
  8
0
 62
     0
 10
269.32
 20
95.8176
 30
0.0
 11
268.52
 21
95.8176
 31
0.0
  0
LINE
  8
0
 62
     0
 10
268.52
 20
95.8176
 30
0.0
 11
268.52
 21
92.7185
 31
0.0
  0
LINE
  8
0
 62
     0
 10
268.52
 20
92.7185
 30
0.0
 11
269.32
 21
92.7185
 31
0.0
  0
LINE
  8
0
 62
     0
 10
269.32
 20
92.7185
 30
0.0
 11
269.32
 21
86.9184
 31
0.0
  0
LINE
  8
0
 62
     0
 10
269.32
 20
86.9184
 30
0.0
 11
268.52
 21
86.9184
 31
0.0
  0
LINE
  8
0
 62
     0
 10
268.52
 20
86.9184
 30
0.0
 11
268.52
 21
83.8179
 31
0.0
  0
LINE
  8
0
 62
     0
 10
268.52
 20
83.8179
 30
0.0
 11
269.32
 21
83.8179
 31
0.0
  0
LINE
  8
0
 62
     0
 10
269.32
 20
83.8179
 30
0.0
 11
269.32
 21
82.8188
 31
0.0
  0
LINE
  8
0
 62
     0
 10
269.32
 20
82.8188
 30
0.0
 11
283.319
 21
82.8188
 31
0.0
  0
LINE
  8
0
 62
     0
 10
283.319
 20
82.8188
 30
0.0
 11
283.319
 21
83.8179
 31
0.0
  0
LINE
  8
0
 62
     0
 10
283.319
 20
83.8179
 30
0.0
 11
284.12
 21
83.8179
 31
0.0
  0
LINE
  8
0
 62
     0
 10
284.12
 20
83.8179
 30
0.0
 11
284.12
 21
86.9184
 31
0.0
  0
LINE
  8
0
 62
     0
 10
284.12
 20
86.9184
 30
0.0
 11
283.319
 21
86.9184
 31
0.0
  0
LINE
  8
0
 62
     0
 10
283.319
 20
86.9184
 30
0.0
 11
283.319
 21
92.7185
 31
0.0
  0
LINE
  8
0
 62
     0
 10
283.319
 20
92.7185
 30
0.0
 11
284.12
 21
92.7185
 31
0.0
  0
LINE
  8
0
 62
     0
 10
284.12
 20
92.7185
 30
0.0
 11
284.12
 21
95.8176
 31
0.0
  0
LINE
  8
0
 62
     0
 10
284.12
 20
95.8176
 30
0.0
 11
283.319
 21
95.8176
 31
0.0
  0
LINE
  8
0
 62
     0
 10
283.319
 20
95.8176
 30
0.0
 11
283.319
 21
96.8181
 31
0.0
  0
LINE
  8
0
 62
     0
 10
283.319
 20
96.8181
 30
0.0
 11
269.32
 21
96.8181
 31
0.0
  0
ENDSEC
  0
EOF
